<svg version="1.1" id="レイヤー_1" xmlns="http://www.w3.org/2000/svg" xmlns:xlink="http://www.w3.org/1999/xlink" xml:space="preserve"
 viewBox="0 0 37.826 42.169">
<g>
	<path d="M3.122,34.166c0.335,0,1.125,0.084,2.369,0.251c0.574,0.096,1.028,0.144,1.363,0.144c2.034,0,3.206-1.603,3.518-4.809
		c0.167-1.818,0.251-6.986,0.251-15.504c0-1.293-0.264-2.189-0.79-2.692c-0.526-0.502-1.484-0.753-2.871-0.753
		c-0.335,0-0.813,0.035-1.436,0.107c-0.479,0.048-0.897,0.071-1.256,0.071c-0.813,0-1.471-0.221-1.974-0.664
		c-0.502-0.442-0.754-1.022-0.754-1.74c0-0.766,0.383-1.525,1.148-2.279c0.766-0.753,1.831-1.417,3.194-1.991
		C12.656,1.436,19.858,0,27.49,0c2.082,0,3.595,0.245,4.541,0.735c0.944,0.491,1.417,1.274,1.417,2.351
		c0,0.623-0.155,1.107-0.467,1.454s-0.933,0.724-1.866,1.13c-1.483,0.646-2.332,1.436-2.548,2.369
		c-0.216,0.933-0.383,4.57-0.503,10.91c0.191,6.412,0.299,9.846,0.323,10.3c0.024,0.455,0.12,1.089,0.287,1.902
		c0.287,1.269,0.825,2.142,1.615,2.62s2.177,0.766,4.163,0.861c2.248,0.096,3.373,1.017,3.373,2.763
		c0,1.818-1.591,3.015-4.772,3.589c-4.427,0.79-8.973,1.185-13.638,1.185c-3.063,0-5.958-0.18-8.686-0.538
		c-3.421-0.479-6.077-1.064-7.967-1.759C0.921,39.202,0,38.197,0,36.857c0-0.718,0.299-1.34,0.897-1.866
		C1.495,34.465,2.237,34.189,3.122,34.166z"/>
</g>
</svg>
