<svg xmlns="http://www.w3.org/2000/svg" viewBox="0 0 70.96 42.38"><g id="レイヤー_2" data-name="レイヤー 2"><g id="レイヤー_3" data-name="レイヤー 3"><path d="M50,0a20,20,0,0,1,9.47,2.41A20.54,20.54,0,0,1,68.7,12,22.62,22.62,0,0,1,71,22,19.6,19.6,0,0,1,63.6,37.72a19.59,19.59,0,0,1-12.85,4.66,19.18,19.18,0,0,1-13.56-5.2Q30.55,31,30.55,20.78q0-10,6.06-15.72A18.74,18.74,0,0,1,50,0Zm-.83,10.7c-2.22,0-3.34,1.89-3.34,5.67a30.55,30.55,0,0,0,2.84,13.35c.74,1.53,1.73,2.29,3,2.29,2.18,0,3.26-1.92,3.26-5.77a36.71,36.71,0,0,0-.7-6.91,25.11,25.11,0,0,0-1.77-6C51.65,11.65,50.56,10.77,49.17,10.7Z"/><path d="M2.89,33.44c.31,0,1,.08,2.19.23a8.08,8.08,0,0,0,1.26.14c1.88,0,3-1.49,3.26-4.45q.22-2.53.23-14.35a3.37,3.37,0,0,0-.73-2.49,3.89,3.89,0,0,0-2.66-.7c-.31,0-.75,0-1.33.1A10.35,10.35,0,0,1,4,12a2.64,2.64,0,0,1-1.82-.62,2,2,0,0,1-.7-1.61A3,3,0,0,1,2.49,7.65a9.4,9.4,0,0,1,3-1.84,50.74,50.74,0,0,1,20-4,9.58,9.58,0,0,1,4.2.68A2.28,2.28,0,0,1,31,4.68,2,2,0,0,1,30.52,6a5.27,5.27,0,0,1-1.73,1c-1.37.6-2.16,1.33-2.36,2.2A92.25,92.25,0,0,0,26,19.36q.26,8.9.3,9.53a12.86,12.86,0,0,0,.26,1.76A3.65,3.65,0,0,0,28,33.08a8.87,8.87,0,0,0,3.85.79C34,34,35,34.81,35,36.43s-1.47,2.79-4.42,3.32A71.69,71.69,0,0,1,18,40.85a62,62,0,0,1-8-.5,38,38,0,0,1-7.37-1.63C.85,38.1,0,37.17,0,35.93A2.26,2.26,0,0,1,.83,34.2,3.16,3.16,0,0,1,2.89,33.44Z"/></g></g></svg>