<svg version="1.1" id="レイヤー_1" xmlns="http://www.w3.org/2000/svg" xmlns:xlink="http://www.w3.org/1999/xlink" xml:space="preserve"
 viewBox="0 0 41.81 44.537">
<g>
	<path d="M27.67,41.164H3.23c-2.153,0-3.23-0.61-3.23-1.83c0-0.622,0.227-1.202,0.682-1.741c0.454-0.538,1.925-1.979,4.414-4.324
		c4.617-4.354,8.039-8.41,10.264-12.166c1.148-1.914,1.723-3.565,1.723-4.953c0-1.196-0.347-2.146-1.041-2.853
		c-0.694-0.706-1.627-1.059-2.8-1.059c-1.101,0-1.938,0.149-2.512,0.448c-0.574,0.3-1.843,1.274-3.805,2.925
		c-0.526,0.431-1.22,0.646-2.081,0.646c-1.125,0-2.16-0.437-3.104-1.311c-0.946-0.873-1.418-1.824-1.418-2.854
		c0-0.933,0.431-1.991,1.292-3.176s1.998-2.303,3.41-3.355C10.192,1.854,15.922,0,22.215,0C27,0,30.959,0.921,34.094,2.764
		c1.412,0.837,2.548,2.01,3.409,3.517s1.292,3.087,1.292,4.737c0,4.188-2.895,8.733-8.685,13.638
		c-2.058,1.723-3.087,3.015-3.087,3.876c0,0.67,0.311,1.238,0.934,1.705c0.621,0.466,1.375,0.699,2.261,0.699
		c2.104,0,3.983-0.812,5.635-2.44c0.837-0.812,1.394-1.304,1.669-1.472c0.274-0.167,0.651-0.251,1.13-0.251
		c2.105,0,3.158,1.795,3.158,5.384c0,1.794-0.341,3.612-1.022,5.455s-1.609,3.434-2.781,4.773c-1.244,1.436-2.608,2.152-4.092,2.152
		c-0.598,0-1.076-0.125-1.436-0.376c-0.358-0.252-0.766-0.725-1.22-1.418c-0.431-0.67-0.856-1.101-1.274-1.292
		C29.566,41.26,28.794,41.164,27.67,41.164z"/>
</g>
</svg>
