<svg version="1.1" id="レイヤー_1" xmlns="http://www.w3.org/2000/svg" xmlns:xlink="http://www.w3.org/1999/xlink" xml:space="preserve"
 viewBox="0 0 42.456 48.593">
<g>
	<path d="M19.021,0c4.642,0,8.745,0.85,12.31,2.548c1.411,0.694,2.529,1.657,3.355,2.889c0.825,1.233,1.238,2.555,1.238,3.966
		c0,2.584-1.352,4.953-4.056,7.106c-0.767,0.622-1.148,1.112-1.148,1.472c0,0.693,0.682,1.172,2.046,1.436
		c6.46,1.196,9.689,4.785,9.689,10.766c0,3.757-1.316,7.19-3.947,10.301c-2.488,2.99-6.161,5.191-11.018,6.604
		c-3.494,1.005-7.334,1.507-11.521,1.507c-4.905,0-9.116-0.682-12.633-2.046C1.112,45.686,0,44.43,0,42.779
		c0-1.029,0.377-1.896,1.13-2.603c0.754-0.705,1.669-1.059,2.746-1.059c0.598,0,2.213,0.3,4.845,0.897
		c0.861,0.215,2.094,0.323,3.697,0.323c2.871,0,5.156-0.658,6.855-1.974c1.794-1.412,2.691-3.027,2.691-4.846
		c0-1.698-0.694-3.092-2.082-4.181c-1.388-1.089-3.17-1.633-5.347-1.633c-1.388,0-2.608,0.155-3.661,0.466
		c-0.622,0.192-1.089,0.287-1.399,0.287c-0.623,0-1.262-0.633-1.92-1.901c-0.659-1.269-0.987-2.5-0.987-3.696
		c0-0.574,0.156-0.963,0.467-1.167c0.311-0.203,1.304-0.592,2.979-1.166c1.508-0.503,2.955-1.459,4.343-2.871
		c1.053-1.077,1.579-2.237,1.579-3.481c0-1.363-0.538-2.542-1.615-3.535c-1.076-0.992-2.368-1.489-3.876-1.489
		c-0.909,0-1.681,0.107-2.314,0.323c-0.634,0.215-1.801,0.777-3.499,1.687c-0.503,0.264-0.897,0.395-1.185,0.395
		c-0.598,0-1.167-0.418-1.705-1.256C1.202,9.463,0.933,8.577,0.933,7.645c0-1.627,1.436-3.158,4.307-4.594
		c1.794-0.909,3.953-1.646,6.478-2.208C14.242,0.281,16.676,0,19.021,0z"/>
</g>
</svg>
