<svg version="1.1" id="レイヤー_1" xmlns="http://www.w3.org/2000/svg" xmlns:xlink="http://www.w3.org/1999/xlink" xml:space="preserve"
 viewBox="0 0 41.416 50.675">
<g>
	<path d="M36.714,3.84v24.799c0,0.742,0.102,1.251,0.306,1.525c0.202,0.275,0.579,0.413,1.13,0.413h1.508
		c1.125-0.023,1.711,0.658,1.759,2.045v7.286c0,1.269-0.646,1.986-1.938,2.153c-0.838,0.096-1.363,0.251-1.579,0.467
		c-0.215,0.215-0.323,0.729-0.323,1.543v4.234c0.096,1.508-0.598,2.297-2.081,2.369H23.22c-0.861,0-1.423-0.15-1.687-0.449
		s-0.395-0.938-0.395-1.92v-3.696c0-1.005-0.192-1.705-0.574-2.1c-0.383-0.395-1.053-0.592-2.01-0.592H4.558
		c-1.675,0-2.853-0.353-3.535-1.059C0.341,40.153,0,38.938,0,37.216c0-2.297,0.275-4.091,0.826-5.383
		c0.669-1.603,2.596-4.307,5.778-8.111l9.116-10.945c4.569-5.479,7.943-8.973,10.12-10.479c0.981-0.67,2.171-1.221,3.571-1.651
		C30.811,0.215,32.12,0,33.341,0c1.196,0,2.058,0.299,2.584,0.897C36.45,1.495,36.714,2.476,36.714,3.84z M21.641,22.466v-1.758
		c0-2.154-0.598-3.23-1.794-3.23c-0.91,0-1.759,0.49-2.548,1.472l-5.527,6.782c-1.603,1.986-2.404,3.41-2.404,4.271
		c0,0.622,0.335,1.022,1.005,1.202c0.669,0.18,2.333,0.305,4.988,0.377l2.835,0.036c1.22,0,2.045-0.138,2.476-0.413
		c0.431-0.274,0.682-0.819,0.754-1.633C21.569,28.257,21.641,25.888,21.641,22.466z"/>
</g>
</svg>
