<svg version="1.1" id="レイヤー_1" xmlns="http://www.w3.org/2000/svg" xmlns:xlink="http://www.w3.org/1999/xlink" xml:space="preserve"
 viewBox="0 0 39.478 48.271">
<g>
	<path d="M11.089,0h25.518c0.957,0,1.603,0.204,1.938,0.61c0.335,0.407,0.503,1.196,0.503,2.368c0,1.628-0.287,3.225-0.861,4.792
		s-1.328,2.805-2.261,3.714c-0.742,0.718-1.699,1.077-2.871,1.077H16.831c-1.818,0-2.727,0.718-2.727,2.153
		c0,0.598,0.209,1.017,0.627,1.256c0.419,0.239,1.334,0.419,2.746,0.538c5.24,0.526,9.773,1.687,13.602,3.481
		c2.752,1.269,4.953,3.135,6.604,5.599c1.196,1.771,1.795,3.685,1.795,5.742c0,3.35-1.436,6.52-4.307,9.511
		c-2.273,2.368-5.246,4.199-8.918,5.49c-3.674,1.293-7.723,1.938-12.148,1.938c-3.518,0-6.712-0.455-9.583-1.364
		c-2.655-0.813-3.983-2.188-3.983-4.127c0-1.125,0.191-2.094,0.574-2.906c0.383-0.813,0.838-1.221,1.363-1.221
		c0.287,0,0.646,0.072,1.077,0.215c0.956,0.287,2.136,0.551,3.535,0.79s2.518,0.358,3.355,0.358c2.033,0,3.673-0.436,4.917-1.31
		c1.244-0.873,1.866-2.027,1.866-3.463c0-1.771-0.981-3.254-2.943-4.45c-1.89-1.148-4.294-1.962-7.214-2.44
		c-2.464-0.407-3.941-0.664-4.432-0.771c-0.49-0.108-0.951-0.306-1.382-0.593C0.418,26.463,0,25.721,0,24.764
		c0-1.292,0.55-3.828,1.65-7.608s2.356-7.417,3.769-10.91c1.125-2.848,1.986-4.6,2.584-5.258S9.63,0,11.089,0z"/>
</g>
</svg>
