<svg version="1.1" id="レイヤー_1" xmlns="http://www.w3.org/2000/svg" xmlns:xlink="http://www.w3.org/1999/xlink" xml:space="preserve"
 viewBox="0 0 42.098 47.66">
<g>
	<path d="M16.581,0c1.028,0,2.715,0.371,5.06,1.113c1.269,0.406,2.333,0.896,3.194,1.471s1.292,1.089,1.292,1.543
		c0,0.359-0.138,0.725-0.412,1.095c-0.275,0.372-1.154,1.395-2.639,3.069c-0.957,1.028-1.812,2.272-2.565,3.732
		c-0.754,1.459-1.131,2.56-1.131,3.301c0,0.359,0.108,0.664,0.323,0.916c0.215,0.251,0.479,0.377,0.789,0.377
		c0.264,0,1.125-0.264,2.584-0.79c1.986-0.718,3.853-1.077,5.6-1.077c3.014,0,5.754,0.958,8.218,2.871
		c3.47,2.681,5.204,6.27,5.204,10.768c0,3.564-1.053,6.986-3.158,10.264c-3.853,6.006-9.582,9.008-17.19,9.008
		c-6.316,0-11.413-1.817-15.289-5.455c-2.153-2.033-3.816-4.594-4.988-7.68C0.49,31.965,0,29.393,0,26.809
		c0-6.053,2.428-12.249,7.285-18.59c2.297-2.99,4.146-5.108,5.545-6.353C14.23,0.623,15.48,0,16.581,0z M20.492,24.907
		c-1.053,0-1.884,0.377-2.494,1.13c-0.609,0.754-0.915,1.777-0.915,3.068c0,1.986,0.706,3.954,2.118,5.904
		c1.411,1.95,2.847,2.925,4.307,2.925c0.98,0,1.77-0.293,2.368-0.879c0.598-0.586,0.897-1.358,0.897-2.315
		c0-1.603-0.359-3.271-1.077-5.006s-1.591-3.021-2.62-3.858C22.311,25.254,21.449,24.931,20.492,24.907z"/>
</g>
</svg>
