<svg version="1.1" id="レイヤー_1" xmlns="http://www.w3.org/2000/svg" xmlns:xlink="http://www.w3.org/1999/xlink" xml:space="preserve"
 viewBox="0 0 40.914 51.931">
<g>
	<path d="M40.627,6.245L26.056,50.388c-0.216,0.598-0.587,1.005-1.112,1.221c-0.527,0.215-1.412,0.322-2.656,0.322
		c-2.752,0-5.258-0.407-7.519-1.22c-2.261-0.813-3.392-1.711-3.392-2.692c0-0.239,0.096-0.538,0.287-0.896l13.387-25.589
		c0.98-1.89,1.472-3.206,1.472-3.948c0-0.908-0.562-1.53-1.687-1.865c-1.125-0.335-3.207-0.503-6.245-0.503
		c-3.638,0-6.233,0.228-7.788,0.682c-0.67,0.216-1.256,0.67-1.758,1.364c-0.67,0.909-1.274,1.525-1.812,1.848
		c-0.539,0.323-1.238,0.484-2.1,0.484c-1.651,0-2.92-0.687-3.805-2.063C0.443,16.156,0,14.176,0,11.592
		c0-3.158,0.574-5.825,1.723-8.003c0.551-1.028,1.262-1.884,2.136-2.566C4.731,0.341,5.563,0,6.353,0
		c0.55,0,1.759,0.419,3.625,1.256c1.172,0.479,2.655,0.718,4.45,0.718h23.076c2.273,0,3.41,0.861,3.41,2.584
		C40.914,5.108,40.818,5.671,40.627,6.245z"/>
</g>
</svg>
