<svg version="1.1" id="レイヤー_1" xmlns="http://www.w3.org/2000/svg" xmlns:xlink="http://www.w3.org/1999/xlink" xml:space="preserve"
 viewBox="0 0 42.528 46.439">
<g>
	<path d="M20.672,0c5.025,0,9.654,0.825,13.89,2.477c2.32,0.909,4.198,2.309,5.634,4.198c1.053,1.364,1.58,2.943,1.58,4.737
		c0,2.823-1.557,5.229-4.666,7.214c-0.934,0.599-1.399,1.077-1.399,1.436c0,0.335,0.562,0.886,1.687,1.651
		c1.555,1.076,2.799,2.482,3.732,4.217s1.399,3.522,1.399,5.365c0,2.775-1.005,5.479-3.015,8.11
		c-3.564,4.689-9.211,7.034-16.939,7.034c-5.336,0-10.072-0.945-14.212-2.835c-2.799-1.292-4.988-3.074-6.567-5.348
		C0.598,36.559,0,34.573,0,32.3c0-3.087,1.424-5.635,4.271-7.645c1.053-0.766,1.579-1.34,1.579-1.723
		c0-0.311-0.455-0.897-1.364-1.759c-2.273-2.177-3.409-4.785-3.409-7.823c0-4.211,2.104-7.573,6.316-10.085
		C11.055,1.089,15.48,0,20.672,0z M13.746,27.993c-0.551,0-0.987,0.257-1.311,0.771c-0.322,0.515-0.484,1.179-0.484,1.991
		c0,0.934,0.239,1.951,0.718,3.051c0.479,1.101,1.077,2.01,1.795,2.728c1.723,1.747,3.827,2.62,6.316,2.62
		c1.459,0,2.625-0.323,3.499-0.969c0.873-0.646,1.31-1.495,1.31-2.549c0-1.172-0.413-2.129-1.237-2.871
		c-0.826-0.741-2.566-1.734-5.223-2.979C16.593,28.615,14.799,28.017,13.746,27.993z M22.287,6.639c-1.053,0-1.932,0.27-2.638,0.808
		c-0.706,0.539-1.059,1.202-1.059,1.992c0,1.244,0.873,2.5,2.62,3.769c1.938,1.436,3.517,2.153,4.737,2.153
		c0.622,0,1.185-0.419,1.687-1.257c0.502-0.837,0.754-1.781,0.754-2.835c0-1.411-0.527-2.488-1.579-3.229
		C25.518,7.105,24.01,6.639,22.287,6.639z"/>
</g>
</svg>
