<svg version="1.1" id="レイヤー_1" xmlns="http://www.w3.org/2000/svg" xmlns:xlink="http://www.w3.org/1999/xlink" xml:space="preserve"
 viewBox="0 0 41.81 50.388">
<g>
	<path d="M20.887,0c4.785,0,9.151,1.089,13.1,3.266c5.216,2.896,7.823,7.585,7.823,14.068c0,5.24-1.699,10.743-5.096,16.509
		c-3.756,6.388-8.195,11.472-13.314,15.253c-1.197,0.861-2.226,1.292-3.087,1.292c-1.46,0-3.337-0.616-5.634-1.849
		s-3.445-2.231-3.445-2.996c0-0.503,0.705-1.221,2.117-2.154c1.746-1.148,3.254-2.727,4.521-4.736
		c1.172-1.843,1.759-3.326,1.759-4.451c0-0.908-0.479-1.363-1.436-1.363c-0.335,0-1.148,0.072-2.44,0.215
		c-0.191,0.024-0.526,0.036-1.005,0.036c-3.828,0-6.903-1.1-9.224-3.302c-1.746-1.627-3.104-3.625-4.073-5.993
		C0.484,21.426,0,18.961,0,16.4c0-5.119,1.95-9.079,5.85-11.879C9.989,1.507,15.001,0,20.887,0z M20.421,10.264
		c-1.029,0-1.891,0.431-2.584,1.292c-0.695,0.861-1.041,1.927-1.041,3.194c0,2.465,0.598,4.588,1.794,6.37
		c1.196,1.783,2.62,2.674,4.271,2.674c0.981,0,1.777-0.358,2.387-1.077c0.61-0.717,0.916-1.65,0.916-2.799
		c0-1.292-0.275-2.757-0.826-4.396c-0.551-1.639-1.172-2.877-1.866-3.715C22.609,10.803,21.593,10.288,20.421,10.264z"/>
</g>
</svg>
