<svg width="333" height="57" viewBox="0 0 333 57" fill="none" xmlns="http://www.w3.org/2000/svg">
<rect width="333" height="57" rx="28.5" fill="#03BA03"/>
<path fill-rule="evenodd" clip-rule="evenodd" d="M73.4999 9C85.9264 9 96 16.8525 96 26.5391C96 29.9226 94.7701 33.0817 92.6409 35.7609C92.5355 35.9134 92.3979 36.0819 92.2243 36.2681L92.2112 36.282C91.4838 37.1291 90.6648 37.9243 89.7643 38.6584C83.5422 44.257 73.3007 50.9225 71.949 49.8941C70.774 49.0003 73.8844 44.6281 70.2959 43.9005C70.0455 43.8725 69.7958 43.8425 69.5482 43.8083L69.5435 43.808C59.0038 42.3504 51 35.1733 51 26.5391C50.9997 16.8525 61.0734 9 73.4999 9Z" fill="white"/>
<path fill-rule="evenodd" clip-rule="evenodd" d="M60.1617 31.9794H64.6543C65.2933 31.9794 65.816 31.4546 65.816 30.8133V30.716C65.816 30.0747 65.2933 29.5501 64.6543 29.5501H61.4203V22.1659C61.4203 21.5246 60.8977 21 60.2586 21H60.1617C59.5227 21 59 21.5246 59 22.1659V30.8131C59 31.4546 59.5227 31.9794 60.1617 31.9794V31.9794ZM88 26.5591V26.4619C88 25.8205 87.4772 25.296 86.8381 25.296H83.6043V23.4499H86.8381C87.4772 23.4499 88 22.9253 88 22.284V22.1867C88 21.5454 87.4772 21.0208 86.8381 21.0208H82.3455C81.7065 21.0208 81.1838 21.5454 81.1838 22.1867V30.8339C81.1838 31.4753 81.7065 32 82.3455 32H86.8381C87.4772 32 88 31.4753 88 30.8339V30.7367C88 30.0953 87.4772 29.5708 86.8381 29.5708H83.6043V27.7247H86.8381C87.4772 27.725 88 27.2003 88 26.5591V26.5591ZM79.3603 31.6317L79.3606 31.6313C79.5755 31.4137 79.6963 31.1198 79.6965 30.8135V22.1662C79.6965 21.5249 79.1738 21.0003 78.5346 21.0003H78.4377C77.7987 21.0003 77.276 21.5249 77.276 22.1662V27.2422L73.0769 21.5899C72.8763 21.2384 72.4986 21.0003 72.0682 21.0003H71.9713C71.3322 21.0003 70.8094 21.5249 70.8094 22.1662V30.8135C70.8094 31.4548 71.3321 31.9795 71.9713 31.9795H72.0682C72.7072 31.9795 73.2299 31.4548 73.2299 30.8135V25.6424L77.4592 31.4398C77.4852 31.4804 77.5137 31.5195 77.5444 31.5566L77.5445 31.5569C77.6608 31.7159 77.8197 31.825 77.9968 31.8916C78.133 31.9481 78.2818 31.9794 78.4375 31.9794H78.5344C78.7238 31.9795 78.9102 31.9327 79.0772 31.8432C79.1934 31.7877 79.2913 31.7161 79.3603 31.6317V31.6317ZM67.9154 31.9794H68.0123C68.6513 31.9794 69.174 31.4546 69.174 30.8133V22.1661C69.174 21.5247 68.6513 21.0002 68.0123 21.0002H67.9154C67.2763 21.0002 66.7535 21.5247 66.7535 22.1661V30.8133C66.7535 31.4546 67.2763 31.9794 67.9154 31.9794Z" fill="#03BA03"/>
<path d="M119.064 35.192C119.48 35.192 119.824 35.328 120.096 35.6C120.384 35.856 120.528 36.192 120.528 36.608C120.528 37.008 120.384 37.344 120.096 37.616C119.824 37.872 119.48 38 119.064 38H111.264C110.848 38 110.496 37.864 110.208 37.592C109.936 37.304 109.8 36.952 109.8 36.536V22.664C109.8 22.248 109.944 21.904 110.232 21.632C110.52 21.344 110.888 21.2 111.336 21.2C111.736 21.2 112.08 21.344 112.368 21.632C112.656 21.904 112.8 22.248 112.8 22.664V35.192H119.064ZM126.277 36.536C126.277 36.952 126.125 37.304 125.821 37.592C125.517 37.864 125.165 38 124.765 38C124.333 38 123.973 37.864 123.685 37.592C123.413 37.304 123.277 36.952 123.277 36.536V22.664C123.277 22.248 123.421 21.904 123.709 21.632C123.997 21.344 124.365 21.2 124.813 21.2C125.213 21.2 125.557 21.344 125.845 21.632C126.133 21.904 126.277 22.248 126.277 22.664V36.536ZM142.63 21.2C143.014 21.2 143.326 21.328 143.566 21.584C143.806 21.84 143.926 22.16 143.926 22.544V36.536C143.926 36.952 143.782 37.304 143.494 37.592C143.222 37.864 142.878 38 142.462 38C142.238 38 142.014 37.968 141.79 37.904C141.582 37.824 141.43 37.72 141.334 37.592L132.526 26.408V36.656C132.526 37.04 132.398 37.36 132.142 37.616C131.902 37.872 131.582 38 131.182 38C130.798 38 130.486 37.872 130.246 37.616C130.006 37.36 129.886 37.04 129.886 36.656V22.664C129.886 22.248 130.022 21.904 130.294 21.632C130.582 21.344 130.934 21.2 131.35 21.2C131.59 21.2 131.822 21.248 132.046 21.344C132.286 21.44 132.462 21.568 132.574 21.728L141.31 32.864V22.544C141.31 22.16 141.43 21.84 141.67 21.584C141.926 21.328 142.246 21.2 142.63 21.2ZM157.038 35.24C157.454 35.24 157.798 35.384 158.07 35.672C158.358 35.944 158.502 36.264 158.502 36.632C158.502 37.032 158.358 37.36 158.07 37.616C157.798 37.872 157.454 38 157.038 38H148.998C148.582 38 148.23 37.864 147.942 37.592C147.67 37.304 147.534 36.952 147.534 36.536V22.664C147.534 22.248 147.67 21.904 147.942 21.632C148.23 21.344 148.582 21.2 148.998 21.2H157.038C157.454 21.2 157.798 21.336 158.07 21.608C158.358 21.864 158.502 22.2 158.502 22.616C158.502 23.016 158.366 23.344 158.094 23.6C157.822 23.84 157.47 23.96 157.038 23.96H150.534V28.04H155.958C156.374 28.04 156.718 28.176 156.99 28.448C157.278 28.704 157.422 29.04 157.422 29.456C157.422 29.856 157.286 30.184 157.014 30.44C156.742 30.68 156.39 30.8 155.958 30.8H150.534V35.24H157.038ZM161.125 21.56L161.437 24.848C164.197 24.248 169.117 23.72 171.349 23.48C169.741 24.704 167.797 27.44 167.797 30.872C167.797 36.08 172.549 38.792 177.565 39.104L178.693 35.816C174.637 35.624 170.941 34.184 170.941 30.248C170.941 27.392 173.125 24.272 176.005 23.504C177.301 23.216 179.365 23.192 180.661 23.192L180.637 20.096C178.933 20.168 176.317 20.336 173.821 20.528C169.429 20.912 165.469 21.248 163.477 21.44C163.021 21.488 162.061 21.536 161.125 21.56ZM177.229 25.544L175.453 26.288C176.197 27.344 176.701 28.304 177.325 29.6L179.125 28.808C178.669 27.848 177.805 26.384 177.229 25.544ZM179.893 24.44L178.165 25.232C178.933 26.288 179.485 27.2 180.133 28.496L181.933 27.632C181.429 26.696 180.517 25.28 179.893 24.44ZM186.493 20.984C186.517 21.68 186.517 22.64 186.517 23.336C186.517 24.728 186.517 33.608 186.517 35.048C186.517 36.2 186.469 38.312 186.469 38.432H189.757C189.757 38.312 189.733 36.296 189.733 35.144C189.733 33.728 189.733 24.104 189.733 24.104H201.349C201.349 24.104 201.349 33.752 201.349 35.144C201.349 36.464 201.277 38.336 201.277 38.432H204.613C204.589 38.336 204.565 36.032 204.565 35.096C204.565 33.632 204.565 24.8 204.565 23.336C204.565 22.592 204.565 21.728 204.613 21.008C203.725 21.032 202.837 21.032 202.237 21.032C200.509 21.032 190.765 21.032 189.013 21.032C188.365 21.032 187.453 21.008 186.493 20.984ZM202.525 34.064H188.101V37.112H202.525V34.064ZM226.165 18.344L224.245 19.136C224.893 20.048 225.637 21.488 226.141 22.472L228.061 21.632C227.605 20.744 226.765 19.232 226.165 18.344ZM228.997 17.264L227.101 18.056C227.749 18.944 228.517 20.36 229.021 21.344L230.941 20.528C230.509 19.688 229.621 18.176 228.997 17.264ZM228.301 23.624L225.853 22.112C225.301 22.304 224.509 22.4 223.765 22.4C222.997 22.4 217.981 22.4 216.901 22.4L215.797 25.136H223.885C223.501 26.912 222.109 29.792 220.477 31.664C218.389 34.04 215.725 36.128 210.805 37.616L213.637 40.136C218.149 38.36 221.053 36.152 223.333 33.368C225.493 30.704 226.861 27.488 227.509 25.352C227.701 24.752 228.037 24.104 228.301 23.624ZM220.477 19.832L216.973 18.68C216.757 19.496 216.253 20.624 215.893 21.2C214.693 23.264 212.605 26.36 208.381 28.928L211.093 30.92C214.525 28.568 217.405 25.184 219.013 22.28C219.301 21.776 219.925 20.672 220.477 19.832ZM232.957 28.688L234.445 31.712C238.237 30.584 242.125 28.784 244.837 27.176C247.669 25.472 250.597 23.216 252.781 21.008L250.189 18.56C248.629 20.456 245.893 22.856 243.445 24.368C240.757 26.024 237.253 27.584 232.957 28.688ZM242.941 25.928V35.936C242.941 36.992 242.845 38.504 242.749 39.08H246.565C246.397 38.48 246.349 36.992 246.349 35.936V25.112L242.941 25.928ZM261.253 19.76L258.973 22.184C260.725 23.384 263.749 26 264.997 27.344L267.445 24.848C266.029 23.384 262.909 20.888 261.253 19.76ZM258.229 35.744L260.269 38.912C263.629 38.336 266.725 37.016 269.173 35.552C273.037 33.224 276.229 29.912 278.029 26.648L276.181 23.288C274.645 26.528 271.525 30.176 267.421 32.624C265.093 33.992 261.997 35.216 258.229 35.744Z" fill="white"/>
</svg>
