<svg width="300" height="60" viewBox="0 0 300 60" fill="none" xmlns="http://www.w3.org/2000/svg">
<rect width="300" height="60" rx="30" fill="#06C755"/>
<path d="M87.9981 27.2294C87.9981 18.2806 79.0268 11 67.9991 11C56.9714 11 48 18.2806 48 27.2294C48 35.2523 55.1156 41.9705 64.7262 43.2414C65.3766 43.382 66.2633 43.6707 66.4882 44.2274C66.6907 44.7335 66.6194 45.5246 66.5538 46.0363C66.5538 46.0363 66.3195 47.4478 66.2689 47.7477C66.1808 48.2539 65.8678 49.7253 68.0009 48.8256C70.136 47.9258 79.5179 42.0436 83.713 37.2149C86.611 34.0358 88 30.8116 88 27.2294H87.9981Z" fill="white"/>
<path d="M81.3435 32.3978H75.7257C75.5138 32.3978 75.3433 32.2272 75.3433 32.0154V32.0097V23.297V23.2877C75.3433 23.0759 75.5138 22.9053 75.7257 22.9053H81.3435C81.5535 22.9053 81.7259 23.0777 81.7259 23.2877V24.7067C81.7259 24.9185 81.5554 25.0891 81.3435 25.0891H77.5252V26.5624H81.3435C81.5535 26.5624 81.7259 26.7349 81.7259 26.9448V28.3638C81.7259 28.5756 81.5554 28.7462 81.3435 28.7462H77.5252V30.2196H81.3435C81.5535 30.2196 81.7259 30.392 81.7259 30.602V32.021C81.7259 32.2328 81.5554 32.4034 81.3435 32.4034V32.3978Z" fill="#06C755"/>
<path d="M60.561 32.3972C60.7709 32.3972 60.9434 32.2266 60.9434 32.0148V30.5958C60.9434 30.3858 60.7709 30.2134 60.561 30.2134H56.7426V23.2852C56.7426 23.0753 56.5702 22.9028 56.3602 22.9028H54.9412C54.7294 22.9028 54.5588 23.0734 54.5588 23.2852V32.0073V32.0148C54.5588 32.2266 54.7294 32.3972 54.9412 32.3972H60.5591H60.561Z" fill="#06C755"/>
<path d="M63.9426 22.9053H62.5255C62.3143 22.9053 62.1431 23.0765 62.1431 23.2877V32.0154C62.1431 32.2265 62.3143 32.3978 62.5255 32.3978H63.9426C64.1538 32.3978 64.325 32.2265 64.325 32.0154V23.2877C64.325 23.0765 64.1538 22.9053 63.9426 22.9053Z" fill="#06C755"/>
<path d="M73.5982 22.9053H72.1792C71.9674 22.9053 71.7968 23.0759 71.7968 23.2877V28.4707L67.8041 23.0777C67.7948 23.0646 67.7835 23.0515 67.7741 23.0384C67.7741 23.0384 67.7741 23.0384 67.7723 23.0365C67.7648 23.029 67.7573 23.0196 67.7498 23.0121C67.7479 23.0102 67.7442 23.0084 67.7423 23.0065C67.7348 23.0009 67.7292 22.9953 67.7217 22.9896C67.7179 22.9878 67.7142 22.984 67.7104 22.9821C67.7048 22.9765 67.6973 22.9728 67.6898 22.969C67.686 22.9671 67.6823 22.9634 67.6785 22.9615C67.671 22.9578 67.6654 22.954 67.6579 22.9503C67.6542 22.9484 67.6504 22.9465 67.6467 22.9446C67.6392 22.9409 67.6317 22.9371 67.6242 22.9353C67.6204 22.9353 67.6167 22.9315 67.6111 22.9315C67.6036 22.9296 67.5961 22.9259 67.5886 22.924C67.5848 22.924 67.5792 22.9221 67.5754 22.9203C67.568 22.9203 67.5605 22.9165 67.553 22.9146C67.5473 22.9146 67.5417 22.9146 67.5361 22.9128C67.5286 22.9128 67.523 22.9109 67.5155 22.9109C67.508 22.9109 67.5023 22.9109 67.4948 22.9109C67.4911 22.9109 67.4855 22.9109 67.4817 22.9109H66.0721C65.8622 22.9109 65.6897 23.0815 65.6897 23.2933V32.021C65.6897 32.2309 65.8603 32.4034 66.0721 32.4034H67.4911C67.7029 32.4034 67.8735 32.2328 67.8735 32.021V26.838L71.8718 32.2384C71.8999 32.2778 71.9337 32.3096 71.9712 32.334C71.9712 32.334 71.9749 32.3359 71.9749 32.3378C71.9824 32.3434 71.9899 32.3471 71.9993 32.3528C72.003 32.3546 72.0068 32.3565 72.0105 32.3584C72.0161 32.3621 72.0236 32.364 72.0293 32.3678C72.0349 32.3715 72.0424 32.3734 72.048 32.3753C72.0518 32.3753 72.0555 32.379 72.0593 32.379C72.0686 32.3828 72.0761 32.3846 72.0855 32.3865C72.0855 32.3865 72.0892 32.3865 72.0911 32.3865C72.123 32.394 72.1567 32.3996 72.1905 32.3996H73.6001C73.81 32.3996 73.9825 32.229 73.9825 32.0172V23.2895C73.9825 23.0796 73.8119 22.9071 73.6001 22.9071L73.5982 22.9053Z" fill="#06C755"/>
<path d="M105.648 20.525H121.623V22.7H105.648V20.525ZM108.448 26.8V29.975H118.598V26.8H108.448ZM106.273 24.825H120.873V31.95H106.273V24.825ZM108.198 32.35C108.964 33.6167 110.006 34.7083 111.323 35.625C112.639 36.525 114.198 37.2583 115.998 37.825C117.798 38.375 119.773 38.7667 121.923 39C121.773 39.1667 121.606 39.375 121.423 39.625C121.239 39.875 121.064 40.125 120.898 40.375C120.748 40.6417 120.623 40.8917 120.523 41.125C118.306 40.8083 116.281 40.3 114.448 39.6C112.631 38.9167 111.031 38.025 109.648 36.925C108.281 35.825 107.148 34.5083 106.248 32.975L108.198 32.35ZM112.298 18.025H114.648V29.225C114.648 30.225 114.589 31.2 114.473 32.15C114.356 33.1 114.131 34.025 113.798 34.925C113.464 35.8083 112.981 36.6417 112.348 37.425C111.731 38.1917 110.914 38.8917 109.898 39.525C108.881 40.1583 107.623 40.7 106.123 41.15C106.023 40.9667 105.889 40.75 105.723 40.5C105.556 40.2667 105.381 40.025 105.198 39.775C105.014 39.5417 104.839 39.3417 104.673 39.175C106.106 38.8417 107.289 38.4167 108.223 37.9C109.156 37.3667 109.898 36.775 110.448 36.125C110.998 35.475 111.406 34.775 111.673 34.025C111.939 33.275 112.106 32.5 112.173 31.7C112.256 30.8833 112.298 30.0583 112.298 29.225V18.025ZM104.198 17.825L106.398 18.55C105.831 19.95 105.164 21.35 104.398 22.75C103.648 24.1333 102.831 25.4417 101.948 26.675C101.064 27.8917 100.148 28.9667 99.1976 29.9C99.1309 29.7 99.0226 29.45 98.8726 29.15C98.7226 28.85 98.5642 28.55 98.3976 28.25C98.2309 27.95 98.0726 27.7 97.9226 27.5C98.7559 26.7167 99.5559 25.8167 100.323 24.8C101.106 23.7667 101.831 22.6583 102.498 21.475C103.164 20.275 103.731 19.0583 104.198 17.825ZM101.648 24.55L103.898 22.3L103.923 22.325V41.2H101.648V24.55ZM127.548 19.625H143.373V21.875H127.548V19.625ZM127.548 25.425H143.373V27.625H127.548V25.425ZM127.448 31.35H143.448V33.6H127.448V31.35ZM126.198 19.625H128.548V28.65C128.548 29.6167 128.498 30.6583 128.398 31.775C128.314 32.8917 128.156 34.025 127.923 35.175C127.689 36.3083 127.339 37.4 126.873 38.45C126.423 39.4833 125.814 40.4167 125.048 41.25C124.931 41.0833 124.756 40.9 124.523 40.7C124.306 40.5 124.073 40.3083 123.823 40.125C123.589 39.9417 123.381 39.8 123.198 39.7C123.898 38.9167 124.448 38.075 124.848 37.175C125.248 36.2583 125.539 35.3167 125.723 34.35C125.923 33.3667 126.048 32.3917 126.098 31.425C126.164 30.4417 126.198 29.5083 126.198 28.625V19.625ZM142.473 19.625H144.823V38.125C144.823 38.8083 144.731 39.3333 144.548 39.7C144.364 40.0833 144.048 40.375 143.598 40.575C143.148 40.7583 142.539 40.8667 141.773 40.9C141.006 40.95 140.031 40.9667 138.848 40.95C138.814 40.65 138.714 40.275 138.548 39.825C138.398 39.375 138.239 38.9917 138.073 38.675C138.606 38.7083 139.131 38.7333 139.648 38.75C140.164 38.75 140.614 38.75 140.998 38.75C141.398 38.7333 141.673 38.725 141.823 38.725C142.073 38.725 142.239 38.6833 142.323 38.6C142.423 38.5 142.473 38.3333 142.473 38.1V19.625ZM133.998 20.5H136.373V40.85H133.998V20.5ZM149.923 39V20.575H152.823V36.525H160.623V39H149.923ZM163.863 39V20.575H166.763V39H163.863ZM171.578 39V20.575H174.553L180.653 31.4L182.578 35.275H182.703C182.619 34.3417 182.528 33.3417 182.428 32.275C182.344 31.2083 182.303 30.175 182.303 29.175V20.575H185.078V39H182.103L176.003 28.15L174.078 24.3H173.978C174.044 25.25 174.119 26.2417 174.203 27.275C174.286 28.3083 174.328 29.3333 174.328 30.35V39H171.578ZM189.937 39V20.575H200.812V23.025H192.837V28.15H199.587V30.6H192.837V36.525H201.087V39H189.937ZM210.627 24.75H219.527V26.75H210.627V24.75ZM203.977 38.525H226.052V40.55H203.977V38.525ZM204.952 18.825H212.802V20.775H204.952V18.825ZM212.152 18.825H212.577L212.977 18.725L214.552 19.525C214.102 20.7583 213.519 21.9083 212.802 22.975C212.086 24.0417 211.277 25.0167 210.377 25.9C209.494 26.7833 208.552 27.575 207.552 28.275C206.552 28.975 205.536 29.575 204.502 30.075C204.402 29.8917 204.269 29.6917 204.102 29.475C203.936 29.2583 203.761 29.0417 203.577 28.825C203.394 28.6083 203.219 28.4333 203.052 28.3C203.986 27.9 204.911 27.3917 205.827 26.775C206.744 26.1417 207.611 25.4333 208.427 24.65C209.261 23.85 209.994 23 210.627 22.1C211.277 21.1833 211.786 20.2417 212.152 19.275V18.825ZM217.027 17.975C217.644 19.3917 218.444 20.75 219.427 22.05C220.427 23.3333 221.569 24.4833 222.852 25.5C224.136 26.5 225.511 27.2917 226.977 27.875C226.811 28.025 226.619 28.2167 226.402 28.45C226.202 28.6833 226.011 28.925 225.827 29.175C225.644 29.425 225.486 29.6583 225.352 29.875C223.819 29.1583 222.394 28.2417 221.077 27.125C219.761 25.9917 218.586 24.7083 217.552 23.275C216.519 21.825 215.652 20.275 214.952 18.625L217.027 17.975ZM204.827 22.9L206.102 21.6C206.519 21.8167 206.944 22.075 207.377 22.375C207.811 22.675 208.219 22.9833 208.602 23.3C208.986 23.6167 209.286 23.9167 209.502 24.2L208.152 25.625C207.936 25.3583 207.644 25.0667 207.277 24.75C206.911 24.4167 206.511 24.0917 206.077 23.775C205.644 23.4417 205.227 23.15 204.827 22.9ZM221.527 18.125L223.327 19.375C222.644 19.975 221.911 20.575 221.127 21.175C220.361 21.775 219.652 22.2833 219.002 22.7L217.577 21.6C217.994 21.2833 218.444 20.925 218.927 20.525C219.411 20.125 219.877 19.7167 220.327 19.3C220.794 18.8667 221.194 18.475 221.527 18.125ZM224.327 21.05L226.077 22.275C225.411 22.8917 224.669 23.5167 223.852 24.15C223.036 24.7667 222.286 25.2833 221.602 25.7L220.152 24.6C220.602 24.2833 221.086 23.925 221.602 23.525C222.119 23.125 222.619 22.7083 223.102 22.275C223.586 21.8417 223.994 21.4333 224.327 21.05ZM209.952 30.425V33.15H219.652V30.425H209.952ZM207.577 28.525H222.177V35.075H207.577V28.525ZM209.327 35.775L211.452 35.075C211.752 35.5417 212.036 36.05 212.302 36.6C212.569 37.15 212.761 37.625 212.877 38.025L210.627 38.8C210.544 38.4 210.377 37.9167 210.127 37.35C209.877 36.7667 209.611 36.2417 209.327 35.775ZM218.452 35.125L220.752 35.675C220.419 36.3417 220.077 37.0083 219.727 37.675C219.394 38.325 219.069 38.8833 218.752 39.35L216.702 38.825C216.919 38.4917 217.136 38.1083 217.352 37.675C217.569 37.2417 217.777 36.8 217.977 36.35C218.177 35.9 218.336 35.4917 218.452 35.125ZM233.202 19.35H240.302V21.75H233.202V19.35ZM239.127 19.35H241.552C241.552 20.1167 241.577 21.0083 241.627 22.025C241.694 23.025 241.836 24.1 242.052 25.25C242.269 26.3833 242.602 27.5583 243.052 28.775C243.502 29.9917 244.094 31.2 244.827 32.4C245.577 33.6 246.519 34.7667 247.652 35.9C248.786 37.0167 250.152 38.05 251.752 39C251.586 39.1333 251.377 39.3167 251.127 39.55C250.877 39.8 250.636 40.0583 250.402 40.325C250.169 40.5917 249.986 40.825 249.852 41.025C248.219 40.025 246.819 38.925 245.652 37.725C244.486 36.5083 243.502 35.225 242.702 33.875C241.919 32.525 241.286 31.1667 240.802 29.8C240.319 28.4333 239.952 27.1083 239.702 25.825C239.469 24.5417 239.311 23.35 239.227 22.25C239.161 21.1333 239.127 20.1667 239.127 19.35ZM238.252 24.525L240.927 25C240.344 27.5167 239.577 29.7917 238.627 31.825C237.677 33.8417 236.527 35.6167 235.177 37.15C233.844 38.6833 232.269 39.9917 230.452 41.075C230.319 40.8917 230.119 40.6833 229.852 40.45C229.586 40.2167 229.311 39.975 229.027 39.725C228.761 39.475 228.519 39.2833 228.302 39.15C231.019 37.75 233.169 35.825 234.752 33.375C236.352 30.9083 237.519 27.9583 238.252 24.525Z" fill="white"/>
</svg>
