<svg width="21" height="22" viewBox="0 0 21 22" fill="none" xmlns="http://www.w3.org/2000/svg">
<path d="M20.5114 4H17.2987C17.0831 4 16.899 4.16713 16.8657 4.39624L15.7195 12.1388H6.52648L5.93406 7.06849C6.17593 7.06849 6.37224 6.85816 6.37224 6.59901C6.37224 6.33986 6.17593 6.12954 5.93406 6.12954H5.43804C5.31185 6.12954 5.19266 6.18775 5.11028 6.28916C5.02791 6.39057 4.98759 6.5239 5.00337 6.65723L5.70445 12.6665C5.7325 12.9012 5.91828 13.0778 6.13913 13.0778H15.5792L15.1709 15.8327H6.48967C6.24779 15.8327 6.05149 16.043 6.05149 16.3021C6.05149 16.5613 6.24779 16.7716 6.48967 16.7716H15.5459C15.7615 16.7716 15.9456 16.6045 15.9789 16.3754L16.5152 12.7567C16.5292 12.7097 16.5397 12.6609 16.5397 12.6102C16.5397 12.6064 16.5397 12.6045 16.5397 12.6008L17.6737 4.94271H19.7254C19.9673 4.94271 20.1636 4.73238 20.1636 4.47323C20.1636 4.21408 19.9673 4.00376 19.7254 4.00376L20.5114 4Z" fill="black"/>
<path d="M8.39673 17.4961C7.33284 17.4961 6.46875 18.4238 6.46875 19.5618C6.46875 20.6998 7.33284 21.6275 8.39673 21.6275C9.46063 21.6275 10.3247 20.7017 10.3247 19.5618C10.3247 18.4219 9.46063 17.4961 8.39673 17.4961ZM8.39673 20.6885C7.81659 20.6885 7.34511 20.1834 7.34511 19.5618C7.34511 18.9402 7.81659 18.435 8.39673 18.435C8.97688 18.435 9.44836 18.9402 9.44836 19.5618C9.44836 20.1834 8.97688 20.6885 8.39673 20.6885Z" fill="black"/>
<path d="M13.5999 17.4961C12.536 17.4961 11.6719 18.4238 11.6719 19.5618C11.6719 20.6998 12.536 21.6275 13.5999 21.6275C14.6638 21.6275 15.5278 20.7017 15.5278 19.5618C15.5278 18.4219 14.6638 17.4961 13.5999 17.4961ZM13.5999 20.6885C13.0197 20.6885 12.5482 20.1834 12.5482 19.5618C12.5482 18.9402 13.0197 18.435 13.5999 18.435C14.18 18.435 14.6515 18.9402 14.6515 19.5618C14.6515 20.1834 14.18 20.6885 13.5999 20.6885Z" fill="black"/>
<path d="M2.353 4.57V2.841H0.598V1.853H2.353V0.124H3.393V1.853H5.148V2.841H3.393V4.57H2.353Z" fill="black"/>
</svg>
