<svg width="4" height="4" viewBox="0 0 4 4" fill="none" xmlns="http://www.w3.org/2000/svg">
<path d="M0.765668 3.6375L1.17329 2.3125L0.19043 1.59167H1.39424L1.82472 0.170837L2.26281 1.59167H3.459L2.47614 2.3125L2.89138 3.6375L1.82472 2.79167L0.765668 3.6375Z" fill="#FFE200"/>
<path d="M0.620952 3.76667L1.06667 2.325L0 1.55H1.29905L1.77524 0L2.25143 1.55H3.55048L2.48381 2.325L2.9219 3.76667L1.77524 2.84167L0.620952 3.76667ZM1.04 3.1375L1.77524 2.52917L2.51048 3.1375L2.20952 2.22917L2.88 1.75417H2.07619L1.77524 0.75L1.47048 1.75417H0.662857L1.34095 2.22917L1.04 3.1375Z" fill="#808080"/>
</svg>
