<svg xmlns="http://www.w3.org/2000/svg" width="90" height="80" viewBox="0 0 90 80" fill="none">
  <path d="M68.0279 11.6717C60.5012 4.14501 50.494 0 39.8498 0C29.2056 0 19.1984 4.14501 11.6717 11.6717C4.14501 19.1984 0 29.2056 0 39.8498C0 47.0204 1.92867 54.0536 5.57786 60.1892C9.04797 66.0244 13.9835 70.912 19.8504 74.3235C25.8989 77.8406 32.8146 79.6996 39.8498 79.6996C46.8849 79.6996 53.8007 77.8406 59.8491 74.3235C65.7163 70.912 70.6516 66.0244 74.1217 60.1892C77.7709 54.0536 79.6996 47.0204 79.6996 39.8498C79.6996 29.2056 75.5546 19.1984 68.0279 11.6717ZM39.8498 3.17528C60.0722 3.17528 76.5243 19.6274 76.5243 39.8498C76.5243 45.5712 75.1904 51.1973 72.6479 56.2712C69.311 51.4469 64.9294 47.3862 59.849 44.432C56.193 42.3062 52.2199 40.7873 48.0954 39.9174C52.6676 37.1273 55.7262 32.0916 55.7262 26.3548C55.7262 17.6006 48.604 10.4784 39.8498 10.4784C31.0955 10.4784 23.9734 17.6006 23.9734 26.3548C23.9734 32.0916 27.032 37.1273 31.6041 39.9173C27.4795 40.7871 23.5065 42.3062 19.8504 44.4319C14.77 47.386 10.3884 51.4467 7.05151 56.2711C4.50922 51.1973 3.17528 45.5712 3.17528 39.8498C3.17528 19.6274 19.6274 3.17528 39.8498 3.17528ZM39.8498 39.056C32.8464 39.056 27.1487 33.3582 27.1487 26.3548C27.1487 19.3514 32.8464 13.6537 39.8498 13.6537C46.8532 13.6537 52.5509 19.3514 52.5509 26.3548C52.5509 33.3582 46.8532 39.056 39.8498 39.056ZM39.8498 76.5243C27.2987 76.5243 15.4917 69.9786 8.80474 59.3789C15.4916 48.7782 27.2981 42.2313 39.8498 42.2313C52.4015 42.2313 64.208 48.7782 70.8948 59.3789C64.2079 69.9786 52.4009 76.5243 39.8498 76.5243Z" fill="black"/>
  <path d="M16.6798 54.5831C15.4182 55.7993 14.2416 57.1235 13.1827 58.5195C12.6529 59.2181 12.7894 60.214 13.4881 60.744C13.775 60.9617 14.1121 61.0668 14.4464 61.0668C14.926 61.0668 15.4003 60.8502 15.7126 60.4385C16.6726 59.1729 17.7395 57.972 18.8836 56.8695C19.5148 56.261 19.5334 55.2558 18.9248 54.6246C18.3163 53.9932 17.3113 53.9748 16.6798 54.5831Z" fill="black"/>
  <path d="M33.7914 18.5963C31.386 20.4768 30.0063 23.3047 30.0063 26.3549C30.0063 27.2317 30.7171 27.9425 31.594 27.9425C32.4708 27.9425 33.1816 27.2317 33.1816 26.3549C33.1816 24.2886 34.1167 22.3725 35.7471 21.0979C36.4379 20.5578 36.5601 19.5599 36.02 18.8692C35.4799 18.1784 34.4821 18.0561 33.7914 18.5963Z" fill="black"/>
  <path d="M44.3949 17.6217C43.0016 16.8954 41.43 16.5115 39.8498 16.5115C38.973 16.5115 38.2622 17.2223 38.2622 18.0991C38.2622 18.976 38.973 19.6868 39.8498 19.6868C40.9363 19.6868 41.9717 19.9394 42.9272 20.4374C43.1617 20.5596 43.4125 20.6174 43.6597 20.6174C44.2325 20.6174 44.7858 20.3066 45.0689 19.7634C45.4742 18.9858 45.1724 18.027 44.3949 17.6217Z" fill="black"/>
  <circle cx="74.9366" cy="23.0209" r="14.13" fill="black"/>
  <path fill-rule="evenodd" clip-rule="evenodd" d="M85.0876 14.7678C86.0506 15.7268 86.0538 17.285 85.0947 18.2479L71.9706 31.4254C71.5088 31.889 70.8814 32.1496 70.227 32.1496C69.5726 32.1496 68.9452 31.889 68.4834 31.4254L62.7146 25.6331C61.7555 24.6701 61.7586 23.112 62.7216 22.1529C63.6846 21.1939 65.2427 21.197 66.2018 22.16L70.227 26.2016L81.6075 14.7748C82.5666 13.8119 84.1247 13.8087 85.0876 14.7678Z" fill="white"/>
</svg>
