<svg class="svg-icon" style="width: 1em; height: 1em;vertical-align: middle;fill: currentColor;overflow: hidden;" viewBox="0 0 1024 1024" version="1.1" xmlns="http://www.w3.org/2000/svg">
<style>.icon{fill:#B8BEC4;fill-rule:evenodd;}</style>
  <path class="icon" d="M11.203765 440.259765a30.117647 30.117647 0 1 1 55.657411 23.009882 83.727059 83.727059 0 0 0-6.625882 32.225882C60.235294 598.256941 260.487529 692.705882 512 692.705882c251.512471 0 451.764706-94.448941 451.764706-197.210353 0-10.721882-2.168471-21.383529-6.53553-32.015058a30.117647 30.117647 0 0 1 55.717648-22.859295c7.318588 17.769412 11.053176 36.201412 11.053176 54.874353C1024 643.855059 792.756706 752.941176 512 752.941176S0 643.855059 0 495.495529c0-18.823529 3.794824-37.345882 11.203765-55.235764z m0 271.058823a30.117647 30.117647 0 1 1 55.657411 23.009883 83.727059 83.727059 0 0 0-6.625882 32.225882C60.235294 869.315765 260.487529 963.764706 512 963.764706c251.512471 0 451.764706-94.448941 451.764706-197.210353 0-10.721882-2.168471-21.383529-6.53553-32.015059a30.117647 30.117647 0 0 1 55.717648-22.859294c7.318588 17.769412 11.053176 36.201412 11.053176 54.874353C1024 914.913882 792.756706 1024 512 1024S0 914.913882 0 766.554353c0-18.823529 3.794824-37.345882 11.203765-55.235765zM512 512C231.243294 512 0 403.606588 0 256S231.243294 0 512 0s512 108.393412 512 256S792.756706 512 512 512z m0-60.235294c251.482353 0 451.764706-93.876706 451.764706-195.764706S763.482353 60.235294 512 60.235294 60.235294 154.112 60.235294 256 260.517647 451.764706 512 451.764706z"  /></svg>