<?xml version="1.0" encoding="utf-8"?>
<!-- Generator: Adobe Illustrator 15.0.0, SVG Export Plug-In . SVG Version: 6.00 Build 0)  -->
<!DOCTYPE svg PUBLIC "-//W3C//DTD SVG 1.1//EN" "http://www.w3.org/Graphics/SVG/1.1/DTD/svg11.dtd">
<svg version="1.1" id="レイヤー_1" xmlns="http://www.w3.org/2000/svg" xmlns:xlink="http://www.w3.org/1999/xlink" x="0px"
	 y="0px" width="22px" height="19px" viewBox="0 0 22 19" enable-background="new 0 0 22 19" xml:space="preserve">
<path fill="#FFFFFF" d="M19.824,5.959l1.693-1.693l-1.533-1.532l-1.851,1.849C16.998,3.901,15.672,3.5,14.25,3.5
	c-4.181,0-7.583,3.402-7.583,7.584c0,4.182,3.403,7.582,7.583,7.582c4.18,0,7.584-3.4,7.584-7.582
	C21.832,9.183,21.115,7.354,19.824,5.959z M14.25,16.5c-2.987,0-5.417-2.43-5.417-5.416c0-2.987,2.43-5.417,5.417-5.417
	c2.986,0,5.416,2.43,5.416,5.417C19.666,14.07,17.236,16.5,14.25,16.5z"/>
<path fill="#FFFFFF" d="M13.166,7.833h2.168v4.333h-2.168V7.833z M12.084,0.25h4.332v2.167h-4.332V0.25z M1.25,5.667h4.333v2.167
	H1.25V5.667z M1.25,14.334h4.333V16.5H1.25V14.334z M0.167,10H4.49v2.166H0.167V10z"/>
</svg>
