<?xml version="1.0" standalone="no"?>
<!DOCTYPE svg PUBLIC "-//W3C//DTD SVG 20010904//EN"
 "http://www.w3.org/TR/2001/REC-SVG-20010904/DTD/svg10.dtd">
<svg version="1.0" xmlns="http://www.w3.org/2000/svg"
 width="138.000000pt" height="138.000000pt" viewBox="0 0 138.000000 138.000000"
 preserveAspectRatio="xMidYMid meet">

<g transform="translate(0.000000,138.000000) scale(0.100000,-0.100000)"
fill="#000000" stroke="none">
<path d="M534 1366 c-138 -32 -294 -128 -379 -234 -111 -138 -161 -293 -153
-471 13 -260 154 -477 383 -586 147 -70 277 -89 421 -62 271 51 480 244 551
507 26 99 24 265 -6 360 -69 226 -229 392 -446 466 -98 33 -271 42 -371 20z
m291 -101 c180 -47 335 -176 404 -338 25 -57 51 -181 51 -239 -1 -207 -145
-434 -331 -523 -201 -95 -414 -80 -592 41 -90 62 -150 131 -197 229 -45 95
-60 159 -60 262 0 160 55 289 175 408 85 85 152 125 258 156 78 22 214 24 292
4z"/>
<path d="M480 675 l0 -355 55 0 55 0 0 149 0 149 148 4 c133 4 152 6 192 28
61 34 90 91 90 180 0 89 -29 146 -89 177 -42 22 -55 23 -248 23 l-203 0 0
-355z m396 222 c35 -41 33 -99 -5 -138 -29 -29 -30 -29 -155 -29 l-126 0 0
101 0 101 131 -4 c129 -3 131 -3 155 -31z"/>
</g>
</svg>
