<?xml version="1.0" standalone="no"?>
<!DOCTYPE svg PUBLIC "-//W3C//DTD SVG 20010904//EN"
 "http://www.w3.org/TR/2001/REC-SVG-20010904/DTD/svg10.dtd">
<svg version="1.0" xmlns="http://www.w3.org/2000/svg"
 width="20.000000pt" height="20.000000pt" viewBox="0 0 20.000000 20.000000"
 preserveAspectRatio="xMidYMid meet">

<g transform="translate(0.000000,20.000000) scale(0.100000,-0.100000)"
fill="#000000" stroke="none">
<path d="M45 155 c-50 -49 -15 -135 55 -135 41 0 80 39 80 80 0 41 -39 80 -80
80 -19 0 -40 -9 -55 -25z m100 -10 c25 -24 30 -41 19 -68 -4 -12 -11 -13 -35
-4 -21 8 -37 8 -58 0 -31 -11 -41 -3 -41 33 0 22 46 64 70 64 12 0 32 -11 45
-25z m-15 -85 c13 -9 13 -11 0 -20 -8 -5 -22 -10 -30 -10 -8 0 -22 5 -30 10
-13 9 -13 11 0 20 8 5 22 10 30 10 8 0 22 -5 30 -10z"/>
<path d="M78 138 c-8 -21 2 -38 22 -38 19 0 30 17 23 38 -3 6 -13 12 -23 12
-10 0 -20 -6 -22 -12z m24 -20 c-7 -7 -12 -8 -12 -2 0 14 12 26 19 19 2 -3 -1
-11 -7 -17z"/>
</g>
</svg>
