<svg width="33" height="31" viewBox="0 0 33 31" fill="none" xmlns="http://www.w3.org/2000/svg">
<path d="M4.8125 15.5C4.8125 13.6233 5.19311 11.8344 5.88114 10.2095C6.56918 8.58455 7.56463 7.11772 8.7943 5.88805C10.024 4.65838 11.4879 3.66293 13.1157 2.9749C14.7436 2.28686 16.5295 1.90625 18.4062 1.90625C20.283 1.90625 22.0718 2.28686 23.6968 2.9749C25.3217 3.66293 26.7885 4.65838 28.0182 5.88805C29.2479 7.11772 30.2433 8.58162 30.9314 10.2095C31.6194 11.8373 32 13.6233 32 15.5C32 17.3767 31.6194 19.1656 30.9314 20.7905C30.2433 22.4155 29.2479 23.8823 28.0182 25.1119C26.7885 26.3416 25.3246 27.3371 23.6968 28.0251C22.0689 28.7131 20.283 29.0937 18.4062 29.0937C16.5295 29.0937 14.7407 28.7131 13.1157 28.0251C11.4908 27.3371 10.024 26.3416 8.7943 25.1119C7.56463 23.8823 6.56918 22.4184 5.88114 20.7905" stroke="black" stroke-width="2" stroke-miterlimit="10" stroke-linecap="round"/>
<path d="M1.5 13L4.78277 15.8125L8.0625 13" stroke="black" stroke-width="2" stroke-miterlimit="10" stroke-linecap="round"/>
</svg>
