<svg width="21" height="19" viewBox="0 0 21 19" fill="none" xmlns="http://www.w3.org/2000/svg">
<path fill-rule="evenodd" clip-rule="evenodd" d="M10.5 0C16.299 0 21 3.63898 21 8.12789C21 9.69584 20.426 11.1598 19.4324 12.4014C19.3832 12.4721 19.319 12.5502 19.238 12.6364L19.2319 12.6429C18.8925 13.0354 18.5102 13.404 18.09 13.7442C15.1863 16.3386 10.407 19.4275 9.77621 18.9509C9.22785 18.5367 10.6794 16.5106 9.00473 16.1734C8.88791 16.1604 8.77138 16.1465 8.65585 16.1307L8.65365 16.1305C3.73513 15.4551 3.66277e-09 12.1291 3.66277e-09 8.12789C-0.00015152 3.63898 4.70094 0 10.5 0Z" fill="white"/>
<path d="M11 13H9.83097L7.06131 8.19734V13H6V3H7.06131V7.49409L9.58466 3H10.7386V3.05719L8.01943 7.82026L11 13Z" fill="#03BA03"/>
<path d="M12 7.99403H13.9422V8.76447H12.8888V12.2176H15.1231V3.78364H12.8888V6.0428H12V3.74216C12 3.5241 12.0684 3.34563 12.2051 3.20738C12.3418 3.06913 12.5177 3 12.734 3H15.266C15.4817 3 15.6582 3.06913 15.7949 3.20738C15.9316 3.34563 16 3.52347 16 3.74216V12.2578C16 12.4759 15.9316 12.6544 15.7949 12.7926C15.6582 12.9309 15.4823 13 15.266 13H12.734C12.5183 13 12.3418 12.9309 12.2051 12.7926C12.0684 12.6544 12 12.4765 12 12.2578V7.99403Z" fill="#03BA03"/>
</svg>
