<svg width="23" height="23" viewBox="0 0 23 23" fill="none" xmlns="http://www.w3.org/2000/svg">
<path d="M13.6562 7.1875H18.6875V8.625H13.6562V7.1875Z" fill="#39393A"/>
<path d="M13.6562 10.7812H18.6875V12.2188H13.6562V10.7812Z" fill="#39393A"/>
<path d="M13.6562 14.375H18.6875V15.8125H13.6562V14.375Z" fill="#39393A"/>
<path d="M4.3125 7.1875H9.34375V8.625H4.3125V7.1875Z" fill="#39393A"/>
<path d="M4.3125 10.7812H9.34375V12.2188H4.3125V10.7812Z" fill="#39393A"/>
<path d="M4.3125 14.375H9.34375V15.8125H4.3125V14.375Z" fill="#39393A"/>
<path d="M20.125 3.59375H2.875C2.49387 3.59413 2.12846 3.7457 1.85895 4.0152C1.58945 4.28471 1.43788 4.65012 1.4375 5.03125V17.9688C1.43788 18.3499 1.58945 18.7153 1.85895 18.9848C2.12846 19.2543 2.49387 19.4059 2.875 19.4062H20.125C20.5061 19.4059 20.8715 19.2543 21.141 18.9848C21.4105 18.7153 21.5621 18.3499 21.5625 17.9688V5.03125C21.5621 4.65012 21.4105 4.28471 21.141 4.0152C20.8715 3.7457 20.5061 3.59413 20.125 3.59375ZM2.875 5.03125H10.7812V17.9688H2.875V5.03125ZM12.2188 17.9688V5.03125H20.125V17.9688H12.2188Z" fill="#39393A"/>
</svg>
