<svg width="18" height="14" viewBox="0 0 18 14" fill="none" xmlns="http://www.w3.org/2000/svg">
<path d="M2.76923 0C1.24823 0 0 1.2614 0 2.8V11.2C0 12.7379 1.24823 14 2.76923 14H4.15385C4.33746 14 4.51355 13.9263 4.64338 13.795C4.77321 13.6637 4.84615 13.4857 4.84615 13.3V12.6H5.53846V13.3C5.53846 13.4857 5.6114 13.6637 5.74123 13.795C5.87107 13.9263 6.04716 14 6.23077 14H11.7692C11.9528 14 12.1289 13.9263 12.2588 13.795C12.3886 13.6637 12.4615 13.4857 12.4615 13.3V12.6H13.1538V13.3C13.1538 13.4857 13.2268 13.6637 13.3566 13.795C13.4865 13.9263 13.6625 14 13.8462 14H15.2308C16.7518 14 18 12.7379 18 11.2V2.8C18 1.2614 16.7518 0 15.2308 0H2.76923ZM2.76923 1.4H15.2308C16.0027 1.4 16.6154 2.0188 16.6154 2.8V11.2C16.6154 11.9805 16.0027 12.6 15.2308 12.6H14.5385V11.9C14.5385 11.7143 14.4655 11.5363 14.3357 11.405C14.2059 11.2737 14.0298 11.2 13.8462 11.2H11.7692C11.5856 11.2 11.4095 11.2737 11.2797 11.405C11.1499 11.5363 11.0769 11.7143 11.0769 11.9V12.6H6.92308V11.9C6.92308 11.7143 6.85014 11.5363 6.7203 11.405C6.59047 11.2737 6.41438 11.2 6.23077 11.2H4.15385C3.97023 11.2 3.79414 11.2737 3.66431 11.405C3.53448 11.5363 3.46154 11.7143 3.46154 11.9V12.6H2.76923C1.99731 12.6 1.38462 11.9805 1.38462 11.2V2.8C1.38462 2.0188 1.99731 1.4 2.76923 1.4ZM5.53846 2.8441C4.74923 2.8441 4.17531 3.409 4.17531 4.4401C4.17531 5.1142 4.45915 5.5713 4.86762 5.9941C5.02685 6.4162 4.73262 6.5618 4.67308 6.5842C3.84785 6.8859 2.81215 7.3318 2.81215 7.875V8.1592C2.81215 8.8998 4.22515 9.0559 5.53846 9.0559C6.85385 9.0559 8.26477 8.8998 8.26477 8.1599V7.875C8.26477 7.315 7.22631 6.874 6.36092 6.5842C6.32008 6.5709 6.07431 6.4722 6.23077 5.9934C6.63785 5.5706 6.88015 5.1114 6.88015 4.4408C6.88015 3.4083 6.327 2.8441 5.53846 2.8441ZM12.8077 2.8651C12.3868 2.8651 11.9887 2.9267 11.6176 3.0842C11.2535 3.2358 10.9226 3.45886 10.6442 3.74049C10.3658 4.02211 10.1453 4.35673 9.99554 4.725C9.83838 5.0995 9.77885 5.516 9.77885 5.95C9.77885 6.4064 9.84461 6.8152 9.99554 7.1967C10.1451 7.5796 10.3535 7.9072 10.6228 8.1809C10.8886 8.4525 11.2057 8.666 11.5747 8.8158C11.9611 8.96601 12.3723 9.04014 12.7862 9.0342C13.0424 9.0342 13.2708 9.0363 13.4785 9.0125C13.6848 8.9894 13.905 8.9523 14.1272 8.9033V8.1375C13.9244 8.197 13.698 8.2551 13.4571 8.2908C13.2162 8.3258 12.9912 8.3342 12.7855 8.3342C12.4948 8.3342 12.2082 8.2838 11.9423 8.1809C11.682 8.07907 11.4461 7.92255 11.25 7.7217C11.0331 7.51305 10.8633 7.25946 10.7522 6.9783C10.6332 6.6773 10.5792 6.3343 10.5792 5.95C10.5792 5.5895 10.6484 5.2633 10.7737 4.9658C10.9011 4.6683 11.0645 4.403 11.2722 4.2C11.4888 3.99 11.7291 3.8465 11.9852 3.7408C12.2428 3.6337 12.5183 3.5658 12.8077 3.5658C13.1123 3.5658 13.3885 3.6232 13.6516 3.7191C13.9147 3.8143 14.1487 3.9571 14.3439 4.1559C14.5371 4.3519 14.6908 4.5885 14.7981 4.8783C14.9061 5.1688 14.9497 5.5188 14.9497 5.9066C14.9497 6.1257 14.9296 6.328 14.8846 6.5408C14.8474 6.73602 14.7893 6.9266 14.7115 7.1092H14.1708V4.2434H13.3477V4.4625C13.2642 4.3832 13.1694 4.3169 13.0666 4.2658C12.9383 4.2041 12.7974 4.17411 12.6554 4.1783C12.4602 4.1783 12.2732 4.2217 12.0932 4.3092C11.9132 4.39305 11.7514 4.51199 11.6169 4.6592C11.4785 4.8223 11.376 5.0267 11.2929 5.25C11.2098 5.474 11.1628 5.7197 11.1628 5.9941C11.1628 6.2601 11.2029 6.5107 11.2708 6.7375C11.3379 6.965 11.4148 7.1603 11.5304 7.3066C11.6481 7.4571 11.8018 7.5544 11.9631 7.6342C12.1244 7.714 12.2961 7.7658 12.4823 7.7658C12.609 7.7658 12.7128 7.7581 12.7855 7.7441C12.8596 7.7287 12.9378 7.7091 13.023 7.6783C13.0992 7.6531 13.1545 7.6286 13.2182 7.5908C13.2792 7.553 13.3491 7.5019 13.4128 7.4592L13.4564 7.7H15.2515C15.4162 7.45187 15.5406 7.17868 15.6198 6.8908C15.7168 6.5429 15.7493 6.2076 15.7493 5.8842C15.7493 5.4271 15.6808 5.0064 15.5326 4.6375C15.3898 4.28358 15.1763 3.96328 14.9054 3.6967C14.6405 3.42993 14.324 3.2214 13.9756 3.0842C13.6036 2.93615 13.2068 2.862 12.807 2.8658L12.8077 2.8651ZM12.7641 4.8783C12.8714 4.8783 12.9822 4.8783 13.0673 4.9C13.1518 4.9217 13.2265 4.9602 13.3269 5.0092V6.8033C13.2428 6.88186 13.1482 6.94807 13.0458 7C12.9464 7.05569 12.8348 7.08574 12.7212 7.0875C12.4788 7.0875 12.3078 6.9839 12.2019 6.8033C12.096 6.6227 12.0288 6.3637 12.0288 5.9941C12.0288 5.6588 12.096 5.3872 12.2234 5.1842C12.2777 5.08836 12.3568 5.00927 12.4521 4.95538C12.5475 4.9015 12.6556 4.87485 12.7648 4.8783H12.7641Z" fill="#39393A"/>
</svg>
