<svg width="16" height="22" viewBox="0 0 16 22" fill="none" xmlns="http://www.w3.org/2000/svg">
<path d="M14.527 8.96043L8.66772 0.358431C8.5146 0.133692 8.26561 0 8 0C7.73439 0 7.4854 0.133692 7.33228 0.358431L1.47303 8.96043C0.587365 10.2606 0.0811547 11.7653 0.00908791 13.3116C-0.0585666 14.7637 0.252524 16.2242 0.908642 17.535C1.56481 18.8459 2.53791 19.9509 3.72279 20.7307C4.98453 21.5611 6.46356 22 8 22C9.53644 22 11.0155 21.5611 12.2772 20.7307C13.4621 19.9509 14.4352 18.8459 15.0914 17.535C15.7475 16.2242 16.0586 14.7637 15.9909 13.3116C15.9188 11.7652 15.4126 10.2606 14.527 8.96043ZM2.35946 16.7562C1.24626 14.5324 1.41414 11.9828 2.80836 9.93593L8 2.31406L10.1531 5.47501L7.43262 8.32627C7.19986 8.54852 5.3521 10.3872 5.3521 12.7274C5.3521 14.3674 6.25967 15.7607 6.88321 16.5247L4.47652 19.2243C3.60306 18.6218 2.87455 17.7852 2.35946 16.7562ZM8.00005 15.267C7.55017 14.6806 6.98627 13.7428 6.98627 12.7274C6.98627 11.7118 7.55039 10.7739 7.99995 10.1878C8.44983 10.7742 9.01373 11.712 9.01373 12.7274C9.01373 13.743 8.44961 14.6809 8.00005 15.267ZM13.6405 16.7562C12.5274 18.98 10.4188 20.3077 8 20.3077C7.30815 20.3077 6.64179 20.1986 6.01672 19.9915L8.57795 17.1184C8.85227 16.8539 10.6479 15.0341 10.6479 12.7274C10.6479 11.1024 9.75673 9.71943 9.13384 8.95101L11.11 6.87991L13.1916 9.93593C14.5859 11.9828 14.7537 14.5324 13.6405 16.7562Z" fill="#39393A"/>
</svg>
