<svg width="20" height="19" viewBox="0 0 20 19" fill="none" xmlns="http://www.w3.org/2000/svg">
<path d="M19.9665 7.18359C19.9034 7.00195 19.7887 6.84242 19.6362 6.72432C19.4838 6.60623 19.3002 6.53465 19.1076 6.51827L13.4254 5.69406L10.8788 0.56017C10.797 0.39228 10.6694 0.250689 10.5104 0.151617C10.3515 0.0525454 10.1676 0 9.98005 0C9.79244 0 9.60864 0.0525454 9.44968 0.151617C9.29072 0.250689 9.16304 0.39228 9.08127 0.56017L6.53474 5.68413L0.852469 6.51827C0.667643 6.54439 0.493882 6.6215 0.350902 6.74086C0.207923 6.86022 0.101452 7.01703 0.0435705 7.19352C-0.00941244 7.36598 -0.014167 7.54953 0.0298169 7.72448C0.0738009 7.89942 0.164863 8.05916 0.293231 8.18653L4.41762 12.1586L3.41898 17.7989C3.37866 17.986 3.39356 18.1807 3.4619 18.3596C3.53024 18.5385 3.6491 18.6939 3.80418 18.8072C3.95926 18.9205 4.14396 18.9869 4.33606 18.9982C4.52815 19.0096 4.71947 18.9656 4.88698 18.8714L9.98005 16.22L15.0731 18.8714C15.2133 18.95 15.3716 18.9911 15.5325 18.9906C15.744 18.9913 15.9503 18.9252 16.1217 18.8019C16.2766 18.6915 16.3966 18.5394 16.4673 18.3634C16.5381 18.1875 16.5568 17.995 16.5211 17.8089L15.5225 12.1685L19.6469 8.19646C19.7911 8.075 19.8976 7.91535 19.9542 7.73605C20.0108 7.55676 20.015 7.36519 19.9665 7.18359ZM13.8248 11.1557C13.7092 11.2673 13.6225 11.405 13.5721 11.5572C13.5217 11.7094 13.509 11.8714 13.5352 12.0295L14.2542 16.2002L10.4993 14.2141C10.3534 14.1424 10.1928 14.105 10.03 14.105C9.86717 14.105 9.70655 14.1424 9.56062 14.2141L5.80573 16.2002L6.52475 12.0295C6.55095 11.8714 6.5383 11.7094 6.48787 11.5572C6.43744 11.405 6.35073 11.2673 6.23514 11.1557L3.23922 8.17661L7.4435 7.57087C7.60528 7.54849 7.75907 7.487 7.89139 7.39178C8.02371 7.29656 8.13052 7.17052 8.20247 7.02471L9.98005 3.24131L11.8575 7.03464C11.9294 7.18045 12.0362 7.30649 12.1686 7.40171C12.3009 7.49693 12.4547 7.55842 12.6165 7.58079L16.8207 8.18653L13.8248 11.1557Z" fill="#39393A"/>
</svg>
