<svg width="39" height="49" viewBox="0 0 39 49" fill="none" xmlns="http://www.w3.org/2000/svg">
<g clip-path="url(#clip0_86_14)">
<path d="M12.4374 49H1.15086C0.516877 49 0 48.4388 0 47.7405V27.8807C0 27.1869 0.512839 26.6212 1.15086 26.6212H12.4374C13.0713 26.6212 13.5882 27.1825 13.5882 27.8807V47.7405C13.5882 48.4343 13.0713 49 12.4374 49ZM2.30172 46.4811H11.2865V29.1402H2.30172V46.4811Z" fill="black"/>
<path d="M10.5443 29.1447C9.9103 29.1447 9.39342 28.579 9.39342 27.8852V14.1415H4.19234V27.8852C4.19234 28.579 3.6795 29.1447 3.04148 29.1447C2.40346 29.1447 1.89062 28.579 1.89062 27.8852V12.882C1.89062 12.1882 2.4075 11.6226 3.04148 11.6226H10.5443C11.1783 11.6226 11.6951 12.1838 11.6951 12.882V27.8852C11.6951 28.579 11.1823 29.1447 10.5443 29.1447Z" fill="black"/>
<path d="M9.67912 14.1415C9.04514 14.1415 8.52826 13.5758 8.52826 12.882V4.37506L5.05953 6.55814V12.882C5.05953 13.5758 4.54669 14.1415 3.90867 14.1415C3.27065 14.1415 2.75781 13.5758 2.75781 12.882V5.83339C2.75781 5.38263 2.97991 4.96723 3.33526 4.74185L9.10571 1.10928C9.46106 0.883897 9.90122 0.888316 10.2566 1.10928C10.6119 1.33465 10.83 1.75006 10.83 2.20082V12.882C10.83 13.5758 10.3171 14.1415 9.67912 14.1415Z" fill="black"/>
<path d="M37.8503 49H19.2993C18.6653 49 18.1484 48.4387 18.1484 47.7405V10.4956C18.1484 9.80174 18.6613 9.23608 19.2993 9.23608H37.8503C38.4843 9.23608 39.0012 9.79732 39.0012 10.4956V47.7405C39.0012 48.4343 38.4884 49 37.8503 49ZM20.4502 46.481H36.6995V11.755H20.4502V46.481Z" fill="black"/>
<path d="M33.3283 11.7551H23.8266C23.1927 11.7551 22.6758 11.1938 22.6758 10.4956V1.25947C22.6758 0.565656 23.1886 0 23.8266 0H33.3283C33.9623 0 34.4792 0.561237 34.4792 1.25947V10.5C34.4792 11.1938 33.9663 11.7595 33.3283 11.7595V11.7551ZM24.9735 9.23611H32.1774V2.51894H24.9735V9.24053V9.23611Z" fill="black"/>
</g>
<defs>
<clipPath id="clip0_86_14">
<rect width="39" height="49" fill="white"/>
</clipPath>
</defs>
</svg>
