<svg width="21" height="21" viewBox="0 0 21 21" fill="none" xmlns="http://www.w3.org/2000/svg">
<path d="M17.5 0H3.5C1.56695 0 0 1.56695 0 3.5V17.5C0 19.4331 1.56695 21 3.5 21H17.5C19.4331 21 21 19.4331 21 17.5V3.5C21 1.56695 19.4331 0 17.5 0ZM6.65 12.95H5.75645L3.97705 9.75415V12.95H3.15V8.05H4.01695L5.82295 11.3218V8.05H6.65V12.95ZM11.55 12.95H8.05V8.05H11.4625V8.87845H8.9789V9.96485H11.2889V10.7905H8.9789V12.1233H11.55V12.95ZM17.3838 12.95H16.3555L15.4003 9.28655L14.4476 12.95H13.3963L12.25 8.05H13.2426L13.9664 11.4153L14.8435 8.05H15.996L16.8375 11.4726L17.5746 8.05H18.55L17.3838 12.95Z" fill="#39393A"/>
</svg>
