<svg width="52" height="37" viewBox="0 0 52 37" fill="none" xmlns="http://www.w3.org/2000/svg">
<path d="M22.4434 1.25H49.4004C50.545 1.25022 51.5 2.2127 51.5 3.43066V27.4746C51.5 28.0575 51.2761 28.6119 50.8789 29.0215L50.877 29.0225C50.485 29.4294 49.9528 29.6552 49.4004 29.6553H45.2725L45.3906 30.2529C45.4534 30.57 45.4854 30.8987 45.4854 31.2354C45.4851 34.0151 43.2961 36.2497 40.6367 36.25C37.977 36.25 35.7873 34.0186 35.7871 31.2354C35.7871 30.8983 35.822 30.5717 35.8828 30.248L35.9941 29.6553H20.4268L20.5449 30.2529C20.6077 30.57 20.6396 30.8987 20.6396 31.2354C20.6394 34.0151 18.4504 36.2498 15.791 36.25C13.1313 36.25 10.9416 34.0186 10.9414 31.2354C10.9414 30.7965 10.9988 30.3721 11.1006 29.9619L11.2539 29.3408H2.59961C1.45502 29.3406 0.5 28.3781 0.5 27.1602V15.2939C0.5 14.6751 0.753186 14.0864 1.19336 13.6758L1.19434 13.6748C2.64725 12.3162 6.4745 8.73133 7.84375 7.44824L7.84473 7.44727C8.23092 7.08384 8.73255 6.88673 9.24902 6.88672H19.8535V6.38672H20.3428V3.43066C20.3428 2.21256 21.2986 1.25 22.4434 1.25ZM15.791 27.0068C13.5035 27.0068 11.6748 28.9188 11.6748 31.2354C11.675 33.552 13.5074 35.4629 15.791 35.4629C18.0745 35.4627 19.906 33.5519 19.9062 31.2354C19.9062 28.919 18.0784 27.007 15.791 27.0068ZM40.6396 27.0068C38.3559 27.0069 36.5244 28.9186 36.5244 31.2354C36.5246 33.552 38.3561 35.4628 40.6396 35.4629C42.9233 35.4629 44.7556 33.552 44.7559 31.2354C44.7559 28.9188 42.9272 27.0068 40.6396 27.0068ZM9.24902 7.67383C8.90644 7.67384 8.57667 7.80483 8.3252 8.04102L1.67676 14.2666C1.39249 14.5315 1.2334 14.9085 1.2334 15.2939V24.543L1.83398 24.4189C1.84304 24.4171 1.85948 24.4151 1.88867 24.415L5.17969 24.4326H5.18262C5.36547 24.4326 5.5459 24.5932 5.5459 24.8301C5.54577 25.0563 5.36879 25.2187 5.17578 25.2188L1.88477 25.2021H1.88281C1.87048 25.2021 1.86033 25.2018 1.85352 25.2012C1.84616 25.2005 1.84626 25.1997 1.85254 25.2012L1.23633 25.0547V27.1602C1.23633 27.915 1.83468 28.5537 2.60352 28.5537H11.6895L11.8379 28.3369C12.7219 27.0511 14.1678 26.2197 15.7979 26.2197C17.2657 26.2198 18.5837 26.8933 19.4756 27.9688L20.3604 29.0361V7.67383H9.24902ZM22.4502 2.03711C21.6814 2.03711 21.083 2.6758 21.083 3.43066V23.2949L21.5859 23.293L42.2695 23.1748C42.4624 23.1751 42.6396 23.3383 42.6396 23.5645C42.6396 23.8012 42.4591 23.9617 42.2764 23.9619H42.2734L21.5811 24.0801L21.083 24.082V28.8682H35.9316C35.9491 28.8682 35.9627 28.8699 35.9756 28.8721L36.3154 28.9307L36.4912 28.6328C37.3472 27.1804 38.8878 26.2198 40.6396 26.2197C42.3916 26.2197 43.9262 27.1767 44.7822 28.626L44.9268 28.8721H49.4072C49.7714 28.872 50.123 28.7238 50.3799 28.459C50.6353 28.1955 50.7734 27.8445 50.7734 27.4785V3.43066C50.7734 2.6759 50.1759 2.03727 49.4072 2.03711H22.4502ZM16.6953 11.0996V11.1006C16.8617 11.1033 17.0173 11.2283 17.0537 11.417L17.0625 11.501L17.0137 19.5146C17.012 19.7448 16.8352 19.9053 16.6465 19.9053H16.6445L5.55469 19.8906H5.55371C5.36512 19.8906 5.18833 19.7309 5.18652 19.501L5.16309 16.0225C5.16318 15.9011 5.2099 15.7953 5.28516 15.7236V15.7227L10.0801 11.1406L10.082 11.1387C10.1491 11.0742 10.2347 11.0402 10.3301 11.04L16.6953 11.0996ZM10.3145 11.9727L6.05371 16.0479L5.89746 16.1973L5.89941 16.4131L5.91699 18.6113L5.9209 19.1064L6.41602 19.1074L15.2803 19.1172L15.2764 19.8623L16.1426 18.9697L16.1465 18.9658L16.9678 18.1191L16.2871 18.1182L16.3223 12.3877L16.3252 11.8887L15.8271 11.8838L10.665 11.834L10.4619 11.832L10.3145 11.9727Z" fill="black" stroke="black"/>
</svg>
