<svg width="24" height="22" viewBox="0 0 24 22" fill="none" xmlns="http://www.w3.org/2000/svg">
<path d="M11.9506 14.6802C11.9221 14.6796 11.8943 14.6707 11.8708 14.6544C11.8472 14.6381 11.8291 14.6153 11.8185 14.5887C11.7502 14.4013 10.1338 9.97901 10.1338 8.01983C10.1338 6.06064 11.7488 1.28249 11.817 1.07917C11.831 1.05174 11.8534 1.02947 11.8809 1.01559C11.9084 1.00171 11.9396 0.996924 11.97 1.00194C12.0004 1.00695 12.0284 1.02149 12.05 1.04347C12.0716 1.06544 12.0856 1.09371 12.0901 1.12419V14.5408C12.0908 14.5747 12.0795 14.6079 12.0583 14.6344C12.037 14.661 12.0072 14.6792 11.9739 14.686L11.9506 14.6802ZM11.8098 2.00139C11.3363 3.49148 10.4126 6.58638 10.4126 8.01547C10.4126 9.44456 11.3378 12.3332 11.8098 13.7173V2.00139Z" fill="#39393A" stroke="#39393A" stroke-width="0.3"/>
<path d="M11.9507 14.6801H11.926C11.8927 14.6733 11.8628 14.6551 11.8416 14.6285C11.8203 14.602 11.8091 14.5689 11.8098 14.5349V1.12993C11.8142 1.09945 11.8283 1.07118 11.8499 1.0492C11.8715 1.02723 11.8995 1.01268 11.9299 1.00767C11.9602 1.00266 11.9914 1.00744 12.0189 1.02133C12.0464 1.03521 12.0688 1.05747 12.0828 1.08491C12.1511 1.28242 13.7733 6.06783 13.7733 8.01975C13.7733 9.97168 12.1569 14.4013 12.0886 14.5886C12.0777 14.6161 12.0586 14.6396 12.034 14.6559C12.0093 14.6723 11.9802 14.6807 11.9507 14.6801ZM12.0959 2.00568V13.7216C12.5679 12.3375 13.493 9.44739 13.493 8.01975C13.493 6.59212 12.5635 3.49576 12.0901 2.00132L12.0959 2.00568Z" fill="#39393A" stroke="#39393A" stroke-width="0.3"/>
<path d="M11.9507 14.6802C11.9302 14.6805 11.9099 14.6766 11.8911 14.6685C11.7096 14.5843 7.43829 12.599 6.05423 11.2149C4.67016 9.83084 2.43213 5.3083 2.33773 5.11514C2.32858 5.08603 2.32884 5.05477 2.33847 5.02581C2.3481 4.99684 2.36661 4.97165 2.39137 4.95381C2.41613 4.93596 2.44588 4.92637 2.4764 4.92639C2.50692 4.92641 2.53666 4.93605 2.56139 4.95394L12.0494 14.4405C12.0715 14.4644 12.0849 14.4949 12.0875 14.5273C12.0902 14.5597 12.0819 14.592 12.0639 14.6192C12.0516 14.6379 12.0348 14.6534 12.015 14.664C11.9953 14.6747 11.9731 14.6802 11.9507 14.6802ZM2.98692 5.7774C3.71308 7.16583 5.24093 10.0066 6.25174 11.0174C7.26256 12.0282 9.95953 13.4181 11.271 14.0673L2.98692 5.7774Z" fill="#39393A" stroke="#39393A" stroke-width="0.3"/>
<path d="M11.9507 14.6802C11.9133 14.68 11.8774 14.6655 11.8505 14.6395L2.36391 5.15294C2.34603 5.12821 2.33639 5.09847 2.33636 5.06795C2.33634 5.03743 2.34593 5.00768 2.36378 4.98292C2.38163 4.95816 2.40682 4.93965 2.43578 4.93002C2.46474 4.9204 2.496 4.92014 2.52512 4.92928C2.71682 5.02368 7.23936 7.26026 8.62488 8.64433C10.0104 10.0284 11.9943 14.3011 12.0785 14.4827C12.0912 14.5125 12.0935 14.5458 12.0851 14.5771C12.0766 14.6084 12.058 14.636 12.032 14.6555C12.0082 14.6722 11.9797 14.6808 11.9507 14.6802ZM3.18447 5.57847L11.4627 13.8567C10.8179 12.5496 9.42946 9.84685 8.41284 8.83603C7.39621 7.82522 4.57289 6.29737 3.18447 5.57847Z" fill="#39393A" stroke="#39393A" stroke-width="0.3"/>
<path d="M6.63519 16.0467C5.03763 16.0467 1.13814 14.7295 0.971124 14.6728C0.944278 14.6585 0.92259 14.6362 0.909123 14.6089C0.895656 14.5817 0.891086 14.5509 0.896059 14.5209C0.901033 14.4909 0.915299 14.4632 0.936844 14.4417C0.958389 14.4203 0.986127 14.4061 1.01615 14.4012H11.9492C11.9815 14.4025 12.0125 14.4144 12.0372 14.4352C12.0619 14.456 12.079 14.4844 12.0858 14.516C12.0908 14.5483 12.0848 14.5813 12.0687 14.6098C12.0526 14.6383 12.0274 14.6605 11.9972 14.6728C11.8461 14.728 8.2371 16.0467 6.63519 16.0467ZM1.90352 14.6801C3.16704 15.0766 5.52416 15.7679 6.63519 15.7679C7.74622 15.7679 9.9523 15.0722 11.1258 14.6801H1.90352Z" fill="#39393A" stroke="#39393A" stroke-width="0.3"/>
<path d="M11.9507 14.6802H1.01761C0.987589 14.6753 0.959851 14.6611 0.938307 14.6397C0.916762 14.6182 0.902498 14.5905 0.897524 14.5605C0.892551 14.5305 0.897121 14.4997 0.910588 14.4725C0.924055 14.4452 0.94574 14.4228 0.972587 14.4086C1.13815 14.3519 5.03909 13.0347 6.63665 13.0347C8.23421 13.0347 11.8476 14.3534 12.0001 14.41C12.0264 14.4247 12.0475 14.4473 12.0604 14.4746C12.0733 14.5018 12.0774 14.5324 12.0722 14.5621C12.0669 14.5918 12.0525 14.6191 12.031 14.6403C12.0095 14.6614 11.9819 14.6754 11.9522 14.6802H11.9507ZM1.90353 14.4013H11.1258C9.95231 14.0048 7.74768 13.315 6.6352 13.315C5.52272 13.315 3.17141 14.0048 1.90353 14.4013Z" fill="#39393A" stroke="#39393A" stroke-width="0.3"/>
<path d="M6.70199 19.9288C6.67969 19.9286 6.65774 19.9232 6.63784 19.9132C6.61794 19.9031 6.60063 19.8886 6.58725 19.8707C6.56917 19.8433 6.5609 19.8106 6.5638 19.7779C6.5667 19.7452 6.5806 19.7144 6.60323 19.6906L11.8505 14.4419C11.875 14.4234 11.9047 14.4131 11.9354 14.4125C11.9661 14.4119 11.9962 14.4211 12.0214 14.4387C12.0465 14.4562 12.0655 14.4814 12.0755 14.5104C12.0855 14.5394 12.086 14.5709 12.077 14.6002C12.0306 14.7005 10.9268 17.0692 10.1527 17.8476C9.37862 18.6261 6.87046 19.862 6.76298 19.9143C6.74413 19.924 6.7232 19.929 6.70199 19.9288ZM11.4569 15.2306L7.43541 19.2535C8.25452 18.8178 9.48028 18.125 9.95519 17.6559C10.4301 17.1868 11.0633 16.0075 11.4569 15.2306Z" fill="#39393A" stroke="#39393A" stroke-width="0.3"/>
<path d="M6.70201 19.9288C6.67289 19.9284 6.64455 19.9193 6.62068 19.9027C6.59331 19.884 6.57366 19.856 6.56537 19.824C6.55709 19.7919 6.56075 19.7579 6.57565 19.7284C6.62794 19.6209 7.87113 17.1142 8.64376 16.3372C9.4164 15.5602 11.7909 14.4608 11.8854 14.4143C11.9144 14.4046 11.9459 14.4044 11.9751 14.4136C12.0043 14.4229 12.0299 14.4411 12.0481 14.4658C12.0663 14.4905 12.0763 14.5203 12.0765 14.5509C12.0768 14.5816 12.0673 14.6116 12.0495 14.6365L6.80222 19.8881C6.77529 19.9141 6.7394 19.9286 6.70201 19.9288ZM11.2594 15.033C10.4824 15.4266 9.31764 16.0598 8.84128 16.5347C8.36492 17.0096 7.67942 18.2354 7.24372 19.0559L11.2594 15.033Z" fill="#39393A" stroke="#39393A" stroke-width="0.3"/>
<path d="M11.9507 14.6802C11.9217 14.6803 11.8934 14.6717 11.8693 14.6555C11.8434 14.636 11.8247 14.6084 11.8163 14.5771C11.8079 14.5458 11.8102 14.5125 11.8229 14.4827C11.9071 14.3011 13.8924 10.0298 15.2765 8.64433C16.6606 7.25881 21.1831 5.02368 21.3763 4.92928C21.4054 4.92014 21.4366 4.9204 21.4656 4.93002C21.4946 4.93965 21.5197 4.95816 21.5376 4.98292C21.5554 5.00768 21.565 5.03743 21.565 5.06795C21.565 5.09847 21.5553 5.12821 21.5375 5.15294L12.0494 14.6366C12.0233 14.6633 11.988 14.6789 11.9507 14.6802ZM20.7154 5.57847C19.327 6.29737 16.4848 7.83248 15.474 8.84184C14.4632 9.85121 13.0748 12.5496 12.4241 13.8625L20.7154 5.57847Z" fill="#39393A" stroke="#39393A" stroke-width="0.3"/>
<path d="M11.9507 14.6802C11.9281 14.6805 11.9058 14.6752 11.8858 14.6648C11.8658 14.6544 11.8487 14.6392 11.8359 14.6206C11.818 14.5935 11.8097 14.5612 11.8124 14.5288C11.815 14.4964 11.8284 14.4658 11.8505 14.442L21.3385 4.9554C21.3632 4.93752 21.393 4.92788 21.4235 4.92786C21.454 4.92783 21.4838 4.93743 21.5085 4.95527C21.5333 4.97312 21.5518 4.99831 21.5614 5.02727C21.571 5.05623 21.5713 5.08749 21.5622 5.11661C21.4678 5.30832 19.2297 9.83085 17.8457 11.2164C16.4616 12.6019 12.1903 14.5858 12.0088 14.67C11.9903 14.6773 11.9705 14.6808 11.9507 14.6802ZM20.913 5.77742L12.6347 14.0557C13.9418 13.4123 16.6446 12.0224 17.654 11.0058C18.6633 9.98916 20.1941 7.16439 20.913 5.77742Z" fill="#39393A" stroke="#39393A" stroke-width="0.3"/>
<path d="M22.8823 14.6802H11.9507C11.9208 14.6756 11.8931 14.6619 11.8714 14.6408C11.8497 14.6198 11.8351 14.5925 11.8297 14.5627C11.8243 14.533 11.8282 14.5023 11.8411 14.4749C11.8539 14.4476 11.875 14.4249 11.9013 14.4101C12.0538 14.3534 15.6614 13.0391 17.2589 13.0391C18.8565 13.0391 22.7574 14.3563 22.923 14.413C22.9499 14.4272 22.9715 14.4496 22.985 14.4769C22.9985 14.5041 23.003 14.5349 22.9981 14.5649C22.9931 14.5949 22.9788 14.6226 22.9573 14.6441C22.9357 14.6655 22.908 14.6797 22.878 14.6845L22.8823 14.6802ZM12.7742 14.4013H21.9964C20.7329 14.0049 18.3758 13.315 17.2633 13.315C16.1508 13.315 13.9476 14.0049 12.7742 14.4013Z" fill="#39393A" stroke="#39393A" stroke-width="0.3"/>
<path d="M17.2589 16.0467C15.6613 16.0467 12.0494 14.728 11.8969 14.6728C11.8666 14.6605 11.8414 14.6383 11.8254 14.6098C11.8093 14.5813 11.8033 14.5483 11.8083 14.516C11.8151 14.4842 11.8324 14.4556 11.8575 14.4348C11.8825 14.414 11.9138 14.4021 11.9463 14.4012H22.8779C22.908 14.4061 22.9357 14.4203 22.9572 14.4417C22.9788 14.4632 22.993 14.4909 22.998 14.5209C23.003 14.5509 22.9984 14.5817 22.985 14.6089C22.9715 14.6362 22.9498 14.6585 22.923 14.6728C22.7617 14.7295 18.8564 16.0467 17.2589 16.0467ZM12.7741 14.6801C13.9476 15.0766 16.1522 15.7679 17.2632 15.7679C18.3743 15.7679 20.7328 15.0722 21.9964 14.6801H12.7741Z" fill="#39393A" stroke="#39393A" stroke-width="0.3"/>
<path d="M17.1979 19.9288C17.1796 19.929 17.1614 19.9255 17.1444 19.9185C17.1274 19.9116 17.1121 19.9012 17.0992 19.8881L11.8505 14.6365C11.8284 14.6127 11.815 14.5821 11.8124 14.5497C11.8097 14.5173 11.818 14.485 11.8359 14.4579C11.8554 14.432 11.883 14.4133 11.9144 14.4049C11.9457 14.3965 11.9789 14.3988 12.0088 14.4114C12.109 14.4579 14.4777 15.5602 15.2562 16.3343C16.0346 17.1084 17.2705 19.618 17.3228 19.7255C17.3379 19.7549 17.3418 19.7888 17.3337 19.8208C17.3257 19.8528 17.3064 19.8809 17.2793 19.8998C17.2557 19.9175 17.2274 19.9276 17.1979 19.9288ZM12.6405 15.033L16.662 19.056C16.2263 18.2354 15.535 17.0111 15.0645 16.5347C14.5939 16.0584 13.4161 15.4266 12.6405 15.033Z" fill="#39393A" stroke="#39393A" stroke-width="0.3"/>
<path d="M17.198 19.9288C17.1767 19.929 17.1558 19.924 17.137 19.9143C17.0295 19.862 14.5228 18.6203 13.7458 17.8476C12.9688 17.075 11.8694 14.7005 11.8229 14.6002C11.8139 14.5709 11.8144 14.5394 11.8245 14.5104C11.8345 14.4814 11.8534 14.4562 11.8786 14.4387C11.9038 14.4211 11.9339 14.4119 11.9646 14.4125C11.9953 14.4131 12.025 14.4234 12.0495 14.4419L17.2967 19.6906C17.3138 19.711 17.325 19.7357 17.3291 19.762C17.3332 19.7883 17.3299 19.8152 17.3197 19.8397C17.3095 19.8643 17.2928 19.8856 17.2713 19.9013C17.2498 19.917 17.2245 19.9266 17.198 19.9288ZM12.443 15.2306C12.8352 16.0075 13.4684 17.1738 13.9433 17.6501C14.4182 18.1265 15.644 18.812 16.4645 19.2477L12.443 15.2306Z" fill="#39393A" stroke="#39393A" stroke-width="0.3"/>
<path d="M12.2716 21.1822H11.6283C11.5897 21.1822 11.5528 21.1669 11.5256 21.1397C11.4983 21.1124 11.483 21.0755 11.483 21.037V14.5407C11.483 14.5022 11.4983 14.4653 11.5256 14.438C11.5528 14.4108 11.5897 14.3955 11.6283 14.3955H12.2716C12.3102 14.3955 12.3471 14.4108 12.3743 14.438C12.4016 14.4653 12.4169 14.5022 12.4169 14.5407V21.0413C12.4157 21.0791 12.3999 21.1149 12.3728 21.1412C12.3457 21.1675 12.3094 21.1822 12.2716 21.1822ZM11.7691 20.9019H12.1308V14.6802H11.7691V20.9019Z" fill="#39393A" stroke="#39393A" stroke-width="0.3"/>
</svg>
