<svg width="25" height="25" viewBox="0 0 25 25" fill="none" xmlns="http://www.w3.org/2000/svg">
<path d="M16.5671 4.51462C16.3617 4.45266 16.108 4.41624 15.8005 4.41643C15.0201 4.4169 14.4333 4.823 14.197 5.0709L1.09869 18.1692C0.634283 18.6336 0.633523 19.3865 1.09789 19.8509L5.14909 23.9021C5.61345 24.3665 6.36637 24.3657 6.83078 23.9013L19.9291 10.803C20.177 10.5667 20.5831 9.97988 20.5836 9.19953C20.5838 8.89197 20.5474 8.63826 20.4854 8.43288C20.5612 8.31672 20.6038 8.18108 20.6073 8.04118L23.9183 4.73017C24.2642 4.38429 24.3952 3.79657 24.0397 3.32435C23.8211 3.034 23.4667 2.61841 22.9285 2.07966L22.9284 2.0795L22.9245 2.07564L22.9243 2.07546L22.9204 2.0715L22.9203 2.07147C22.3816 1.53333 21.966 1.17885 21.6757 0.96027C21.2034 0.604764 20.6157 0.735817 20.2698 1.0817L16.9588 4.39271C16.8189 4.39615 16.6833 4.43876 16.5671 4.51462ZM19.132 9.96734L19.132 9.9674L19.128 9.97113L19.1279 9.97103L19.1221 9.97686L6.0142 23.0847C6.00069 23.0982 5.97921 23.098 5.96622 23.085L1.91503 19.0338C1.90205 19.0208 1.90175 18.9993 1.91527 18.9858L15.0231 5.87793L15.0232 5.87803L15.0289 5.87194L15.0327 5.86796C15.0327 5.86796 15.0327 5.86795 15.0327 5.86795C15.0995 5.79655 15.4024 5.57188 15.8004 5.57164C16.07 5.57148 16.2144 5.6113 16.2719 5.63405C16.4238 5.69415 16.5941 5.71251 16.7525 5.69152C16.8534 5.67815 16.9866 5.64327 17.1131 5.56028C17.3179 5.55352 17.5151 5.4696 17.6629 5.32178L21.0489 1.93579C21.2885 2.12235 21.6418 2.42747 22.1072 2.89265C22.5725 3.35816 22.8776 3.71147 23.0642 3.9511L19.6782 7.33709C19.5304 7.48492 19.4465 7.68208 19.4397 7.88691C19.3567 8.0134 19.3218 8.14664 19.3085 8.24748C19.2875 8.40587 19.3058 8.57616 19.366 8.72813C19.3887 8.78565 19.4285 8.92999 19.4284 9.19962C19.4281 9.59765 19.2034 9.90055 19.132 9.96734Z" fill="#39393A" stroke="#39393A" stroke-width="0.5"/>
</svg>
