<svg width="31" height="30" viewBox="0 0 31 30" fill="none" xmlns="http://www.w3.org/2000/svg">
<path d="M28.3768 14.4083L15.8768 1.90827C15.7207 1.75306 15.5095 1.66594 15.2893 1.66594C15.0692 1.66594 14.858 1.75306 14.7018 1.90827L2.20185 14.4083C2.06532 14.5677 1.99399 14.7727 2.00209 14.9825C2.01019 15.1922 2.09713 15.3912 2.24554 15.5396C2.39396 15.688 2.5929 15.7749 2.80263 15.783C3.01236 15.7911 3.21743 15.7198 3.37685 15.5833L15.2852 3.67494L27.1935 15.5916C27.3529 15.7281 27.558 15.7995 27.7677 15.7914C27.9775 15.7833 28.1764 15.6963 28.3248 15.5479C28.4732 15.3995 28.5602 15.2005 28.5683 14.9908C28.5764 14.7811 28.505 14.576 28.3685 14.4166L28.3768 14.4083Z" fill="black"/>
<path d="M23.6185 26.6666H19.4518V18.3333H11.1185V26.6666H6.95182V14.9999L5.28516 16.6666V26.6666C5.28516 27.1086 5.46075 27.5325 5.77331 27.8451C6.08587 28.1577 6.5098 28.3333 6.95182 28.3333H12.7852V19.9999H17.7852V28.3333H23.6185C24.0605 28.3333 24.4844 28.1577 24.797 27.8451C25.1096 27.5325 25.2852 27.1086 25.2852 26.6666V16.4666L23.6185 14.7999V26.6666Z" fill="black"/>
</svg>
