<?xml version="1.0" encoding="utf-8"?>
<!-- Generator: Adobe Illustrator 15.0.0, SVG Export Plug-In . SVG Version: 6.00 Build 0)  -->
<!DOCTYPE svg PUBLIC "-//W3C//DTD SVG 1.1//EN" "http://www.w3.org/Graphics/SVG/1.1/DTD/svg11.dtd">
<svg version="1.1" id="レイヤー_1" xmlns="http://www.w3.org/2000/svg" xmlns:xlink="http://www.w3.org/1999/xlink" x="0px"
	 y="0px" width="21px" height="19px" viewBox="0 0 21 19" enable-background="new 0 0 21 19" xml:space="preserve">
<path fill="#E12121" d="M14.568,0c-0.846,0.008-1.713,0.17-2.561,0.502l-0.039,0.016l-0.039,0.02
	c-0.537,0.269-1.028,0.604-1.463,1.002c-2.345-1.988-6.08-2.133-8.634,0.125L1.807,1.688L1.783,1.712
	c-2.241,2.294-2.188,5.828-0.845,8.62l0.012,0.021l0.012,0.022c1.582,2.872,4.536,5.312,7.229,7.317l0.007,0.006l0.006,0.004
	c0.173,0.125,0.471,0.383,0.815,0.636s0.732,0.53,1.3,0.638L10.445,19l0.128-0.01c0.596-0.051,0.831-0.267,1.222-0.509
	c0.392-0.241,0.825-0.548,1.271-0.884c0.878-0.662,1.788-1.426,2.386-1.97c0.008-0.007,0.021-0.017,0.028-0.024
	c0.001,0,0.003-0.002,0.003-0.003c1.262-1.055,2.51-2.271,3.569-3.7c0,0,0.001-0.001,0.001-0.002
	c0.002-0.002,0.004-0.005,0.006-0.008c1.68-2.216,2.494-5.202,1.522-8.144l-0.018-0.053l-0.023-0.049
	C19.451,1.333,17.105-0.025,14.568,0z M14.6,1.811c1.826-0.041,3.429,0.918,4.225,2.559c0.734,2.296,0.1,4.637-1.27,6.438
	l-0.004,0.005l-0.003,0.004c-0.954,1.29-2.108,2.418-3.306,3.417l-0.015,0.014l-0.015,0.014c-0.539,0.491-1.451,1.258-2.285,1.886
	c-0.416,0.314-0.816,0.595-1.126,0.786c-0.117,0.071-0.228,0.121-0.318,0.159c-0.096-0.052-0.217-0.123-0.343-0.217
	c-0.254-0.187-0.524-0.426-0.818-0.639c-0.005-0.003-0.01-0.006-0.014-0.01c-2.613-1.947-5.365-4.313-6.688-6.697
	c-1.074-2.25-1.027-4.942,0.49-6.524c2.064-1.798,5.13-1.407,6.659,0.438l0.745,0.898l0.72-0.917
	c0.415-0.527,0.909-0.93,1.509-1.235C13.372,1.948,13.998,1.824,14.6,1.811z"/>
</svg>
