<svg width="45" height="45" viewBox="0 0 45 45" fill="none" xmlns="http://www.w3.org/2000/svg">
<circle cx="22.5565" cy="22.1232" r="22.1232" fill="#7D5656"/>
<path d="M31.9752 16.1219C31.2811 16.4213 30.5257 16.6368 29.7476 16.7208C30.5554 16.2409 31.1604 15.4826 31.4489 14.5884C30.6909 15.0394 29.8604 15.3556 28.9944 15.523C28.6325 15.1361 28.1947 14.8278 27.7084 14.6175C27.2221 14.4071 26.6977 14.2991 26.1679 14.3003C24.0242 14.3003 22.3001 16.038 22.3001 18.1703C22.3001 18.4698 22.3364 18.7692 22.3954 19.0573C19.1855 18.8895 16.3226 17.356 14.4194 15.0081C14.0726 15.6004 13.8909 16.2749 13.8931 16.9612C13.8931 18.3042 14.5759 19.4883 15.6171 20.1848C15.0035 20.1606 14.4043 19.9919 13.8681 19.6925V19.7401C13.8681 21.6207 15.1975 23.1792 16.9692 23.5376C16.6365 23.624 16.2943 23.6682 15.9506 23.6692C15.6988 23.6692 15.4606 23.6442 15.2202 23.6102C15.7102 25.1437 17.137 26.2575 18.8361 26.2938C17.5068 27.3351 15.8417 27.9475 14.0337 27.9475C13.7093 27.9475 13.4099 27.9362 13.0991 27.8999C14.8141 29.0001 16.8489 29.6353 19.0403 29.6353C26.1543 29.6353 30.047 23.7418 30.047 18.6263C30.047 18.4584 30.047 18.2906 30.0357 18.1227C30.7888 17.5715 31.4489 16.8887 31.9752 16.1219Z" fill="white"/>
</svg>
