<svg width="18" height="16" viewBox="0 0 18 16" fill="none" xmlns="http://www.w3.org/2000/svg">
<path d="M0.818359 2.09069C0.818359 1.72903 0.962028 1.38218 1.21776 1.12645C1.47349 0.870719 1.82034 0.727051 2.182 0.727051H15.8184C16.18 0.727051 16.5269 0.870719 16.7826 1.12645C17.0383 1.38218 17.182 1.72903 17.182 2.09069C17.182 2.45235 17.0383 2.79919 16.7826 3.05492C16.5269 3.31065 16.18 3.45432 15.8184 3.45432H2.182C1.82034 3.45432 1.47349 3.31065 1.21776 3.05492C0.962028 2.79919 0.818359 2.45235 0.818359 2.09069ZM15.8184 5.27069H2.182C1.82034 5.27069 1.47349 5.41435 1.21776 5.67009C0.962028 5.92582 0.818359 6.27266 0.818359 6.63432C0.818359 6.99598 0.962028 7.34283 1.21776 7.59856C1.47349 7.85429 1.82034 7.99796 2.182 7.99796H7.182V13.4525C7.182 13.9347 7.37355 14.3972 7.71453 14.7382C8.0555 15.0791 8.51797 15.2707 9.00018 15.2707C9.48239 15.2707 9.94485 15.0791 10.2858 14.7382C10.6268 14.3972 10.8184 13.9347 10.8184 13.4525V7.99796H15.8184C16.18 7.99796 16.5269 7.85429 16.7826 7.59856C17.0383 7.34283 17.182 6.99598 17.182 6.63432C17.182 6.27266 17.0383 5.92582 16.7826 5.67009C16.5269 5.41435 16.18 5.27069 15.8184 5.27069Z" fill="#39393A"/>
</svg>
