<svg width="37" height="37" viewBox="0 0 37 37" fill="none" xmlns="http://www.w3.org/2000/svg">
<circle cx="18.5805" cy="18.4155" r="18.2602" fill="#39393A"/>
<path d="M26.3545 13.462C25.7816 13.7092 25.1581 13.8871 24.5159 13.9563C25.1826 13.5602 25.682 12.9344 25.9201 12.1963C25.2945 12.5685 24.609 12.8295 23.8942 12.9677C23.5955 12.6483 23.2341 12.3939 22.8328 12.2203C22.4314 12.0466 21.9986 11.9575 21.5612 11.9585C19.7918 11.9585 18.3688 13.3928 18.3688 15.1528C18.3688 15.3999 18.3988 15.6471 18.4475 15.8849C15.798 15.7463 13.4351 14.4806 11.8641 12.5427C11.5779 13.0316 11.4279 13.5883 11.4297 14.1548C11.4297 15.2633 11.9933 16.2406 12.8528 16.8155C12.3463 16.7955 11.8517 16.6563 11.4092 16.4092V16.4485C11.4092 18.0007 12.5064 19.287 13.9687 19.5829C13.6941 19.6542 13.4117 19.6907 13.128 19.6915C12.9202 19.6915 12.7236 19.6709 12.5251 19.6428C12.9295 20.9085 14.1073 21.8278 15.5097 21.8578C14.4125 22.7172 13.0381 23.2228 11.5458 23.2228C11.2781 23.2228 11.0309 23.2134 10.7744 23.1835C12.1899 24.0916 13.8695 24.6158 15.6782 24.6158C21.55 24.6158 24.763 19.7514 24.763 15.5291C24.763 15.3906 24.763 15.252 24.7536 15.1135C25.3753 14.6585 25.9201 14.0949 26.3545 13.462Z" fill="white"/>
</svg>
