<svg width="31" height="31" viewBox="0 0 31 31" fill="none" xmlns="http://www.w3.org/2000/svg">
<path d="M12.1809 28.1144C12.8444 28.1144 13.3822 27.5765 13.3822 26.913C13.3822 26.2495 12.8444 25.7117 12.1809 25.7117C11.5174 25.7117 10.9795 26.2495 10.9795 26.913C10.9795 27.5765 11.5174 28.1144 12.1809 28.1144Z" stroke="black" stroke-width="2" stroke-linecap="round" stroke-linejoin="round"/>
<path d="M25.3957 28.1144C26.0592 28.1144 26.5971 27.5765 26.5971 26.913C26.5971 26.2495 26.0592 25.7117 25.3957 25.7117C24.7322 25.7117 24.1943 26.2495 24.1943 26.913C24.1943 27.5765 24.7322 28.1144 25.3957 28.1144Z" stroke="black" stroke-width="2" stroke-linecap="round" stroke-linejoin="round"/>
<path d="M2.56982 2.8856H7.37531L10.595 18.972C10.7048 19.5251 11.0057 20.0219 11.445 20.3755C11.8843 20.7291 12.4339 20.917 12.9977 20.9062H24.6751C25.2389 20.917 25.7885 20.7291 26.2278 20.3755C26.667 20.0219 26.9679 19.5251 27.0778 18.972L29 8.89245H8.57668" stroke="black" stroke-width="2" stroke-linecap="round" stroke-linejoin="round"/>
</svg>
