<svg width="38" height="37" viewBox="0 0 38 37" fill="none" xmlns="http://www.w3.org/2000/svg">
<circle cx="18.9204" cy="18.4155" r="18.2602" fill="#39393A"/>
<path d="M18.3043 26.6327C18.3024 26.6327 18.3003 26.6327 18.2982 26.6327C17.6099 26.628 11.5254 26.5726 9.80156 26.1078C8.5968 25.7849 7.64577 24.8378 7.32105 23.6364C6.86998 21.948 6.89869 18.6974 6.90183 18.4378C6.89887 18.1794 6.86981 14.9019 7.31965 13.1996C7.32018 13.1981 7.32052 13.1963 7.32105 13.1948C7.64212 12.0071 8.61455 11.0306 9.7986 10.7069C9.80156 10.706 9.80469 10.7053 9.80765 10.7044C11.512 10.2578 17.6085 10.2032 18.2982 10.1985H18.3105C19.0005 10.2032 25.1012 10.2585 26.8092 10.724C28.0109 11.0461 28.9612 11.992 29.2868 13.1918C29.7547 14.8953 29.7114 18.18 29.7067 18.4572C29.71 18.7303 29.7373 21.9518 29.2889 23.6487C29.2885 23.6504 29.288 23.652 29.2877 23.6536C28.9628 24.8549 28.0119 25.8021 26.8058 26.1253C26.8042 26.1259 26.8025 26.1262 26.8009 26.1267C25.0967 26.5732 19 26.6278 18.3105 26.6327C18.3084 26.6327 18.3064 26.6327 18.3043 26.6327ZM9.04212 13.6553C8.64605 15.1578 8.68346 18.3935 8.68381 18.4262V18.4496C8.67198 19.347 8.71357 21.9457 9.0423 23.1766C9.2017 23.766 9.67069 24.2329 10.2655 24.3924C11.5374 24.7354 16.493 24.8433 18.3043 24.856C20.1202 24.8433 25.0831 24.7383 26.3457 24.409C26.9385 24.249 27.406 23.7837 27.5664 23.1936C27.8955 21.9447 27.9367 19.3586 27.9247 18.4669C27.9247 18.4576 27.9247 18.4482 27.9249 18.4388C27.9413 17.5307 27.9091 14.9016 27.568 13.6608C27.5676 13.6596 27.5673 13.6584 27.5671 13.6572C27.407 13.0652 26.9379 12.5983 26.343 12.4388C25.0835 12.0954 20.1198 11.9879 18.3043 11.9752C16.4896 11.9879 11.5315 12.0927 10.2651 12.4216C9.68165 12.583 9.20205 13.0665 9.04212 13.6553ZM28.4273 23.4225H28.4278H28.4273ZM16.0331 22.0132V14.8178L22.2701 18.4156L16.0331 22.0132Z" fill="white"/>
</svg>
