<svg width="28" height="27" viewBox="0 0 28 27" fill="none" xmlns="http://www.w3.org/2000/svg">
<path d="M11.1133 11.6543H23.7695C23.8855 11.6543 23.9805 11.5594 23.9805 11.4434V9.9668C23.9805 9.85078 23.8855 9.75586 23.7695 9.75586H11.1133C10.9973 9.75586 10.9023 9.85078 10.9023 9.9668V11.4434C10.9023 11.5594 10.9973 11.6543 11.1133 11.6543ZM10.9023 17.0332C10.9023 17.1492 10.9973 17.2441 11.1133 17.2441H23.7695C23.8855 17.2441 23.9805 17.1492 23.9805 17.0332V15.5566C23.9805 15.4406 23.8855 15.3457 23.7695 15.3457H11.1133C10.9973 15.3457 10.9023 15.4406 10.9023 15.5566V17.0332ZM24.1914 4.21875H3.51953C3.40352 4.21875 3.30859 4.31367 3.30859 4.42969V5.90625C3.30859 6.02227 3.40352 6.11719 3.51953 6.11719H24.1914C24.3074 6.11719 24.4023 6.02227 24.4023 5.90625V4.42969C24.4023 4.31367 24.3074 4.21875 24.1914 4.21875ZM24.1914 20.8828H3.51953C3.40352 20.8828 3.30859 20.9777 3.30859 21.0938V22.5703C3.30859 22.6863 3.40352 22.7812 3.51953 22.7812H24.1914C24.3074 22.7812 24.4023 22.6863 24.4023 22.5703V21.0938C24.4023 20.9777 24.3074 20.8828 24.1914 20.8828ZM3.39824 13.6819L7.51943 16.9277C7.67236 17.049 7.89912 16.9409 7.89912 16.7458V10.2542C7.89912 10.0591 7.675 9.95098 7.51943 10.0723L3.39824 13.3181C3.37053 13.3396 3.34811 13.3672 3.33268 13.3987C3.31726 13.4303 3.30924 13.4649 3.30924 13.5C3.30924 13.5351 3.31726 13.5697 3.33268 13.6013C3.34811 13.6328 3.37053 13.6604 3.39824 13.6819Z" fill="black"/>
</svg>
