<svg width="34" height="34" viewBox="0 0 34 34" fill="none" xmlns="http://www.w3.org/2000/svg">
<path d="M11.8375 22.5714C14.8518 22.5714 17.6863 21.3988 19.8193 19.2657C21.9524 17.1327 23.125 14.2982 23.125 11.2839C23.125 8.26959 21.9524 5.43512 19.8193 3.30208C15.4165 -1.10069 8.25484 -1.10069 3.85567 3.30208C-0.547106 7.70485 -0.543509 14.8666 3.85567 19.2657C5.98871 21.3988 8.82318 22.5714 11.8375 22.5714ZM11.8375 1.79852C14.2691 1.79852 16.6971 2.72296 18.5496 4.57183C20.3409 6.36316 21.3301 8.74799 21.3301 11.2839C21.3301 13.8198 20.3445 16.2011 18.5496 17.996C16.7582 19.7873 14.3734 20.7765 11.8375 20.7765C9.30158 20.7765 6.92034 19.7909 5.12542 17.996C1.42407 14.2946 1.42407 8.27678 5.12542 4.57543C6.9743 2.72655 9.4059 1.80211 11.8375 1.80211V1.79852Z" fill="#333333"/>
<path d="M15.4337 5.98544C15.743 5.98544 16.0452 5.82357 16.2107 5.53941C16.4589 5.11136 16.315 4.56101 15.8833 4.30922C13.5237 2.93875 10.6568 2.85242 8.21804 4.07541C7.77561 4.29843 7.59575 4.83799 7.81877 5.28402C8.04179 5.72645 8.58134 5.90631 9.02738 5.68329C10.923 4.73007 13.1496 4.79842 14.9841 5.86314C15.1244 5.94587 15.2826 5.98544 15.4337 5.98544Z" fill="#333333"/>
<path d="M22.5755 22.9202C22.8057 22.9202 23.0359 22.8339 23.2122 22.6576C23.5647 22.3051 23.5647 21.7368 23.2122 21.3843L19.8202 17.9923C19.4677 17.6398 18.8993 17.6398 18.5468 17.9923C18.1943 18.3448 18.1943 18.9131 18.5468 19.2656L21.9388 22.6576C22.1151 22.8339 22.3453 22.9202 22.5755 22.9202Z" fill="#333333"/>
<path d="M30.2663 33.4453C30.7375 33.4453 31.1835 33.2618 31.518 32.9273L33.482 30.9633C33.8166 30.6288 34 30.1864 34 29.7116C34 29.2368 33.8166 28.7943 33.482 28.4598L25.4211 20.3988C25.0865 20.0643 24.6441 19.8809 24.1693 19.8809C23.6945 19.8809 23.2521 20.0643 22.9175 20.3988L20.9571 22.3628C20.2665 23.0534 20.2665 24.1721 20.9571 24.8628L29.0181 32.9237C29.3526 33.2582 29.7951 33.4417 30.2663 33.4417V33.4453ZM32.1871 29.7116L30.2663 31.6324L22.2485 23.6146L24.1657 21.6938L32.1835 29.7116H32.1871Z" fill="#333333"/>
</svg>
