<svg width="24" height="26" viewBox="0 0 24 26" fill="none" xmlns="http://www.w3.org/2000/svg">
<path d="M11 26H8.42814L2.33489 13.5131V26H0V0H2.33489V11.6846L7.88626 0H10.425V0.148693L4.44275 12.5327L11 26Z" fill="#39393A"/>
<path d="M13 12.9845H18.3411V14.9876H15.4441V23.9658H21.5884V2.03745H15.4441V7.91127H13V1.92962C13 1.36266 13.188 0.898636 13.564 0.539182C13.94 0.179727 14.4237 0 15.0185 0H21.9815C22.5746 0 23.06 0.179727 23.436 0.539182C23.812 0.898636 24 1.36103 24 1.92962V24.0704C24 24.6373 23.812 25.1014 23.436 25.4608C23.06 25.8203 22.5763 26 21.9815 26H15.0185C14.4254 26 13.94 25.8203 13.564 25.4608C13.188 25.1014 13 24.639 13 24.0704V12.9845Z" fill="#39393A"/>
</svg>
