<svg width="20" height="18" viewBox="0 0 20 18" fill="none" xmlns="http://www.w3.org/2000/svg">
<path d="M18.125 0H1.875C0.839453 0 0 0.863437 0 1.92857V16.0714C0 17.1366 0.839453 18 1.875 18H18.125C19.1605 18 20 17.1366 20 16.0714V1.92857C20 0.863437 19.1605 0 18.125 0ZM17.8906 16.0714H2.10938C2.04721 16.0714 1.9876 16.046 1.94365 16.0008C1.89969 15.9556 1.875 15.8943 1.875 15.8304V2.16964C1.875 2.10571 1.89969 2.04439 1.94365 1.99918C1.9876 1.95397 2.04721 1.92857 2.10938 1.92857H17.8906C17.9528 1.92857 18.0124 1.95397 18.0564 1.99918C18.1003 2.04439 18.125 2.10571 18.125 2.16964V15.8304C18.125 15.8943 18.1003 15.9556 18.0564 16.0008C18.0124 16.046 17.9528 16.0714 17.8906 16.0714ZM16.25 12.375V13.3393C16.25 13.6055 16.0401 13.8214 15.7812 13.8214H7.96875C7.70988 13.8214 7.5 13.6055 7.5 13.3393V12.375C7.5 12.1087 7.70988 11.8929 7.96875 11.8929H15.7812C16.0401 11.8929 16.25 12.1087 16.25 12.375ZM16.25 8.51786V9.48214C16.25 9.74841 16.0401 9.96429 15.7812 9.96429H7.96875C7.70988 9.96429 7.5 9.74841 7.5 9.48214V8.51786C7.5 8.25159 7.70988 8.03571 7.96875 8.03571H15.7812C16.0401 8.03571 16.25 8.25159 16.25 8.51786ZM16.25 4.66071V5.625C16.25 5.89126 16.0401 6.10714 15.7812 6.10714H7.96875C7.70988 6.10714 7.5 5.89126 7.5 5.625V4.66071C7.5 4.39445 7.70988 4.17857 7.96875 4.17857H15.7812C16.0401 4.17857 16.25 4.39445 16.25 4.66071ZM6.40625 5.14286C6.40625 5.94169 5.77664 6.58929 5 6.58929C4.22336 6.58929 3.59375 5.94169 3.59375 5.14286C3.59375 4.34403 4.22336 3.69643 5 3.69643C5.77664 3.69643 6.40625 4.34403 6.40625 5.14286ZM6.40625 9C6.40625 9.79883 5.77664 10.4464 5 10.4464C4.22336 10.4464 3.59375 9.79883 3.59375 9C3.59375 8.20117 4.22336 7.55357 5 7.55357C5.77664 7.55357 6.40625 8.20117 6.40625 9ZM6.40625 12.8571C6.40625 13.656 5.77664 14.3036 5 14.3036C4.22336 14.3036 3.59375 13.656 3.59375 12.8571C3.59375 12.0583 4.22336 11.4107 5 11.4107C5.77664 11.4107 6.40625 12.0583 6.40625 12.8571Z" fill="#39393A"/>
</svg>
