<svg width="23" height="24" viewBox="0 0 23 24" fill="none" xmlns="http://www.w3.org/2000/svg">
<path d="M6.69026 15.5954C7.5409 16.4461 8.74836 16.317 10.1995 16.1942C10.4607 16.1722 10.7309 16.1493 11.0201 16.1286C11.369 16.1037 11.6464 15.8262 11.6714 15.4774C11.692 15.1883 11.7149 14.9182 11.737 14.6571C11.847 13.3558 12.0135 12.0228 11.1382 11.1474C10.3528 10.362 9.12885 10.2879 8.34322 11.0736C7.97736 11.4394 7.83322 11.8645 7.81245 12.2696C7.40726 12.2904 6.98229 12.4345 6.61643 12.8004C5.85349 13.5634 5.88593 14.7911 6.69026 15.5954ZM7.61075 13.7948C7.80102 13.6046 8.14377 13.6736 8.38189 13.7962C8.65771 13.9581 9.00585 13.916 9.23226 13.6896C9.45871 13.4632 9.50081 13.1151 9.3389 12.8392C9.31724 12.7972 9.08212 12.3234 9.33759 12.068C9.57164 11.8339 9.91495 11.9131 10.1437 12.1419C10.5241 12.5223 10.4311 13.4103 10.3357 14.5386C10.3291 14.6159 10.3226 14.694 10.316 14.7732C10.2366 14.7798 10.1584 14.7864 10.0809 14.793C8.74541 14.906 8.0323 14.9487 7.68458 14.601C7.46595 14.3824 7.37037 14.0352 7.61075 13.7948Z" fill="#39393A"/>
<path d="M19.0322 6.98438V8.25001H17.7197C17.3314 8.25001 17.0166 8.56483 17.0166 8.95314C17.0166 9.34146 17.3314 9.65627 17.7197 9.65627H19.7354C20.1237 9.65627 20.4385 9.34146 20.4385 8.95314V7.68751H21.7041C22.0924 7.68751 22.4073 7.37269 22.4073 6.98438C22.4073 6.59606 22.0924 6.28125 21.7041 6.28125H19.7354C19.347 6.28125 19.0322 6.59606 19.0322 6.98438Z" fill="#39393A"/>
<path d="M16.126 2.67189V0.703129C16.126 0.314814 15.8112 0 15.4229 0C15.0346 0 14.7197 0.314814 14.7197 0.703129V1.96876H13.4541C13.0658 1.96876 12.751 2.28358 12.751 2.67189V4.68753C12.751 5.07584 13.0658 5.39066 13.4541 5.39066C13.8424 5.39066 14.1572 5.07584 14.1572 4.68753V3.37502H15.4229C15.8112 3.37502 16.126 3.06021 16.126 2.67189Z" fill="#39393A"/>
<path d="M15.4347 7.96971L16.9262 6.47814C17.2008 6.20355 17.2008 5.75837 16.9262 5.48378C16.6517 5.20918 16.2064 5.20918 15.9318 5.48378L14.4403 6.97535C14.1657 7.24995 14.1657 7.69512 14.4403 7.96971C14.7149 8.24431 15.1601 8.24431 15.4347 7.96971Z" fill="#39393A"/>
<path d="M9.75098 2.01563V3.98439C9.75098 4.37271 10.0658 4.68752 10.4541 4.68752C10.8424 4.68752 11.1572 4.37271 11.1572 3.98439V2.01563C11.1572 1.62731 10.8424 1.3125 10.4541 1.3125C10.0658 1.3125 9.75098 1.62731 9.75098 2.01563Z" fill="#39393A"/>
<path d="M21.0947 11.9531C21.0947 11.5648 20.7799 11.25 20.3916 11.25H18.4229C18.0345 11.25 17.7197 11.5648 17.7197 11.9531C17.7197 12.3414 18.0345 12.6563 18.4229 12.6563H20.3916C20.7799 12.6563 21.0947 12.3414 21.0947 11.9531Z" fill="#39393A"/>
<path d="M1.8511 22.1353C3.28098 23.1436 5.23254 23.1144 6.70564 22.1104L7.29664 21.7076L8.97145 23.3825C9.79388 24.2049 11.1321 24.2049 11.9546 23.3825C12.2928 23.0442 13.4161 21.921 13.9434 21.3937C14.218 21.1191 14.218 20.674 13.9434 20.3994C13.6689 20.1248 13.2236 20.1248 12.949 20.3994L12.4518 20.8966L10.8448 19.2895L15.2973 16.255C16.1422 15.6792 17.3076 15.8127 18.0707 16.5718L18.418 16.9191C18.6926 17.1937 19.1378 17.1937 19.4124 16.9191C19.687 16.6445 19.687 16.1993 19.4124 15.9247C18.5277 15.04 7.45729 3.96957 6.98267 3.49501C6.70817 3.22041 6.26295 3.22041 5.98831 3.49501C5.71367 3.7696 5.71371 4.21478 5.98831 4.48937L6.33101 4.83208C7.09419 5.59521 7.22933 6.76353 6.65234 7.6101C6.25779 8.18901 0.936888 15.9964 0.695668 16.3503C-0.560449 18.1934 -0.0802116 20.7733 1.8511 22.1353ZM11.4574 21.8909L10.9602 22.3881C10.6861 22.6622 10.24 22.6623 9.96582 22.3881L8.47935 20.9016C8.67412 20.7688 9.39558 20.2772 9.66206 20.0955L11.4574 21.8909ZM7.81443 8.40205C8.12999 7.93893 8.31923 7.41992 8.38649 6.88756L16.0198 14.5209C15.4875 14.5882 14.9684 14.7773 14.5053 15.0929L8.64998 19.0835L3.82384 14.2574L7.81443 8.40205ZM1.85775 17.1423L3.01782 15.4401L7.46732 19.8896C7.26032 20.0307 6.5998 20.4808 5.91373 20.9484C4.9083 21.6336 3.60133 21.6488 2.66157 20.986C1.38661 20.0869 1.02604 18.3626 1.85775 17.1423Z" fill="#39393A"/>
</svg>
