<svg width="14" height="20" viewBox="0 0 14 20" fill="none" xmlns="http://www.w3.org/2000/svg">
<path d="M5.25 2H7V4H5.25V2ZM2.625 1H4.375V3H2.625V1ZM2.625 4H4.375V6H2.625V4ZM1.75 6V8H0V6H1.75ZM1.75 3V5H0V3H1.75ZM1.75 0V2H0V0H1.75ZM7.875 20C7.41087 20 6.96575 19.7893 6.63756 19.4142C6.30937 19.0391 6.125 18.5304 6.125 18V8C6.125 7.46957 6.30937 6.96086 6.63756 6.58579C6.96575 6.21071 7.41087 6 7.875 6V5H8.75V2H11.375V5H12.25V6C12.7141 6 13.1592 6.21071 13.4874 6.58579C13.8156 6.96086 14 7.46957 14 8V18C14 18.5304 13.8156 19.0391 13.4874 19.4142C13.1592 19.7893 12.7141 20 12.25 20H7.875ZM7.875 8V18H12.25V8H7.875Z" fill="#39393A"/>
</svg>
