<svg width="20" height="22" viewBox="0 0 20 22" fill="none" xmlns="http://www.w3.org/2000/svg">
<path d="M17.02 8.22549C17.849 7.57918 18.0342 6.3851 17.4233 5.51572C17.1356 5.10652 16.7153 4.82961 16.2466 4.7216C16.195 4.31198 16.0441 3.91856 15.8015 3.5734C15.4812 3.11759 15.0329 2.78745 14.5197 2.6174C14.5334 2.07697 14.3746 1.54331 14.0543 1.08755C13.6615 0.52863 13.0745 0.156129 12.4016 0.0386808C11.7285 -0.0786399 11.0502 0.0729542 10.4912 0.465738C9.9323 0.858565 9.55984 1.44555 9.44239 2.11852C9.42466 2.22011 9.41343 2.32182 9.40786 2.42324C9.28289 2.38688 9.15332 2.36273 9.02065 2.35274C8.5685 2.31863 8.12584 2.44862 7.76694 2.70261C7.39423 2.40678 6.9389 2.22657 6.44759 2.18966C5.86549 2.14607 5.29169 2.31617 4.83014 2.65635C4.52661 2.50012 4.19396 2.40602 3.84646 2.37991C3.16044 2.32858 2.49491 2.54707 1.97315 2.99589C1.4514 3.44472 1.13571 4.06981 1.08409 4.75613C1.06427 5.02003 1.0854 5.28456 1.14562 5.54012C0.487957 6.06473 0.0731037 6.83848 0.00868147 7.69565C-0.112509 9.30885 1.04892 10.7272 2.6292 10.9484C2.33698 11.8105 2.18866 12.7121 2.18866 13.6404C2.18866 15.5715 3.35489 17.2885 5.12142 18.0097C5.96682 20.2079 8.10037 21.7722 10.5927 21.7722C13.085 21.7722 15.2185 20.2079 16.0639 18.0097C17.8305 17.2885 18.9967 15.5714 18.9967 13.6404C18.9967 12.4659 18.7589 11.3294 18.29 10.2623C17.9643 9.52112 17.5384 8.83931 17.02 8.22549ZM10.6991 2.33777C10.758 2.00048 10.9446 1.70626 11.2247 1.50942C11.505 1.31254 11.8449 1.23655 12.1823 1.29536C12.5196 1.35421 12.8138 1.54089 13.0106 1.82103C13.2404 2.1479 13.3042 2.5551 13.1857 2.93815C13.1274 3.12682 13.1597 3.33187 13.2733 3.49341C13.3868 3.65496 13.5688 3.7548 13.7661 3.76377C14.1666 3.78202 14.5281 3.98 14.7578 4.30688C14.9469 4.57592 15.0247 4.90364 14.9769 5.22962C14.9477 5.42846 15.0139 5.62938 15.1556 5.77192C15.2972 5.91445 15.4979 5.98173 15.6967 5.95387C15.9635 5.91645 16.2251 6.02952 16.3795 6.24919C16.6052 6.57037 16.5276 7.01533 16.2064 7.24104C15.8853 7.4668 15.4403 7.38915 15.2146 7.06793C15.1452 6.96923 15.1032 6.85897 15.0896 6.74029C15.0669 6.54043 14.9511 6.36303 14.7774 6.26161C14.6785 6.20387 14.5674 6.17461 14.4558 6.17461C14.3715 6.17461 14.2869 6.19132 14.2071 6.22508C13.6558 6.45862 13.0052 6.27182 12.6602 5.78097C12.5872 5.67718 12.5302 5.56364 12.4907 5.44351C12.4068 5.1885 12.1724 5.01327 11.904 5.00519C11.6356 4.99732 11.391 5.15784 11.2919 5.40733C11.2409 5.53579 11.1539 5.64588 11.0404 5.72569C10.7193 5.95136 10.2743 5.8738 10.0486 5.55263C9.82284 5.23145 9.90049 4.78649 10.2216 4.56078C10.3233 4.4893 10.4373 4.44699 10.5605 4.43495C10.7965 4.41186 11.0003 4.25972 11.0894 4.03996C11.1786 3.82016 11.1385 3.56906 10.9852 3.38804C10.9578 3.35555 10.9341 3.32519 10.913 3.29521C10.7162 3.01511 10.6402 2.6751 10.6991 2.33777ZM1.28075 7.79125C1.32638 7.18385 1.67477 6.6481 2.21264 6.35818C2.51379 6.19583 2.63328 5.82482 2.48339 5.51729C2.38295 5.31118 2.33898 5.08105 2.3562 4.85172C2.38223 4.50525 2.54164 4.18964 2.80507 3.96304C3.0685 3.73643 3.40456 3.62587 3.75087 3.65207C4.02382 3.67256 4.27858 3.7761 4.48754 3.95143C4.6174 4.06037 4.78515 4.1131 4.95414 4.09813C5.123 4.08308 5.27889 4.00143 5.38745 3.87127C5.62417 3.5873 5.98464 3.43435 6.35204 3.4619C6.7114 3.4889 7.03015 3.67839 7.22661 3.98179C7.3478 4.16889 7.5576 4.2789 7.78072 4.27264C8.00354 4.2661 8.2068 4.14367 8.31681 3.94977C8.43923 3.73388 8.67791 3.60623 8.92514 3.62498C9.03706 3.6334 9.14239 3.67146 9.23262 3.73154C8.55625 4.40085 8.43995 5.48234 9.00504 6.28636C9.11088 6.43693 9.23428 6.56786 9.3701 6.67931C9.16829 6.64525 8.98438 6.54481 8.84545 6.39097C8.70802 6.23869 8.50561 6.16185 8.30184 6.18443C8.09799 6.20701 7.91739 6.32625 7.81653 6.50484C7.58112 6.92191 7.12098 7.16828 6.64396 7.1324C6.32614 7.10854 6.03307 6.96498 5.8188 6.72826C5.61614 6.50437 5.2842 6.45335 5.02358 6.60596C4.763 6.75858 4.64517 7.07308 4.74127 7.35938C4.81671 7.58407 4.84583 7.8191 4.82789 8.05795C4.7923 8.5317 4.57437 8.96322 4.2142 9.273C3.98968 9.46614 3.72667 9.59758 3.44564 9.66055C3.44198 9.6614 3.43828 9.66191 3.43467 9.66285C3.26823 9.69904 3.09567 9.71141 2.92112 9.69823C1.94309 9.62458 1.20727 8.76915 1.28075 7.79125ZM10.5927 20.4965C8.06516 20.4965 6.00883 18.4402 6.00883 15.9126V15.0436C7.2559 14.8938 8.40917 14.3325 9.30687 13.428C10.2053 12.5227 10.7579 11.364 10.8976 10.1144H11.5103C12.4896 10.1144 13.4103 10.4957 14.1028 11.1882C14.7952 11.8806 15.1766 12.8013 15.1766 13.7806V15.9126C15.1766 18.4402 13.1202 20.4965 10.5927 20.4965ZM16.4375 16.3252C16.447 16.1888 16.4522 16.0513 16.4522 15.9126V13.7806C16.4522 12.4606 15.9381 11.2195 15.0048 10.2861C14.0713 9.35277 12.8303 8.83871 11.5103 8.83875H10.2948C9.94254 8.83875 9.65696 9.12434 9.65696 9.4766C9.65696 9.48009 9.657 9.48353 9.65705 9.48706C9.65564 10.6346 9.20983 11.7148 8.40139 12.5294C7.59209 13.3448 6.51401 13.799 5.36576 13.8084C5.01554 13.8112 4.73311 14.0959 4.73311 14.4462V15.9127C4.73311 16.0514 4.73829 16.1889 4.74782 16.3252C3.95179 15.6848 3.46431 14.7073 3.46431 13.6404C3.46431 12.6552 3.66068 11.7059 4.04708 10.8139C4.40878 10.6896 4.74735 10.4969 5.04603 10.24C5.62069 9.74568 5.98451 9.07089 6.08223 8.32521C6.23344 8.36582 6.38929 8.39248 6.54824 8.40443C7.27053 8.45868 7.97348 8.19441 8.48227 7.70543C8.75003 7.85027 9.04752 7.93837 9.35849 7.96172C10.1515 8.02134 10.9034 7.64952 11.3391 7.00062C11.4899 6.94313 11.636 6.86641 11.774 6.76946C11.7837 6.76266 11.7932 6.75581 11.8028 6.74884C12.3669 7.3778 13.2114 7.68349 14.0357 7.57974C14.0758 7.65641 14.1209 7.73057 14.1709 7.80158C14.5314 8.31445 15.0921 8.60467 15.6738 8.64141C16.9957 9.98224 17.721 11.7474 17.721 13.6404C17.721 14.7072 17.2335 15.6847 16.4375 16.3252Z" fill="#39393A"/>
<path d="M12.4893 16.8399C12.1785 16.674 11.7921 16.7915 11.6262 17.1022C11.4219 17.4849 11.0259 17.7226 10.5926 17.7226C10.1594 17.7226 9.76337 17.4849 9.559 17.1022C9.39312 16.7914 9.00676 16.6741 8.69591 16.8399C8.38516 17.0059 8.26779 17.3923 8.43372 17.703C8.86031 18.502 9.68759 18.9982 10.5926 18.9982C11.4977 18.9982 12.325 18.502 12.7516 17.703C12.9175 17.3923 12.8001 17.0059 12.4893 16.8399Z" fill="#39393A"/>
<path d="M18.0864 0.000488281C17.0313 0.000488281 16.1729 0.858898 16.1729 1.91402C16.1729 2.96914 17.0313 3.82755 18.0864 3.82755C19.1415 3.82755 19.9999 2.96914 19.9999 1.91402C19.9999 0.858898 19.1415 0.000488281 18.0864 0.000488281ZM18.0864 2.55186C17.7347 2.55186 17.4485 2.26573 17.4485 1.91402C17.4485 1.56231 17.7347 1.27618 18.0864 1.27618C18.4381 1.27618 18.7242 1.56231 18.7242 1.91402C18.7242 2.26573 18.4381 2.55186 18.0864 2.55186Z" fill="#39393A"/>
</svg>
