<svg width="16" height="21" viewBox="0 0 16 21" fill="none" xmlns="http://www.w3.org/2000/svg">
<path d="M11.794 9.09C12.126 8.827 12.442 8.548 12.741 8.25L12.877 8.108C13.16 7.815 13.429 7.51 13.678 7.189L13.74 7.114C13.995 6.779 14.226 6.426 14.442 6.065L14.57 5.845C14.775 5.481 14.965 5.108 15.129 4.722C15.149 4.675 15.164 4.627 15.184 4.58C15.331 4.219 15.458 3.849 15.567 3.471C15.588 3.401 15.611 3.331 15.63 3.26C15.737 2.858 15.819 2.447 15.881 2.031C15.894 1.944 15.902 1.856 15.913 1.768C15.964 1.336 16 0.899 16 0.457V0H14V0.457C14 0.641 13.969 0.818 13.958 1H2.022C2.012 0.819 2 0.64 2 0.457V0H0V0.457C0 5.333 3.269 9.675 7.952 11.026L7.98 11.035C10.861 11.858 13.036 14.181 13.749 17H2.251L3.05 15H10.657C10.1063 14.2052 9.40548 13.5258 8.594 13H4.594C5.039 12.576 5.55 12.226 6.085 11.91C5.35449 11.6543 4.65641 11.314 4.005 10.896C1.55 12.812 0 15.779 0 19.015V21H2V19.015L2.001 19H13.999L14 19.015V21H16V19.015C16 15.185 13.841 11.712 10.557 9.945C10.9282 9.72309 11.2862 9.47968 11.629 9.216C11.684 9.174 11.739 9.134 11.794 9.09ZM10.604 7.486C9.90131 8.04986 9.11746 8.50432 8.279 8.834C8.187 8.87 8.094 8.902 8.001 8.936C6.82235 8.51882 5.74419 7.85932 4.836 7H11.128C10.957 7.161 10.796 7.333 10.611 7.48L10.604 7.486ZM13.619 3C13.614 3.016 13.612 3.033 13.607 3.049L13.563 3.2C13.4233 3.6295 13.2519 4.04799 13.05 4.452C12.954 4.642 12.837 4.817 12.729 5H3.249C2.87923 4.37082 2.58678 3.69929 2.378 3H13.619Z" fill="#39393A"/>
</svg>
