<svg width="25" height="24" viewBox="0 0 25 24" fill="none" xmlns="http://www.w3.org/2000/svg">
<g clip-path="url(#clip0_2877_6730)">
<path d="M12.5828 12.4892C16.0263 12.4892 18.8268 9.68899 18.8268 6.24578C18.8268 2.80256 16.0263 0 12.5828 0C9.13933 0 6.33887 2.80023 6.33887 6.24345C6.33887 9.68666 9.13933 12.4869 12.5828 12.4869V12.4892ZM12.5828 1.55154C15.1713 1.55154 17.2751 3.65754 17.2751 6.24345C17.2751 8.82935 15.169 10.9377 12.5828 10.9377C9.99671 10.9377 7.89054 8.83168 7.89054 6.24345C7.89054 3.65521 9.99671 1.55154 12.5828 1.55154Z" fill="black"/>
<path d="M24.213 23.7365C23.4349 17.9357 18.435 13.563 12.5825 13.563C6.72994 13.563 1.73011 17.9357 0.95194 23.7365L0.916992 23.9998H2.32654L2.3545 23.7994C3.09306 18.6789 7.39394 14.9631 12.5825 14.9631C17.771 14.9631 22.0696 18.6789 22.8105 23.7994L22.8384 23.9998H24.248L24.213 23.7365Z" fill="black"/>
</g>
<defs>
<clipPath id="clip0_2877_6730">
<rect width="23.3333" height="24" fill="white" transform="translate(0.916992)"/>
</clipPath>
</defs>
</svg>
