<svg width="21" height="19" viewBox="0 0 21 19" fill="none" xmlns="http://www.w3.org/2000/svg">
<path d="M14.5685 0.000353821C13.723 0.00887868 12.8557 0.170714 12.0073 0.502669L11.9687 0.518689L11.9302 0.53814C11.3924 0.806613 10.9021 1.14246 10.4663 1.54047C8.12092 -0.44781 4.38693 -0.592115 1.83235 1.66519L1.80666 1.68807L1.78331 1.7121C-0.457667 4.00637 -0.405184 7.53966 0.938117 10.3315L0.949789 10.3532L0.961462 10.3761C2.54353 13.2476 5.49774 15.6874 8.18991 17.6933L8.19691 17.699L8.20274 17.7036C8.37593 17.8281 8.67375 18.0854 9.01757 18.3387C9.36138 18.5919 9.74976 18.8695 10.318 18.976L10.4453 19L10.5737 18.9897C11.1701 18.9393 11.4041 18.7234 11.7959 18.4817C12.1878 18.2399 12.6215 17.933 13.0672 17.5972C13.9458 16.9352 14.8548 16.1722 15.4534 15.628C15.4611 15.621 15.4738 15.6109 15.4814 15.604C15.4826 15.603 15.4837 15.6016 15.4849 15.6006C16.7458 14.546 17.9948 13.3302 19.0536 11.9002C19.0539 11.8998 19.0544 11.8995 19.0547 11.8991C19.0567 11.8964 19.0586 11.8937 19.0606 11.891C20.7398 9.67504 21.5544 6.68873 20.5829 3.74654L20.5653 3.6939L20.542 3.64469C19.4512 1.3333 17.1051 -0.0251864 14.5685 0.000353821ZM14.5989 1.81051C16.4265 1.7693 18.0284 2.72848 18.8236 4.36896C19.5585 6.66564 18.9233 9.00566 17.5547 10.8074L17.5512 10.812L17.5477 10.8166C16.5943 12.1062 15.4397 13.2349 14.2428 14.2332L14.2276 14.247L14.2125 14.2607C13.6735 14.7524 12.7613 15.5184 11.9279 16.1464C11.5112 16.4604 11.1117 16.741 10.8014 16.9324C10.6847 17.0044 10.5737 17.0535 10.4827 17.0915C10.3869 17.0402 10.2655 16.9681 10.1395 16.8752C9.88571 16.6883 9.61551 16.4497 9.32111 16.2367C9.31653 16.2333 9.3117 16.2299 9.30711 16.2264C6.69446 14.2787 3.94248 11.9137 2.61915 9.52936C1.54481 7.27974 1.59169 4.58714 3.10945 3.00505C5.17315 1.20656 8.2391 1.59756 9.7682 3.44328L10.513 4.3415L11.2333 3.42498C11.6477 2.898 12.1423 2.49514 12.7427 2.18924C13.3721 1.94826 13.9974 1.82406 14.5989 1.81051Z" fill="white"/>
</svg>
