<svg width="96" height="76" viewBox="0 0 96 76" fill="none" xmlns="http://www.w3.org/2000/svg">
<path d="M6.79785 35.9192C6.79785 35.3669 7.24557 34.9192 7.79785 34.9192H46.5862C47.1384 34.9192 47.5862 35.3669 47.5862 35.9192V40.7172C47.5862 41.2695 47.1384 41.7172 46.5862 41.7172H7.79785C7.24557 41.7172 6.79785 41.2695 6.79785 40.7172V35.9192Z" fill="#F9F6F9"/>
<path d="M0 18.9241C0 18.3718 0.447715 17.9241 1 17.9241H32.9902C33.5425 17.9241 33.9902 18.3718 33.9902 18.9241V23.7221C33.9902 24.2744 33.5425 24.7221 32.9902 24.7221H1C0.447715 24.7221 0 24.2744 0 23.7221V18.9241Z" fill="#F9F6F9"/>
<path d="M94.8972 36.979L84.7001 13.1858C84.4385 12.5743 84.0029 12.0531 83.4476 11.6869C82.8923 11.3207 82.2416 11.1257 81.5764 11.126H71.3794V4.32798C71.3794 3.4265 71.0213 2.56195 70.3838 1.92451C69.7464 1.28707 68.8818 0.928955 67.9803 0.928955H16.995C15.1177 0.928955 13.5959 2.45075 13.5959 4.32798C13.5959 6.20521 15.1177 7.727 16.995 7.727H64.5813V50.4052C63.0325 51.3045 61.677 52.5016 60.5931 53.9274C59.5092 55.3532 58.7183 56.9794 58.2659 58.7124H36.9065C36.0792 55.5083 34.1117 52.7159 31.3728 50.8586C28.634 49.0013 25.3118 48.2067 22.0289 48.6237C18.7461 49.0406 15.728 50.6406 13.5405 53.1236C11.3529 55.6066 10.146 58.8022 10.146 62.1114C10.146 65.4206 11.3529 68.6162 13.5405 71.0992C15.728 73.5822 18.7461 75.1822 22.0289 75.5991C25.3118 76.0161 28.634 75.2215 31.3728 73.3642C34.1117 71.507 36.0792 68.7145 36.9065 65.5104H58.2659C59.0053 68.4276 60.6963 71.0149 63.0714 72.8631C65.4464 74.7113 68.37 75.7147 71.3794 75.7147C74.3888 75.7147 77.3123 74.7113 79.6873 72.8631C82.0624 71.0149 83.7534 68.4276 84.4928 65.5104H91.7735C92.675 65.5104 93.5396 65.1523 94.177 64.5149C94.8144 63.8774 95.1725 63.0129 95.1725 62.1114V38.3182C95.1727 37.8578 95.079 37.4021 94.8972 36.979ZM23.793 68.9094C22.4485 68.9094 21.1342 68.5107 20.0162 67.7638C18.8983 67.0168 18.027 65.9551 17.5124 64.7129C16.9979 63.4707 16.8633 62.1039 17.1256 60.7852C17.3879 59.4665 18.0354 58.2552 18.9861 57.3045C19.9368 56.3537 21.1481 55.7063 22.4668 55.444C23.7855 55.1817 25.1523 55.3163 26.3945 55.8308C27.6367 56.3453 28.6984 57.2167 29.4454 58.3346C30.1924 59.4525 30.5911 60.7669 30.5911 62.1114C30.5893 63.9138 29.8725 65.6419 28.598 66.9164C27.3235 68.1909 25.5954 68.9076 23.793 68.9094ZM71.3794 17.9241H79.3331L86.6206 34.9192H71.3794V17.9241ZM71.3794 68.9094C70.0348 68.9094 68.7205 68.5107 67.6026 67.7638C66.4846 67.0168 65.6133 65.9551 65.0988 64.7129C64.5843 63.4707 64.4496 62.1039 64.7119 60.7852C64.9743 59.4665 65.6217 58.2552 66.5724 57.3045C67.5231 56.3537 68.7344 55.7063 70.0531 55.444C71.3718 55.1817 72.7387 55.3163 73.9809 55.8308C75.2231 56.3453 76.2848 57.2167 77.0317 58.3346C77.7787 59.4525 78.1774 60.7669 78.1774 62.1114C78.1756 63.9138 77.4588 65.6419 76.1843 66.9164C74.9098 68.1909 73.1818 68.9076 71.3794 68.9094ZM88.3745 58.7124H84.4928C83.7441 55.8009 82.0504 53.2201 79.6772 51.3748C77.304 49.5294 74.3856 48.5237 71.3794 48.5153V41.7173H88.3745V58.7124Z" fill="#F9F6F9"/>
</svg>
