<svg width="20" height="20" viewBox="0 0 20 20" fill="none" xmlns="http://www.w3.org/2000/svg">
<path d="M16.6668 6.66667C18.5078 6.66667 20.0002 5.17428 20.0002 3.33333C20.0002 1.49238 18.5078 0 16.6668 0C14.8259 0 13.3335 1.49238 13.3335 3.33333C13.3335 5.17428 14.8259 6.66667 16.6668 6.66667Z" fill="#39393A"/>
<path d="M16.6667 17.778H2.22222V3.33355H11.1111C11.1111 2.54244 11.2811 1.79244 11.58 1.11133H2.22222C0.996667 1.11133 0 2.10799 0 3.33355V17.778C0 19.0036 0.996667 20.0002 2.22222 20.0002H16.6667C17.8922 20.0002 18.8889 19.0036 18.8889 17.778V8.42022C18.1887 8.72904 17.4319 8.88873 16.6667 8.88911V17.778Z" fill="#39393A"/>
</svg>
