<svg width="53" height="49" viewBox="0 0 53 49" fill="none" xmlns="http://www.w3.org/2000/svg">
<path fill-rule="evenodd" clip-rule="evenodd" d="M26.4999 0C41.1355 0 53 9.38474 53 20.9614C53 25.0051 51.5514 28.7805 49.0437 31.9826C48.9196 32.1648 48.7575 32.3662 48.5531 32.5887L48.5376 32.6053C47.681 33.6177 46.7163 34.5681 45.6557 35.4454C38.3275 42.1364 26.2653 50.1025 24.6733 48.8735C23.2893 47.8052 26.9527 42.5799 22.7262 41.7103C22.4314 41.6769 22.1373 41.641 21.8457 41.6002L21.8402 41.5998C9.42675 39.8578 9.24414e-09 31.2803 9.24414e-09 20.9614C-0.000382407 9.38474 11.8643 0 26.4999 0Z" fill="white"/>
<path fill-rule="evenodd" clip-rule="evenodd" d="M10.4021 27.9756H15.8241C16.5954 27.9756 17.2262 27.3555 17.2262 26.5975V26.4826C17.2262 25.7246 16.5954 25.1047 15.8241 25.1047H11.9211V16.3779C11.9211 15.6199 11.2903 15 10.519 15H10.4021C9.63082 15 9 15.6199 9 16.3779V26.5973C9 27.3555 9.63082 27.9756 10.4021 27.9756ZM44 21.5699V21.4549C44 20.697 43.369 20.077 42.5977 20.077H38.6949V17.8953H42.5977C43.369 17.8953 44 17.2754 44 16.5174V16.4025C44 15.6445 43.369 15.0246 42.5977 15.0246H37.1757C36.4044 15.0246 35.7736 15.6445 35.7736 16.4025V26.6219C35.7736 27.3799 36.4044 28 37.1757 28H42.5977C43.369 28 44 27.3799 44 26.6219V26.507C44 25.749 43.369 25.1291 42.5977 25.1291H38.6949V22.9474H42.5977C43.369 22.9477 44 22.3276 44 21.5699ZM33.5727 27.5648L33.5731 27.5642C33.8326 27.3071 33.9783 26.9598 33.9785 26.5977V16.3783C33.9785 15.6203 33.3477 15.0004 32.5763 15.0004H32.4593C31.688 15.0004 31.0572 15.6203 31.0572 16.3783V22.3772L25.9894 15.6971C25.7473 15.2818 25.2914 15.0004 24.7719 15.0004H24.655C23.8837 15.0004 23.2527 15.6203 23.2527 16.3783V26.5977C23.2527 27.3557 23.8835 27.9758 24.655 27.9758H24.7719C25.5432 27.9758 26.174 27.3557 26.174 26.5977V20.4865L31.2784 27.3379C31.3098 27.386 31.3441 27.4321 31.3812 27.476L31.3814 27.4763C31.5216 27.6643 31.7134 27.7932 31.9272 27.8719C32.0915 27.9386 32.2711 27.9756 32.4591 27.9756H32.5761C32.8046 27.9757 33.0296 27.9205 33.2311 27.8147C33.3714 27.7491 33.4895 27.6645 33.5727 27.5648ZM19.7599 27.9756H19.8769C20.6482 27.9756 21.279 27.3555 21.279 26.5975V16.3781C21.279 15.6201 20.6482 15.0002 19.8769 15.0002H19.7599C18.9887 15.0002 18.3577 15.6201 18.3577 16.3781V26.5975C18.3577 27.3555 18.9887 27.9756 19.7599 27.9756Z" fill="#03BA03"/>
</svg>
