<svg width="38" height="37" viewBox="0 0 38 37" fill="none" xmlns="http://www.w3.org/2000/svg">
<circle cx="19.2505" cy="18.4155" r="18.2602" fill="#39393A"/>
<path fill-rule="evenodd" clip-rule="evenodd" d="M19.2295 11.0894C23.6694 11.0894 27.2686 13.9715 27.2686 17.5267C27.2686 18.7685 26.8291 19.928 26.0684 20.9114C26.0308 20.9673 25.9816 21.0292 25.9196 21.0975L25.9149 21.1026C25.655 21.4135 25.3624 21.7054 25.0406 21.9748C22.8175 24.0297 19.1583 26.4761 18.6754 26.0986C18.2555 25.7706 19.3668 24.1659 18.0847 23.8988C17.9952 23.8885 17.906 23.8775 17.8176 23.865L17.8159 23.8649C14.0501 23.3299 11.1904 20.6957 11.1904 17.5267C11.1903 13.9715 14.7896 11.0894 19.2295 11.0894Z" fill="white"/>
<path fill-rule="evenodd" clip-rule="evenodd" d="M14.5648 19.5801H16.1861C16.4168 19.5801 16.6054 19.3914 16.6054 19.1608V19.1258C16.6054 18.8952 16.4168 18.7065 16.1861 18.7065H15.019V16.0511C15.019 15.8205 14.8304 15.6318 14.5997 15.6318H14.5648C14.3341 15.6318 14.1455 15.8205 14.1455 16.0511V19.1607C14.1455 19.3914 14.3341 19.5801 14.5648 19.5801ZM24.6116 17.6309V17.596C24.6116 17.3653 24.4229 17.1767 24.1922 17.1767H23.0252V16.5128H24.1922C24.4229 16.5128 24.6116 16.3242 24.6116 16.0936V16.0586C24.6116 15.828 24.4229 15.6393 24.1922 15.6393H22.5709C22.3402 15.6393 22.1516 15.828 22.1516 16.0586V19.1682C22.1516 19.3988 22.3402 19.5875 22.5709 19.5875H24.1922C24.4229 19.5875 24.6116 19.3988 24.6116 19.1682V19.1332C24.6116 18.9026 24.4229 18.7139 24.1922 18.7139H23.0252V18.0501H24.1922C24.4229 18.0502 24.6116 17.8615 24.6116 17.6309ZM21.4935 19.4551L21.4936 19.4549C21.5712 19.3767 21.6148 19.271 21.6148 19.1608V16.0512C21.6148 15.8206 21.4262 15.632 21.1955 15.632H21.1605C20.9299 15.632 20.7413 15.8206 20.7413 16.0512V17.8766L19.2258 15.844C19.1534 15.7176 19.0171 15.632 18.8618 15.632H18.8268C18.5962 15.632 18.4075 15.8206 18.4075 16.0512V19.1608C18.4075 19.3914 18.5961 19.5801 18.8268 19.5801H18.8618C19.0924 19.5801 19.2811 19.3914 19.2811 19.1608V17.3013L20.8074 19.3861C20.8168 19.4007 20.8271 19.4147 20.8381 19.428L20.8382 19.4282C20.8801 19.4854 20.9375 19.5246 21.0014 19.5485C21.0506 19.5688 21.1043 19.5801 21.1605 19.5801H21.1955C21.2638 19.5801 21.3311 19.5633 21.3913 19.5311C21.4333 19.5112 21.4686 19.4854 21.4935 19.4551ZM17.3631 19.5801H17.398C17.6287 19.5801 17.8173 19.3914 17.8173 19.1608V16.0512C17.8173 15.8205 17.6287 15.6319 17.398 15.6319H17.3631C17.1324 15.6319 16.9437 15.8205 16.9437 16.0512V19.1608C16.9437 19.3914 17.1324 19.5801 17.3631 19.5801Z" fill="#39393A"/>
</svg>
