<svg width="46" height="45" viewBox="0 0 46 45" fill="none" xmlns="http://www.w3.org/2000/svg">
<circle cx="23.0639" cy="22.1232" r="22.1232" fill="#7D5656"/>
<path fill-rule="evenodd" clip-rule="evenodd" d="M23.0383 13.2466C28.4175 13.2466 32.7781 16.7384 32.7781 21.0458C32.7781 22.5503 32.2457 23.955 31.324 25.1464C31.2784 25.2143 31.2188 25.2892 31.1437 25.372L31.138 25.3781C30.8231 25.7548 30.4686 26.1085 30.0788 26.4349C27.3854 28.9244 22.9521 31.8884 22.367 31.4311C21.8583 31.0336 23.2047 29.0894 21.6513 28.7659C21.543 28.7534 21.4349 28.7401 21.3277 28.7249L21.3257 28.7248C16.7633 28.0766 13.2986 24.8852 13.2986 21.0458C13.2984 16.7384 17.6592 13.2466 23.0383 13.2466Z" fill="white"/>
<path fill-rule="evenodd" clip-rule="evenodd" d="M17.3866 23.5335H19.351C19.6304 23.5335 19.8589 23.3049 19.8589 23.0255V22.9831C19.8589 22.7037 19.6304 22.4751 19.351 22.4751H17.937V19.258C17.937 18.9785 17.7084 18.75 17.429 18.75H17.3866C17.1072 18.75 16.8787 18.9785 16.8787 19.258V23.0254C16.8787 23.3049 17.1072 23.5335 17.3866 23.5335ZM29.5588 21.172V21.1296C29.5588 20.8502 29.3302 20.6217 29.0508 20.6217H27.6368V19.8174H29.0508C29.3302 19.8174 29.5588 19.5888 29.5588 19.3094V19.267C29.5588 18.9876 29.3302 18.7591 29.0508 18.7591H27.0864C26.807 18.7591 26.5785 18.9876 26.5785 19.267V23.0345C26.5785 23.3139 26.807 23.5425 27.0864 23.5425H29.0508C29.3302 23.5425 29.5588 23.3139 29.5588 23.0345V22.9921C29.5588 22.7127 29.3302 22.4841 29.0508 22.4841H27.6368V21.6798H29.0508C29.3302 21.68 29.5588 21.4514 29.5588 21.172ZM25.7811 23.3821L25.7813 23.3818C25.8752 23.2871 25.928 23.159 25.9281 23.0255V19.2581C25.9281 18.9787 25.6996 18.7501 25.4201 18.7501H25.3777C25.0983 18.7501 24.8698 18.9787 24.8698 19.2581V21.4696L23.0337 19.007C22.946 18.8539 22.7809 18.7501 22.5927 18.7501H22.5503C22.2709 18.7501 22.0423 18.9787 22.0423 19.2581V23.0255C22.0423 23.305 22.2708 23.5336 22.5503 23.5336H22.5927C22.8721 23.5336 23.1006 23.305 23.1006 23.0255V20.7726L24.9499 23.2984C24.9613 23.3161 24.9737 23.3331 24.9871 23.3493L24.9872 23.3494C25.038 23.4187 25.1075 23.4662 25.185 23.4953C25.2445 23.5199 25.3096 23.5335 25.3777 23.5335H25.42C25.5028 23.5335 25.5843 23.5132 25.6574 23.4742C25.7082 23.45 25.751 23.4188 25.7811 23.3821ZM20.7769 23.5335H20.8193C21.0987 23.5335 21.3272 23.3049 21.3272 23.0255V19.258C21.3272 18.9786 21.0987 18.7501 20.8193 18.7501H20.7769C20.4975 18.7501 20.2689 18.9786 20.2689 19.258V23.0255C20.2689 23.3049 20.4975 23.5335 20.7769 23.5335Z" fill="#7D5656"/>
</svg>
