<svg width="22" height="23" viewBox="0 0 22 23" fill="none" xmlns="http://www.w3.org/2000/svg">
<path d="M1.82519 8.76099H2.575L3.28591 21.5577C3.29695 21.759 3.46906 21.9132 3.67041 21.9022C3.85627 21.892 4.00474 21.7435 4.01491 21.5577L4.72582 8.76099H5.47563C6.48317 8.75984 7.29972 7.94333 7.30082 6.93579V4.01546C7.30082 3.81384 7.13736 3.65043 6.93579 3.65043V0.36503C6.93579 0.163411 6.77234 0 6.57076 0H0.730059C0.528441 0 0.36503 0.163457 0.36503 0.36503V3.65039C0.163411 3.65039 0 3.81384 0 4.01542V6.93575C0.00109949 7.94333 0.817652 8.75984 1.82519 8.76099ZM4.01546 3.65039V0.730059H4.74557V3.65039H4.01546ZM3.28536 3.65039H2.5553V0.730059H3.2854V3.65039H3.28536ZM6.57072 4.38049V5.1106H0.730059V4.38049H6.57072ZM5.47563 8.03093H4.38049C4.18675 8.03093 4.02673 8.18224 4.01601 8.37571L3.65043 14.9566L3.28485 8.37571C3.27409 8.18224 3.11411 8.03093 2.92037 8.03093H1.82519C1.22066 8.03024 0.730746 7.54033 0.730059 6.93579V5.84066H6.57072V6.93579C6.57008 7.54033 6.08016 8.03024 5.47563 8.03093ZM6.20569 3.65039H5.47558V0.730059H6.20569V3.65039ZM1.09509 0.730059H1.82519V3.65039H1.09509V0.730059Z" fill="#39393A"/>
<path d="M8.39571 22.2676H18.6169C18.8185 22.2676 18.9819 22.1042 18.9819 21.9026V20.7709C19.8312 20.5964 20.441 19.8493 20.4421 18.9823V13.9822L21.8409 11.8839C21.9527 11.7161 21.9074 11.4895 21.7397 11.3777C21.6797 11.3377 21.6092 11.3164 21.5372 11.3163H19.5503L19.7095 8.45073L20.7962 4.10387C20.8451 3.90825 20.726 3.71011 20.5304 3.66132C20.5015 3.65413 20.4719 3.65047 20.4421 3.65047V1.09521C20.4421 0.893595 20.2786 0.730184 20.0771 0.730184H17.1567C16.9551 0.730184 16.7917 0.893641 16.7917 1.09521V3.65051C16.5901 3.65051 16.4267 3.81397 16.4267 4.01554C16.4267 4.04537 16.4303 4.0751 16.4376 4.10405L17.5243 8.45078L17.6834 11.3164H13.6894L13.8263 8.76106H14.9665C15.1681 8.76106 15.3315 8.59761 15.3315 8.39603C15.3315 8.19442 15.168 8.031 14.9665 8.031H13.8654L13.9045 7.3009H14.9665C15.1681 7.3009 15.3315 7.13744 15.3315 6.93587C15.3315 6.7343 15.1681 6.57084 14.9665 6.57084H13.9436L13.9828 5.84074H14.9665C15.1681 5.84074 15.3315 5.67728 15.3315 5.47571C15.3315 5.27409 15.1681 5.11068 14.9665 5.11068H14.022L14.0611 4.38057H14.9665C15.1681 4.38057 15.3315 4.21711 15.3315 4.01554C15.3315 3.81392 15.1681 3.65051 14.9665 3.65051H14.1001L14.1392 2.92041H14.9665C15.1681 2.92041 15.3315 2.75695 15.3315 2.55538C15.3315 2.3538 15.1681 2.19035 14.9665 2.19035H14.1783L14.2174 1.46024H14.9666C15.1682 1.46024 15.3316 1.29679 15.3316 1.09521C15.3316 0.893641 15.1681 0.730184 14.9666 0.730184H12.1166L10.3565 0.0261915C10.1693 -0.0486652 9.95684 0.0424089 9.88199 0.229642C9.87933 0.236285 9.87686 0.243019 9.87461 0.2498L8.04942 5.72543C7.9883 5.90881 8.08066 6.108 8.26015 6.17979L10.0251 6.88571C10.0826 6.92098 10.1494 6.93848 10.2169 6.93592C10.2546 6.93898 10.509 6.96982 10.8013 7.25229C11.1111 7.55163 11.5157 8.19084 11.6839 9.53629C11.723 9.84873 11.7735 10.4466 11.8345 11.3162H5.47538C5.27376 11.3162 5.11035 11.4796 5.11035 11.6812C5.11035 11.7533 5.1317 11.8237 5.17169 11.8837L6.57052 13.9822V18.9822C6.57152 19.8493 7.18137 20.5964 8.03068 20.7709V21.9025C8.03063 22.1042 8.19409 22.2676 8.39571 22.2676ZM8.76074 21.5375V20.8074H18.2518V21.5375H8.76074ZM19.712 3.65047H18.9819V1.4602H19.712V3.65047ZM17.5217 1.46024H18.2518V3.65051H17.5217V1.46024ZM18.2513 8.37578C18.25 8.3527 18.2465 8.32979 18.2409 8.30734L17.2592 4.38057H19.9745L18.9928 8.30752C18.9872 8.32997 18.9837 8.35288 18.9824 8.37597L18.8191 11.3164H18.4146L18.2513 8.37578ZM10.4405 4.75765L9.28579 4.32473L9.52809 3.59792L10.6826 4.03112L10.4405 4.75765ZM10.9137 3.33803L9.75926 2.90483L10.0014 2.1783L11.1562 2.61122L10.9137 3.33803ZM10.4448 0.847829L11.591 1.30627L11.387 1.91813L10.2323 1.48521L10.4448 0.847829ZM9.05476 5.01782L10.2095 5.45074L9.99702 6.08812L8.85085 5.62968L9.05476 5.01782ZM12.4083 9.44591C12.1346 7.25751 11.2481 6.54702 10.6905 6.31645L12.3092 1.46024H13.4862L12.9582 11.3164H12.5663C12.5028 10.4058 12.4497 9.77685 12.4083 9.44591ZM20.8551 12.0464L19.8817 13.5066H7.13089L6.15747 12.0464H20.8551ZM7.30058 18.9822V14.2367H19.712V18.9822C19.7113 19.5867 19.2214 20.0767 18.6169 20.0773H8.39571C7.79118 20.0767 7.30126 19.5867 7.30058 18.9822Z" fill="#39393A"/>
</svg>
