<svg width="21" height="19" viewBox="0 0 21 19" fill="none" xmlns="http://www.w3.org/2000/svg">
<path d="M14.5685 0.000353821C13.723 0.00887868 12.8557 0.170714 12.0073 0.502669L11.9687 0.518689L11.9302 0.53814C11.3924 0.806613 10.9021 1.14246 10.4663 1.54047C8.12092 -0.44781 4.38693 -0.592115 1.83235 1.66519L1.80666 1.68807L1.78331 1.7121C-0.457667 4.00637 -0.405184 7.53966 0.938116 10.3315L0.949789 10.3532L0.961462 10.3761C2.54353 13.2476 5.49774 15.6874 8.18991 17.6933L8.19691 17.699L8.20274 17.7036C8.37593 17.8281 8.67375 18.0854 9.01757 18.3387C9.36138 18.5919 9.74976 18.8695 10.318 18.976L10.4453 19L10.5737 18.9897C11.1701 18.9393 11.4041 18.7234 11.7959 18.4817C12.1878 18.2399 12.6215 17.933 13.0672 17.5972C13.9458 16.9352 14.8548 16.1722 15.4534 15.628C15.4611 15.621 15.4738 15.6109 15.4814 15.604L15.4849 15.6006C16.7458 14.546 17.9948 13.3302 19.0536 11.9002L19.0547 11.8991C19.0567 11.8964 19.0586 11.8937 19.0606 11.891C20.7398 9.67504 21.5544 6.68873 20.5829 3.74654L20.5653 3.6939L20.542 3.64469C19.4512 1.3333 17.1051 -0.0251864 14.5685 0.000353821Z" fill="#E12121"/>
</svg>
