<svg width="25" height="22" viewBox="0 0 25 22" fill="none" xmlns="http://www.w3.org/2000/svg">
<path d="M1 2.43506L5.34365 3.42061L7.93352 15.1678C7.99062 15.4142 8.21087 15.589 8.47189 15.589H19.6838H20.7402C20.9849 15.589 21.201 15.4301 21.2704 15.1996L23.534 7.54564" stroke="#333333" stroke-width="2" stroke-linecap="round" stroke-linejoin="round"/>
<path d="M16.9219 19.6649C16.9219 18.6117 17.7988 17.7573 18.8796 17.7573C19.9604 17.7573 20.8373 18.6117 20.8373 19.6649C20.8373 20.718 19.9604 21.5724 18.8796 21.5724C17.7988 21.5724 16.9219 20.718 16.9219 19.6649Z" fill="#333333"/>
<path d="M8.44531 19.6649C8.44531 18.6117 9.3222 17.7573 10.403 17.7573C11.4838 17.7573 12.3607 18.6117 12.3607 19.6649C12.3607 20.718 11.4838 21.5724 10.403 21.5724C9.3222 21.5724 8.44531 20.718 8.44531 19.6649Z" fill="#333333"/>
<path d="M9.4375 6.59033H19.7474" stroke="black" stroke-width="2" stroke-linecap="round"/>
<path d="M14.5938 1.51172L14.5937 11.6711" stroke="black" stroke-width="2" stroke-linecap="round"/>
</svg>
