<svg width="43" height="43" viewBox="0 0 43 43" fill="none" xmlns="http://www.w3.org/2000/svg">
<path d="M5.94179 22.8043C5.92514 23.14 6.05122 23.467 6.28887 23.7047L23.8817 41.2976C24.1066 41.5224 24.412 41.6479 24.73 41.6461C25.048 41.6443 25.352 41.5153 25.5742 41.2879L41.1271 25.3749C41.5827 24.9086 41.5785 24.1626 41.1175 23.7016L23.7047 6.28885C23.4674 6.05149 23.1408 5.92542 22.8055 5.94171L7.81697 6.66962C7.20561 6.69931 6.71648 7.18793 6.68615 7.79926L5.94179 22.8043Z" stroke="black" stroke-width="2.38" stroke-miterlimit="10" stroke-linejoin="round"/>
<path d="M14.8934 14.8915C14.1169 15.6679 12.8577 15.6679 12.0812 14.8915C11.3047 14.115 11.3047 12.8557 12.0812 12.0792C12.8577 11.3028 14.117 11.3028 14.8934 12.0792C15.6699 12.8557 15.6699 14.115 14.8934 14.8915Z" stroke="black" stroke-width="2.38" stroke-miterlimit="10" stroke-linejoin="round"/>
</svg>
