<svg width="119" height="22" viewBox="0 0 119 22" fill="none" xmlns="http://www.w3.org/2000/svg">
<path d="M2.95331 5.76359L1.94182 6.84872V9.53675H0V0.133301H1.94182V4.39632L2.79722 3.22748L5.19796 0.133301H7.58621L4.23953 4.31261L7.68299 9.53675H5.37278L2.95331 5.76359Z" fill="#39393A"/>
<path d="M21.6106 4.36835L23.5743 0.130127H25.6972L22.6034 6.12316V9.53358H20.6272V6.12316L17.5334 0.130127H19.6626L21.6106 4.36835Z" fill="#39393A"/>
<path d="M44.063 5.04724C44.063 5.97425 43.8976 6.78345 43.5698 7.48104C43.242 8.17862 42.7706 8.71499 42.1587 9.09634C41.5468 9.47458 40.8475 9.6668 40.0576 9.6668C39.2772 9.6668 38.581 9.47768 37.9691 9.10564C37.3541 8.73049 36.8796 8.19412 36.5424 7.49964C36.2052 6.80515 36.0366 6.00526 36.0304 5.09995V4.63489C36.0304 3.70788 36.199 2.89558 36.533 2.1887C36.8671 1.48491 37.3385 0.945442 37.9504 0.567196C38.5623 0.19205 39.2616 0.00292969 40.0452 0.00292969C40.8319 0.00292969 41.5312 0.19205 42.1399 0.567196C42.7518 0.942342 43.2232 1.48491 43.5573 2.1887C43.8913 2.89248 44.0599 3.70478 44.0599 4.62559V5.04724H44.063ZM42.0931 4.61939C42.0931 3.63347 41.9183 2.88318 41.5624 2.37162C41.2065 1.86006 40.7039 1.60272 40.0483 1.60272C39.3958 1.60272 38.8932 1.85386 38.5373 2.36232C38.1845 2.86768 38.0066 3.60867 38.0003 4.58839V5.04724C38.0003 6.00836 38.1751 6.75245 38.531 7.28261C38.8869 7.81278 39.3927 8.07631 40.0576 8.07631C40.7101 8.07631 41.2096 7.82208 41.5593 7.31052C41.9089 6.80205 42.0869 6.05796 42.09 5.08134V4.61939H42.0931Z" fill="#39393A"/>
<path d="M62.883 8.34621C62.5334 8.76477 62.0401 9.08721 61.4001 9.31974C60.7601 9.54916 60.0546 9.66387 59.2772 9.66387C58.4624 9.66387 57.7475 9.48716 57.1294 9.13061C56.5144 8.77407 56.0398 8.25941 55.7058 7.58352C55.3717 6.90764 55.2 6.11395 55.1907 5.19933V4.56066C55.1907 3.62124 55.3499 2.80895 55.6683 2.12066C55.9868 1.43548 56.4457 0.908413 57.042 0.545669C57.6414 0.182925 58.3407 0 59.143 0C60.2606 0 61.1348 0.266635 61.7654 0.796799C62.396 1.33006 62.7706 2.10206 62.8861 3.11898H60.9974C60.91 2.57952 60.7195 2.18887 60.423 1.93774C60.1264 1.68661 59.7205 1.56259 59.2023 1.56259C58.5405 1.56259 58.0378 1.81062 57.6944 2.30668C57.351 2.80274 57.1762 3.53753 57.17 4.51415V5.11562C57.17 6.10154 57.3573 6.84563 57.735 7.351C58.1096 7.85326 58.6622 8.10749 59.3865 8.10749C60.1139 8.10749 60.6353 7.95247 60.9474 7.64243V6.02093H59.1805V4.59476H62.8893V8.34621H62.883Z" fill="#39393A"/>
<path d="M82.1419 5.04724C82.1419 5.97425 81.9765 6.78345 81.6487 7.48104C81.3209 8.17862 80.8526 8.71499 80.2438 9.09634C79.6319 9.47458 78.9326 9.6668 78.1428 9.6668C77.3623 9.6668 76.6661 9.47768 76.0511 9.10564C75.4392 8.73049 74.9647 8.19412 74.6275 7.49964C74.2935 6.80515 74.1218 6.00526 74.1187 5.09995V4.63489C74.1187 3.70788 74.2841 2.89558 74.6182 2.1887C74.9522 1.48491 75.4267 0.945442 76.0386 0.567196C76.6505 0.19205 77.3436 0.00292969 78.1334 0.00292969C78.9201 0.00292969 79.6163 0.19205 80.2282 0.567196C80.8401 0.942342 81.3146 1.48491 81.6487 2.1887C81.9796 2.89248 82.1482 3.70478 82.1482 4.62559V5.04724H82.1419ZM80.1751 4.61939C80.1751 3.63347 79.9972 2.88318 79.6444 2.37162C79.2916 1.86006 78.7828 1.60272 78.1303 1.60272C77.4778 1.60272 76.9752 1.85386 76.6224 2.36232C76.2696 2.86768 76.0886 3.60867 76.0823 4.58839V5.04724C76.0823 6.00836 76.2603 6.75245 76.613 7.28261C76.9658 7.81278 77.4778 8.07631 78.1397 8.07631C78.7921 8.07631 79.2916 7.82208 79.6413 7.31052C79.9909 6.80205 80.1689 6.05796 80.172 5.08134V4.61939H80.1751Z" fill="#39393A"/>
<path d="M96.4501 5.76359L95.4386 6.84872V9.53675H93.4968V0.133301H95.4386V4.39632L96.294 3.22748L98.6948 0.133301H101.083L97.7364 4.31261L101.183 9.53675H98.8727L96.4501 5.76359Z" fill="#39393A"/>
<path d="M119 0.130052V6.32461C119 7.35394 118.678 8.16934 118.032 8.76461C117.386 9.36298 116.506 9.66372 115.388 9.66372C114.286 9.66372 113.412 9.37228 112.766 8.79251C112.116 8.20964 111.788 7.41284 111.776 6.39592V0.130052H113.721V6.33701C113.721 6.95089 113.868 7.40044 114.164 7.68257C114.461 7.96471 114.867 8.10423 115.391 8.10423C116.484 8.10423 117.036 7.53066 117.055 6.38662V0.126953H119V0.130052Z" fill="#39393A"/>
<path d="M3.68616 21.3802V16.5405H6.02446C6.72376 16.5405 7.23887 16.6893 7.58228 16.9839C7.92257 17.2784 8.09427 17.6784 8.09427 18.1744C8.09427 18.4318 8.05369 18.6705 7.97564 18.8813C7.89447 19.0921 7.77272 19.272 7.60726 19.4177C7.4418 19.5665 7.22951 19.6812 6.97976 19.7587C6.72688 19.8362 6.42718 19.8765 6.07753 19.8765H5.2752V21.3833H3.68616V21.3802ZM5.94017 18.7418C6.1306 18.7418 6.28357 18.7015 6.40221 18.6178C6.52084 18.5341 6.58015 18.3883 6.58015 18.1775C6.58015 18.0659 6.55206 17.976 6.49586 17.9109C6.43967 17.8427 6.36787 17.7931 6.28045 17.7559C6.19616 17.7218 6.1025 17.697 6.00573 17.6846C5.90582 17.6753 5.81529 17.6691 5.72788 17.6691H5.2752V18.7449H5.94017V18.7418Z" fill="#39393A"/>
<path d="M15.2289 19.6904V21.3771H13.6367V16.5374H15.9282C16.334 16.5374 16.6712 16.5653 16.9459 16.6211C17.2175 16.6769 17.4392 16.7606 17.6109 16.8722C17.7795 16.9838 17.8981 17.1264 17.9699 17.3032C18.0417 17.4768 18.0792 17.6814 18.0792 17.9139C18.0792 18.193 18.0136 18.441 17.8825 18.658C17.7514 18.875 17.5453 19.0208 17.2612 19.0983C17.3892 19.1479 17.5016 19.1944 17.6046 19.244C17.7077 19.2905 17.7951 19.3587 17.8638 19.4455C17.9356 19.5354 17.9886 19.6501 18.0261 19.799C18.0636 19.9447 18.0823 20.14 18.0823 20.3849C18.0823 20.54 18.0823 20.6733 18.0823 20.7818C18.0823 20.8872 18.0885 20.9771 18.0979 21.0453C18.1073 21.1104 18.1198 21.16 18.1447 21.1879C18.1666 21.2189 18.2041 21.2313 18.254 21.2313V21.3771H16.6431C16.6213 21.3244 16.6025 21.222 16.5838 21.0763C16.5682 20.9275 16.5619 20.7477 16.5619 20.5307C16.5619 20.3756 16.5526 20.2423 16.5338 20.1338C16.5151 20.0284 16.4776 19.9416 16.4152 19.8765C16.3559 19.8114 16.2685 19.7649 16.1561 19.737C16.0437 19.706 15.8939 19.6935 15.7128 19.6935H15.2289V19.6904ZM15.2289 18.6301H15.8564C16.103 18.6301 16.2903 18.596 16.4183 18.5278C16.5463 18.4596 16.6119 18.3418 16.6119 18.1713C16.6119 18.0007 16.5526 17.8736 16.4339 17.7899C16.3153 17.7062 16.1623 17.6659 15.9719 17.6659H15.232V18.6301H15.2289Z" fill="#39393A"/>
<path d="M26.335 16.4102C26.7658 16.4102 27.1404 16.4815 27.462 16.6241C27.7836 16.7667 28.0489 16.9558 28.2581 17.1915C28.4673 17.4271 28.6233 17.6968 28.7264 17.9975C28.8294 18.3014 28.8825 18.6114 28.8825 18.9277C28.8825 19.34 28.8169 19.7089 28.6858 20.0283C28.5547 20.3476 28.3767 20.6174 28.1457 20.8344C27.9178 21.0514 27.6462 21.2157 27.334 21.3336C27.0249 21.4483 26.6909 21.5041 26.3319 21.5041C25.951 21.5041 25.6014 21.4483 25.2892 21.3336C24.977 21.2188 24.7085 21.0514 24.4868 20.8282C24.2652 20.6081 24.0935 20.3352 23.9717 20.0159C23.85 19.6966 23.7906 19.3276 23.7906 18.9184C23.7906 18.537 23.85 18.1929 23.9748 17.8859C24.0966 17.579 24.2714 17.3155 24.4931 17.0953C24.7147 16.8752 24.9832 16.7078 25.2954 16.59C25.6076 16.4691 25.9541 16.4102 26.335 16.4102ZM26.3194 17.5914C26.1383 17.5914 25.9885 17.6348 25.8667 17.7154C25.745 17.7991 25.6482 17.9045 25.5764 18.0317C25.5046 18.1588 25.4546 18.3014 25.4265 18.4626C25.3953 18.6207 25.3828 18.7757 25.3828 18.9277C25.3828 19.0858 25.3953 19.2439 25.4234 19.4113C25.4484 19.5756 25.4983 19.7245 25.5701 19.8578C25.6419 19.9911 25.7418 20.1027 25.8636 20.1895C25.9853 20.2763 26.1446 20.3197 26.3319 20.3197C26.5005 20.3197 26.6472 20.2856 26.7689 20.2143C26.8907 20.1461 26.9875 20.0469 27.0655 19.9229C27.1404 19.7958 27.1966 19.65 27.2341 19.4826C27.2684 19.3152 27.2872 19.1292 27.2872 18.9277C27.2872 18.7633 27.2684 18.599 27.2341 18.4378C27.1998 18.2766 27.1404 18.134 27.0655 18.0068C26.9875 17.8766 26.8876 17.7774 26.7627 17.6999C26.6441 17.6255 26.4942 17.5883 26.3194 17.5914Z" fill="#39393A"/>
<path d="M34.7001 21.3802V16.5405H38.4744V17.6691H36.2891V18.5496H38.028V19.6781H36.2891V21.3802H34.7001Z" fill="#39393A"/>
<path d="M44.2682 21.3802V16.5405H48.2268V17.6691H45.8604V18.3636H47.8615V19.4921H45.8604V20.2517H48.3204V21.3802H44.2682Z" fill="#39393A"/>
<path d="M56.6793 17.945C56.6668 17.8613 56.6387 17.79 56.5981 17.7404C56.5575 17.6877 56.5076 17.6474 56.4514 17.6164C56.339 17.5575 56.2016 17.5296 56.0424 17.5296C55.8676 17.5296 55.7396 17.5544 55.6584 17.6009C55.5773 17.6474 55.5367 17.7156 55.5367 17.8055C55.5367 17.8954 55.5773 17.9698 55.6584 18.0256C55.7396 18.0845 55.8457 18.1341 55.9769 18.1806C56.108 18.2271 56.2547 18.2675 56.4202 18.3078C56.5856 18.345 56.7573 18.3884 56.9322 18.438C57.107 18.4876 57.2787 18.5465 57.4473 18.6178C57.6127 18.686 57.7626 18.7759 57.8906 18.8875C58.0217 18.996 58.1247 19.1294 58.2059 19.2844C58.2871 19.4394 58.3277 19.6254 58.3277 19.8455C58.3277 20.1277 58.2715 20.3726 58.1591 20.5834C58.0467 20.7912 57.8906 20.9648 57.6908 21.1012C57.4879 21.2376 57.2506 21.3399 56.9728 21.4112C56.6949 21.4794 56.389 21.5135 56.0549 21.5135C55.7365 21.5135 55.4461 21.4701 55.187 21.3833C54.9279 21.2965 54.7031 21.1787 54.5158 21.0299C54.3316 20.8842 54.1849 20.7105 54.0756 20.5152C53.9726 20.3199 53.9133 20.1122 53.9039 19.8921H55.4274C55.4586 20.0626 55.546 20.1897 55.6897 20.2734C55.7521 20.3137 55.8239 20.3447 55.9051 20.3633C55.9862 20.385 56.0643 20.3943 56.1392 20.3943C56.3421 20.3943 56.5045 20.3633 56.62 20.3013C56.7386 20.2424 56.7979 20.1525 56.7979 20.0347C56.7979 19.9138 56.7292 19.8207 56.595 19.7556C56.4545 19.6905 56.2859 19.6316 56.0768 19.5789C55.8707 19.5262 55.6459 19.4735 55.4024 19.4115C55.1589 19.3495 54.9342 19.2658 54.7281 19.1511C54.5221 19.0394 54.3472 18.8875 54.213 18.7015C54.0756 18.5124 54.007 18.2644 54.007 17.9543C54.007 17.7001 54.06 17.4738 54.1662 17.2784C54.2692 17.0831 54.4159 16.9219 54.6032 16.7948C54.7905 16.6677 55.0122 16.5715 55.2682 16.5064C55.5242 16.4413 55.8052 16.4072 56.1111 16.4072C56.4483 16.4072 56.7417 16.4475 56.9884 16.5281C57.235 16.6088 57.4442 16.7173 57.6127 16.8568C57.7813 16.9963 57.9124 17.1575 58.0061 17.3435C58.0998 17.5296 58.1622 17.728 58.1872 17.9388H56.6793V17.945Z" fill="#39393A"/>
<path d="M66.604 17.945C66.5915 17.8613 66.5635 17.79 66.5229 17.7404C66.4823 17.6877 66.4323 17.6474 66.373 17.6164C66.2638 17.5575 66.1264 17.5296 65.964 17.5296C65.7892 17.5296 65.6612 17.5544 65.5801 17.6009C65.4989 17.6474 65.4583 17.7156 65.4583 17.8055C65.4583 17.8954 65.4989 17.9698 65.5801 18.0256C65.6612 18.0845 65.7674 18.1341 65.8954 18.1806C66.0265 18.2271 66.1732 18.2675 66.3418 18.3078C66.5073 18.345 66.6758 18.3884 66.8538 18.438C67.0286 18.4876 67.1972 18.5465 67.3658 18.6178C67.5312 18.686 67.6811 18.7759 67.8122 18.8875C67.9402 18.996 68.0463 19.1294 68.1275 19.2844C68.2087 19.4394 68.2493 19.6254 68.2493 19.8455C68.2493 20.1277 68.1931 20.3726 68.0807 20.5834C67.9714 20.7912 67.8122 20.9648 67.6124 21.1012C67.4126 21.2376 67.1722 21.3399 66.8944 21.4112C66.6165 21.4794 66.3075 21.5135 65.9765 21.5135C65.6581 21.5135 65.3646 21.4701 65.1055 21.3833C64.8464 21.2965 64.6216 21.1787 64.4343 21.0299C64.2501 20.8842 64.1034 20.7105 63.9973 20.5152C63.8911 20.3199 63.8349 20.1122 63.8256 19.8921H65.349C65.3803 20.0626 65.4677 20.1897 65.6144 20.2734C65.6768 20.3137 65.7486 20.3447 65.8298 20.3633C65.911 20.385 65.989 20.3943 66.0671 20.3943C66.27 20.3943 66.4292 20.3633 66.5478 20.3013C66.6665 20.2424 66.7258 20.1525 66.7258 20.0347C66.7258 19.9138 66.6571 19.8207 66.5197 19.7556C66.3824 19.6905 66.2107 19.6316 66.0046 19.5789C65.7986 19.5262 65.5738 19.4735 65.3303 19.4115C65.0868 19.3495 64.862 19.2658 64.656 19.1511C64.4499 19.0394 64.2751 18.8875 64.1377 18.7015C64.0035 18.5124 63.9317 18.2644 63.9317 17.9543C63.9317 17.7001 63.9848 17.4738 64.0909 17.2784C64.1971 17.0831 64.3438 16.9219 64.5311 16.7948C64.7153 16.6677 64.937 16.5715 65.1961 16.5064C65.4521 16.4413 65.7299 16.4072 66.039 16.4072C66.373 16.4072 66.6665 16.4475 66.9162 16.5281C67.1629 16.6088 67.372 16.7173 67.5406 16.8568C67.7092 16.9963 67.8403 17.1575 67.9371 17.3435C68.0307 17.5296 68.0901 17.728 68.1182 17.9388H66.604V17.945Z" fill="#39393A"/>
<path d="M74.0376 21.3802V16.5405H75.6297V21.3802H74.0376Z" fill="#39393A"/>
<path d="M84.0101 16.4102C84.4409 16.4102 84.8186 16.4815 85.1402 16.6241C85.4618 16.7667 85.7271 16.9558 85.9363 17.1915C86.1423 17.4271 86.3015 17.6968 86.4046 17.9975C86.5076 18.3014 86.5607 18.6114 86.5607 18.9277C86.5607 19.34 86.4951 19.7089 86.3671 20.0283C86.236 20.3476 86.058 20.6174 85.827 20.8344C85.5991 21.0514 85.3306 21.2157 85.0184 21.3336C84.7094 21.4483 84.3722 21.5041 84.0132 21.5041C83.6323 21.5041 83.2827 21.4483 82.9736 21.3336C82.6583 21.2188 82.3929 21.0514 82.1713 20.8282C81.9496 20.6081 81.7779 20.3352 81.6562 20.0159C81.5344 19.6966 81.4751 19.3276 81.4751 18.9184C81.4751 18.537 81.5375 18.1929 81.6593 17.8859C81.7842 17.579 81.9559 17.3155 82.1806 17.0953C82.4023 16.8752 82.6708 16.7078 82.983 16.59C83.2889 16.4691 83.6323 16.4102 84.0101 16.4102ZM83.9976 17.5914C83.8165 17.5914 83.6667 17.6348 83.5449 17.7154C83.4232 17.7991 83.3264 17.9045 83.2546 18.0317C83.1828 18.1588 83.1328 18.3014 83.1016 18.4626C83.0704 18.6207 83.0579 18.7757 83.0579 18.9277C83.0579 19.0858 83.0735 19.2439 83.0985 19.4113C83.1266 19.5756 83.1765 19.7245 83.2452 19.8578C83.317 19.9911 83.4138 20.1027 83.5387 20.1895C83.6635 20.2763 83.8196 20.3197 84.007 20.3197C84.1755 20.3197 84.3223 20.2856 84.444 20.2143C84.5658 20.1461 84.6657 20.0469 84.7406 19.9229C84.8186 19.7958 84.8717 19.65 84.9092 19.4826C84.9466 19.3152 84.9654 19.1292 84.9654 18.9277C84.9654 18.7633 84.9466 18.599 84.9092 18.4378C84.8748 18.2766 84.8186 18.134 84.7406 18.0068C84.6626 17.8766 84.5626 17.7774 84.4378 17.6999C84.3223 17.6255 84.1724 17.5883 83.9976 17.5914Z" fill="#39393A"/>
<path d="M95.5675 19.182L95.5082 18.0783V16.5405H97.0317V21.3802H95.5425L93.8099 18.7449L93.8692 19.8486V21.3833H92.3457V16.5436H93.8349L95.5675 19.182Z" fill="#39393A"/>
<path d="M102.626 21.3802L104.364 16.5405H105.982L107.721 21.3802H106.135L105.947 20.7416H104.361L104.18 21.3802H102.626ZM105.161 17.9977L104.667 19.7339H105.669L105.161 17.9977Z" fill="#39393A"/>
<path d="M113.365 21.3802V16.5405H114.955V20.2517H117.14V21.3802H113.365Z" fill="#39393A"/>
</svg>
