<svg xmlns="http://www.w3.org/2000/svg" viewBox="0 0 57.18 50.42"><g id="レイヤー_2" data-name="レイヤー 2"><g id="レイヤー_3" data-name="レイヤー 3"><path d="M11.17,49.54V2.43C8.89,5.15,2.21,8.75,0,9.33V7.86A35.53,35.53,0,0,0,11.47.37h1.17V49.54Z"/><path d="M57.18,25c0,11.25-2.79,25.43-16,25.43-12.57,0-16-13.74-16-25C25.21,14,28.52,0,41.53,0,53.65,0,57.18,13.67,57.18,25Zm-30.43.51c0,10.08,3,23.6,14.56,23.6C53.07,49.1,55.64,35.79,55.64,25c0-9.63-2.79-23.67-14.19-23.67C29.77,1.32,26.75,14.7,26.75,25.5Z"/></g></g></svg>