<svg xmlns="http://www.w3.org/2000/svg" viewBox="0 0 31.53 50.42"><g id="レイヤー_2" data-name="レイヤー 2"><g id="レイヤー_3" data-name="レイヤー 3"><path d="M28.52,9.92C27,5,23.23,1.32,16.83,1.32,4.85,1.32,1.4,13.6,1.4,27.86c1.76-5.66,7-10.07,15-10.07,9.48,0,15.14,7.2,15.14,16,0,11.1-7.13,16.61-15.21,16.61C6.17,50.42,0,43.73,0,26.75,0,13.75,3.6,0,16.83,0,25.5,0,29.11,5.88,30,9.92Zm1.54,24c0-7.93-4.85-14.77-13.74-14.77C6,19.11,1.91,26.53,1.91,31.53c0,6.25,2.5,17.57,14.48,17.57C23.74,49.1,30.06,43.66,30.06,33.88Z"/></g></g></svg>