<svg xmlns="http://www.w3.org/2000/svg" viewBox="0 0 30.87 50.42"><g id="レイヤー_2" data-name="レイヤー 2"><g id="レイヤー_3" data-name="レイヤー 3"><path d="M0,36.38c0-7.86,5.29-12.05,10.8-13.3C5,21.68,2,17.42,2,12,2,4.7,7.57,0,15.8,0,23.37,0,29,4.48,29,12.13a11,11,0,0,1-8.89,11,13.13,13.13,0,0,1,10.8,13.31c0,7.86-6.25,14-15.58,14C6.84,50.42,0,44.69,0,36.38Zm29.4.15c0-7.57-5.51-12.72-13.74-12.72-10.15,0-14.12,6-14.12,12.5,0,7.35,5.88,12.79,13.75,12.79S29.4,44.17,29.4,36.53ZM3.53,11.91c0,6.1,3.75,10.58,12.2,10.58,6.91,0,11.69-3.75,11.69-10.29,0-6.25-4-10.88-11.84-10.88C8.23,1.32,3.53,5.44,3.53,11.91Z"/></g></g></svg>