<svg xmlns="http://www.w3.org/2000/svg" viewBox="0 0 30.43 50.42"><g id="レイヤー_2" data-name="レイヤー 2"><g id="レイヤー_3" data-name="レイヤー 3"><path d="M2.28,40.35c2,5.81,6.17,8.75,11.91,8.75C26.9,49.1,29,34.62,29,21c-2.05,6.4-6.83,9.7-14.33,9.7C5.37,30.72,0,24.33,0,15.66,0,6.76,5.59,0,14.77,0,26.09,0,30.43,9.78,30.43,21.76c0,16.83-3.75,28.66-16.39,28.66C6.54,50.42,2.35,46,.81,40.35ZM1.54,15.66c0,8.08,5.15,13.74,13.16,13.74,9.26,0,13.67-5.66,13.67-13.23,0-1.76-1.32-14.85-13.6-14.85C7.35,1.32,1.54,6.17,1.54,15.66Z"/></g></g></svg>