<svg xmlns="http://www.w3.org/2000/svg" viewBox="0 0 64.96 39.15"><g id="レイヤー_2" data-name="レイヤー 2"><g id="レイヤー_3" data-name="レイヤー 3"><path d="M28.28,1.45q0,.33-8.15,12.93-6.52,10.1-9,14.88a44.76,44.76,0,0,0-3.75,9.68,10.65,10.65,0,0,0-2.23-.29,32.78,32.78,0,0,0-3.87.43Q3.69,31.94,16.15,16.9A157.46,157.46,0,0,0,26.31,3.73,120.86,120.86,0,0,1,7.57,22C3.53,25,1.1,26.58.29,26.58c-.19,0-.29-.08-.29-.22s.14-.31.43-.43Q9.55,21.81,26.88,2.55L27.35,2c.45-.47.71-.71.79-.71S28.28,1.37,28.28,1.45Z"/><path d="M65,10.32q0,8.22-8.21,17.52-10,11.31-18.51,11.31a9.06,9.06,0,0,1-7.07-3.07,11.41,11.41,0,0,1-2.75-7.89q0-9.64,11.85-19.62Q50.52,0,56.61,0a7.37,7.37,0,0,1,6.07,2.83A11.58,11.58,0,0,1,65,10.32ZM62.34,6.37C62.34,2.46,60.45.5,56.69.5Q52.06.5,46,6A49,49,0,0,0,36.07,18.4Q31.77,26,31.76,31.89q0,6.77,6.41,6.76,7.89,0,15.85-11a49.68,49.68,0,0,0,6-11A28.6,28.6,0,0,0,62.34,6.37Z"/></g></g></svg>