<svg xmlns="http://www.w3.org/2000/svg" viewBox="0 0 40.48 40.12"><g id="レイヤー_2" data-name="レイヤー 2"><g id="レイヤー_3" data-name="レイヤー 3"><path d="M40.48,8.06a11.86,11.86,0,0,1-4.09,8.83,29,29,0,0,1-6.06,4.44Q27.2,23,18,26.66,6.53,31.25,2.19,36.53a11.09,11.09,0,0,1,7-2.51,28.38,28.38,0,0,1,7.94,1.55,23.82,23.82,0,0,0,6.46,1.32,8.08,8.08,0,0,0,5.66-2.47,12.62,12.62,0,0,0,3.53-6.28c.08-.29.21-.43.4-.43a.2.2,0,0,1,.14.14q0,2-2.44,5.45-4.48,6.26-11.17,6.25a28.3,28.3,0,0,1-7.36-1.47,36.86,36.86,0,0,0-7.43-1.76q-3.73,0-4.13,3c-.05.55-.22.82-.5.82S0,40,0,39.84q0-1.7,2.87-4.63A28,28,0,0,1,7.9,31c1.81-1.1,5.12-2.77,9.9-5a45.25,45.25,0,0,0,14.12-9.74Q37,10.76,37,5.35a4.34,4.34,0,0,0-1.67-3.59A7,7,0,0,0,30.86.43q-6.32,0-13.67,6.48T9.83,19Q9.83,23,14.7,23q3.87,0,8.63-3.78A20.32,20.32,0,0,0,29.84,11c.07-.24.18-.36.32-.36s.22.07.22.21q0,1.55-3.09,5.21a23.54,23.54,0,0,1-6.21,5.24,12.81,12.81,0,0,1-6.28,2,6,6,0,0,1-4.44-1.65,5.86,5.86,0,0,1-1.67-4.38q0-6.7,8.86-12.56Q24.8,0,31,0a10.18,10.18,0,0,1,6.83,2.24A7.26,7.26,0,0,1,40.48,8.06Z"/></g></g></svg>