<svg xmlns="http://www.w3.org/2000/svg" viewBox="0 0 36.96 39.73"><g id="レイヤー_2" data-name="レイヤー 2"><g id="レイヤー_3" data-name="レイヤー 3"><path d="M37,6.81q0,8.51-14.78,11.08,8.68,2,8.68,8.84,0,5.16-5.91,9.08a24.27,24.27,0,0,1-13.7,3.92,15,15,0,0,1-8.09-2A5.82,5.82,0,0,1,0,32.69a6.61,6.61,0,0,1,3.14-5.45A12.61,12.61,0,0,1,10.73,25c2.25,0,3.37.14,3.37.43a.19.19,0,0,1-.21.21H13.6a14.66,14.66,0,0,0-2.22-.21,10.09,10.09,0,0,0-6.63,2.24,6.88,6.88,0,0,0-2.7,5.48,5.28,5.28,0,0,0,2.14,4.34,8.65,8.65,0,0,0,5.52,1.68,18.21,18.21,0,0,0,12.06-4.67q5.51-4.66,5.51-10.27c0-3.09-1.9-5.12-5.68-6.1a35.07,35.07,0,0,1-5.06.46c-1.24,0-1.86-.15-1.86-.46,0-.48.88-.72,2.65-.72a26.65,26.65,0,0,1,4.27.36,20.66,20.66,0,0,0,8.69-5.27A10.8,10.8,0,0,0,33.52,5q0-4.54-5.81-4.55a17.66,17.66,0,0,0-10,3.45q-5,3.47-5,7c0,2.14,1.38,3.22,4.15,3.22a10.74,10.74,0,0,0,5.59-2,16.16,16.16,0,0,0,4.91-4.7c.12-.24.26-.36.43-.36s.14.08.14.15c0,.26-.45.89-1.36,1.89a21.42,21.42,0,0,1-2.55,2.43,12,12,0,0,1-7.31,3,4.84,4.84,0,0,1-3.45-1.24,4.12,4.12,0,0,1-1.34-3.17q0-3.61,5.1-6.85A19.87,19.87,0,0,1,27.78,0a11,11,0,0,1,6.69,1.85A5.86,5.86,0,0,1,37,6.81Z"/></g></g></svg>