<svg xmlns="http://www.w3.org/2000/svg" viewBox="0 0 53.98 43.14"><g id="レイヤー_2" data-name="レイヤー 2"><g id="レイヤー_3" data-name="レイヤー 3"><path d="M54,1.11c0,.19-.11.29-.33.29a1.43,1.43,0,0,1-.36-.07A9.18,9.18,0,0,0,50.06.72q-9.33,0-24,15.14-7.17,7.42-10.57,10.28a44,44,0,0,1-7.88,5.23,46.58,46.58,0,0,1,11.13-1.08c1.7,0,3.12.05,4.24.14q2-3,8.55-12A90.71,90.71,0,0,0,38.63,7.64c.12-.28.27-.43.43-.43s.15.08.15.15a.63.63,0,0,1-.07.21l-.36.72q-.44.86-5.18,9.33-4.56,8.25-6.82,13c1.46.09,2.82.14,4.09.14A10.39,10.39,0,0,0,37,29.14a5,5,0,0,0,2.35-4.23,4.91,4.91,0,0,0-.5-2.05.74.74,0,0,1-.07-.36c0-.17.07-.25.22-.25.52,0,.78.89.78,2.66q0,7.2-13.74,7.21a46.53,46.53,0,0,0-3.8,11,8.55,8.55,0,0,0-2.66-.43,16.44,16.44,0,0,0-3.59.43,49.7,49.7,0,0,1,6-11c-.53,0-1.81-.12-3.84-.29q-4.25-.46-6.25-.46a33.13,33.13,0,0,0-4.41.32Q3.16,34.41.61,34.4C.2,34.4,0,34.28,0,34q0-1.23,6.93-2.67a55.61,55.61,0,0,0,8.25-5.78q3.12-2.65,10.55-10.3Q40.62,0,50.06,0a9.68,9.68,0,0,1,2.62.36C53.55.6,54,.85,54,1.11Z"/></g></g></svg>