<svg xmlns="http://www.w3.org/2000/svg" viewBox="0 0 39.28 41.06"><g id="レイヤー_2" data-name="レイヤー 2"><g id="レイヤー_3" data-name="レイヤー 3"><path d="M39.28.93a5.14,5.14,0,0,1-2.06,4A7.12,7.12,0,0,1,32.5,6.67a12.43,12.43,0,0,1-4.27-.82,17.76,17.76,0,0,0-5.06-1.22c-1.39,0-2.4.83-3,2.47A41.31,41.31,0,0,1,14.88,17a14,14,0,0,1,6-1.39A12,12,0,0,1,29,18.39a8.63,8.63,0,0,1,3.23,6.88q0,6.06-6.76,10.92a25.47,25.47,0,0,1-15.27,4.87,12.34,12.34,0,0,1-7.33-2A6.21,6.21,0,0,1,0,33.8q0-3.7,3.66-6.2a15.72,15.72,0,0,1,9-2.5c2.06,0,3.09.15,3.09.43a.18.18,0,0,1-.21.15c-.29,0-.72,0-1.28-.07s-1-.08-1.31-.08A12.13,12.13,0,0,0,5.13,28,7.82,7.82,0,0,0,2,34.37a5.54,5.54,0,0,0,2,4.53,8.41,8.41,0,0,0,5.5,1.65q6.56,0,12.77-5.49t6.21-11.27a6.93,6.93,0,0,0-2.29-5.45,8.91,8.91,0,0,0-6.17-2.05,16.35,16.35,0,0,0-5.67,1.18Q10.64,22.3,9.21,22.3c-.29,0-.44-.12-.44-.35,0-1,1.76-2.45,5.28-4.49Q20.37,9,20.37,2.94a4.28,4.28,0,0,0-.08-1,.88.88,0,0,1-.07-.36c0-.31.15-.46.43-.46s.47.39.47,1.18a13.12,13.12,0,0,1-.47,3Q22.71,1.76,26,1.76q1.29,0,6.89,1.9a10.6,10.6,0,0,0,3,.65,2.72,2.72,0,0,0,2-.81,2.55,2.55,0,0,0,.84-1.89,2,2,0,0,0-.14-.68,1.82,1.82,0,0,1-.14-.5c0-.29.12-.43.37-.43S39.28.31,39.28.93Z"/></g></g></svg>