<svg xmlns="http://www.w3.org/2000/svg" viewBox="0 0 35.85 43.08"><g id="レイヤー_2" data-name="レイヤー 2"><g id="レイヤー_3" data-name="レイヤー 3"><path d="M35.85.39c0,.24-.24.36-.71.36h-.69q-6.38,0-15.79,9.13a62,62,0,0,0-14,19.78A33.44,33.44,0,0,1,13,20.28q4.78-3.57,9-3.57a8,8,0,0,1,5.83,2.2,7.67,7.67,0,0,1,2.24,5.71q0,6.36-7,12.41t-14.34,6a8.29,8.29,0,0,1-6.4-2.58,9.86,9.86,0,0,1-2.39-7Q0,27,5.35,19.92a59.61,59.61,0,0,1,15-13.5,52.29,52.29,0,0,1,8.33-4.5Q33.12,0,35.21,0C35.64,0,35.85.13,35.85.39ZM27,22q0-4.83-5.34-4.83-5.71,0-12.15,6.69T3.09,36.46A6.81,6.81,0,0,0,4.49,41a4.58,4.58,0,0,0,3.73,1.69q5.57,0,12.18-7.27T27,22Z"/></g></g></svg>