<svg xmlns="http://www.w3.org/2000/svg" viewBox="0 0 33.11 41.09"><g id="レイヤー_2" data-name="レイヤー 2"><g id="レイヤー_3" data-name="レイヤー 3"><path d="M33.11.61a9.91,9.91,0,0,1-1.76,4.56A26.47,26.47,0,0,1,28.51,9q-1.62,1.88-7.4,7.5Q6.68,30.66,6.1,41.09a15.44,15.44,0,0,0-3.3-.36,10.37,10.37,0,0,0-2.8.36A28.77,28.77,0,0,1,6.45,27.85q5.18-6.29,16.85-15.11Q29.58,8,31.56,3.84c-1.72,2.54-4.32,3.8-7.78,3.8A21.53,21.53,0,0,1,16.71,6,22.58,22.58,0,0,0,11,4.41,4.2,4.2,0,0,0,8.92,5l-.22.44C6.84,9.16,5.48,11,4.65,11a.38.38,0,0,1-.43-.43c0-1.2,1.4-3,4.2-5.57a6.85,6.85,0,0,0,.79-2.79A4.53,4.53,0,0,0,9,1V.9A.38.38,0,0,1,9.42.47c.31,0,.47.24.47.71a9,9,0,0,1-.83,3.31,9.19,9.19,0,0,1,5.82-2.34c1.14,0,3.55.61,7.21,1.83a16.15,16.15,0,0,0,5.06,1c3.32,0,5-1.18,5-3.55a4,4,0,0,0-.07-.64V.61c0-.41.16-.61.5-.61S33.11.2,33.11.61Z"/></g></g></svg>