<svg xmlns="http://www.w3.org/2000/svg" viewBox="0 0 38.44 40.12"><g id="レイヤー_2" data-name="レイヤー 2"><g id="レイヤー_3" data-name="レイヤー 3"><path d="M38.44,6q0,6.32-15.22,10.8A26.62,26.62,0,0,1,27.74,22a8.31,8.31,0,0,1,1.15,4.34q0,5.36-5.45,9.59a19.52,19.52,0,0,1-12.33,4.24,13.29,13.29,0,0,1-8-2.24A7,7,0,0,1,0,32c0-2.9,1.42-5.41,4.25-7.56S11.94,20,18.81,17.71c-2.4-2.34-3.59-4.54-3.59-6.6q0-4.2,4.65-7.65A16.82,16.82,0,0,1,30.16,0a9.7,9.7,0,0,1,5.89,1.74A5.13,5.13,0,0,1,38.44,6ZM25.19,28.59a10.11,10.11,0,0,0-1.93-5.82c-.39-.52-1.8-2.12-4.24-4.77Q2.81,23.92,2.8,33.22q0,6.47,8.24,6.47A15.63,15.63,0,0,0,21,36.4Q25.2,33.12,25.19,28.59ZM36,4.9a3.82,3.82,0,0,0-1.68-3.16A6.74,6.74,0,0,0,30.16.47a12.89,12.89,0,0,0-8,2.63q-3.49,2.64-3.49,6.07a7.06,7.06,0,0,0,1.47,4.06A42.74,42.74,0,0,0,23,16.53a27.53,27.53,0,0,0,9.5-5.21Q36,8.17,36,4.9Z"/></g></g></svg>