<svg xmlns="http://www.w3.org/2000/svg" viewBox="0 0 36.97 42.26"><g id="レイヤー_2" data-name="レイヤー 2"><g id="レイヤー_3" data-name="レイヤー 3"><path d="M37,9.64q0,6.09-5.5,13.17A57.76,57.76,0,0,1,16.54,35.87,52.17,52.17,0,0,1,7.7,40.39,21.26,21.26,0,0,1,.61,42.26c-.41,0-.61-.12-.61-.36s.3-.5.9-.5h.5q6.49,0,16.17-8.67A58.63,58.63,0,0,0,31.91,14a31.62,31.62,0,0,1-8.65,8.68q-5.15,3.44-9.44,3.44a7.39,7.39,0,0,1-5.51-2.09,7.64,7.64,0,0,1-2.06-5.61q0-6.39,7.35-12.14a33,33,0,0,1,7.75-4.56A19.31,19.31,0,0,1,28.53,0a7.73,7.73,0,0,1,6.08,2.66A10.14,10.14,0,0,1,37,9.64ZM33.88,6.53q0-6.1-5.28-6.1-5.52,0-12.43,7.36T9.26,21q0,4.62,4.92,4.62,3.22,0,7.71-2.65a30,30,0,0,0,7.75-6.53Q33.89,11.42,33.88,6.53Z"/></g></g></svg>