<svg xmlns="http://www.w3.org/2000/svg" width="42" height="33" viewBox="0 0 42 33" fill="none">
<path d="M1 12.0323L5.6344 13.0995L8.39763 25.8186C8.45855 26.0854 8.69353 26.2747 8.97203 26.2747H20.9344H22.0615C22.3226 26.2747 22.5532 26.1026 22.6272 25.853L25.0423 17.5658C25.0945 17.3894 25.0597 17.2 24.9466 17.0538C24.8334 16.9075 24.6637 16.8214 24.4766 16.8214H6.40462" stroke="#333333" stroke-width="2" stroke-linecap="round" stroke-linejoin="round"/>
<path d="M17.9883 30.6894C17.9883 29.5491 18.9239 28.624 20.077 28.624C21.2302 28.624 22.1658 29.5491 22.1658 30.6894C22.1658 31.8296 21.2302 32.7547 20.077 32.7547C18.9239 32.7547 17.9883 31.8296 17.9883 30.6894Z" fill="#333333"/>
<path d="M8.94531 30.6894C8.94531 29.5491 9.88089 28.624 11.0341 28.624C12.1872 28.624 13.1228 29.5491 13.1228 30.6894C13.1228 31.8296 12.1872 32.7547 11.0341 32.7547C9.88089 32.7547 8.94531 31.8296 8.94531 30.6894Z" fill="#333333"/>
<path d="M14.7344 13.6374C14.7344 6.65822 20.4567 1 27.5149 1C34.5731 1 40.2954 6.65822 40.2954 13.6374C40.2954 20.6166 34.5731 26.2748 27.5149 26.2748" stroke="#333333" stroke-width="2" stroke-linecap="round" stroke-linejoin="round"/>
<path d="M27.5156 6.43018V13.6374H34.7784" stroke="#333333" stroke-width="2" stroke-linecap="round" stroke-linejoin="round"/>
</svg>