<svg xmlns="http://www.w3.org/2000/svg" width="32" height="27" viewBox="0 0 32 27" fill="none">
<g clip-path="url(#clip0_89_421)">
<path d="M15.9982 27C15.8788 27 15.7594 26.9754 15.6473 26.9298C15.4881 26.8631 11.711 25.3009 7.88332 22.2958C2.72787 18.2481 0 13.5193 0 8.61852C0 3.71772 3.79152 0 8.45133 0C12.4816 0 14.8549 2.67507 15.9982 4.48654C17.1414 2.67507 19.5184 0 23.5451 0C28.2049 0 31.9964 3.86517 31.9964 8.61852C31.9964 13.3719 29.2685 18.2481 24.1131 22.2958C20.2854 25.3009 16.5083 26.8666 16.3491 26.9298C16.237 26.9754 16.1176 27 15.9982 27ZM8.45133 1.7553C4.79005 1.7553 1.80893 4.83409 1.80893 8.61852C1.80893 18.2937 13.7768 24.1529 15.9982 25.1604C18.2196 24.1529 30.1875 18.2797 30.1875 8.61852C30.1875 4.83409 27.2063 1.7553 23.5451 1.7553C21.5986 1.7553 19.891 2.56976 18.4692 4.1741C17.3585 5.42738 16.8484 6.71226 16.8412 6.72279C16.7073 7.06332 16.3744 7.288 15.9946 7.288C15.6183 7.288 15.2819 7.05981 15.1516 6.71928C15.072 6.51918 13.1473 1.75179 8.45133 1.75179V1.7553Z" fill="#333333"/>
</g>
<defs>
<clipPath id="clip0_89_421">
<rect width="32" height="27" fill="white"/>
</clipPath>
</defs>
</svg>