<svg width="49" height="48" viewBox="0 0 49 48" fill="none" xmlns="http://www.w3.org/2000/svg">
<ellipse cx="24.1049" cy="23.7005" rx="24.1049" ry="23.7005" fill="#39393A"/>
<path d="M15.0094 11.8506H32.9148C34.6212 11.8506 36.0062 13.1536 36.0062 15.0443V33.5424C36.0062 35.4331 34.6212 36.7361 32.9148 36.7361H15.0094C13.3029 36.7361 11.918 35.4331 11.918 33.5424V15.0443C11.918 13.1536 13.3029 11.8506 15.0094 11.8506ZM29.4524 14.61C28.8589 14.61 28.3642 15.121 28.3642 15.7342V18.4169C28.3642 19.0301 28.8589 19.5411 29.4524 19.5411H32.1728C32.7664 19.5411 33.261 19.0301 33.261 18.4169V15.7342C33.261 15.121 32.7664 14.61 32.1728 14.61H29.4524ZM33.2857 22.3771H31.1589C31.3567 23.0414 31.4804 23.7823 31.4804 24.5233C31.4804 28.6624 28.1169 32.0094 23.9868 32.0094C19.8567 32.0094 16.4932 28.6624 16.4932 24.5233C16.4932 23.7823 16.5922 23.067 16.8148 22.3771H14.6137V32.8781C14.6137 33.4146 15.0341 33.8745 15.5782 33.8745H32.346C32.8653 33.8745 33.3105 33.4402 33.3105 32.8781L33.2857 22.3771ZM23.9868 19.3878C21.3158 19.3878 19.1395 21.5595 19.1395 24.2422C19.1395 26.925 21.3158 29.0967 23.9868 29.0967C26.6578 29.0967 28.8341 26.925 28.8341 24.2422C28.8341 21.5595 26.6578 19.3878 23.9868 19.3878Z" fill="white"/>
</svg>
