<svg width="110" height="10" viewBox="0 0 110 10" fill="none" xmlns="http://www.w3.org/2000/svg">
<path d="M2.72999 5.63365L1.79498 6.69449V9.32235H0V0.129395H1.79498V4.29699L2.5857 3.15431L4.80489 0.129395H7.01254L3.91894 4.21515L7.102 9.32235H4.9665L2.72999 5.63365Z" fill="#39393A"/>
<path d="M19.9759 4.27128L21.7911 0.12793H23.7535L20.8936 5.98681V9.32089H19.0669V5.98681L16.207 0.12793H18.1752L19.9759 4.27128Z" fill="#39393A"/>
<path d="M40.7279 4.93433C40.7279 5.84059 40.575 6.63168 40.272 7.31365C39.969 7.99562 39.5332 8.51998 38.9676 8.89279C38.402 9.26257 37.7556 9.45049 37.0254 9.45049C36.304 9.45049 35.6604 9.2656 35.0948 8.90188C34.5263 8.53513 34.0877 8.01077 33.776 7.33183C33.4643 6.65289 33.3085 5.8709 33.3027 4.98586V4.53121C33.3027 3.62495 33.4586 2.83083 33.7673 2.13977C34.0761 1.45174 34.5119 0.924344 35.0775 0.554565C35.6431 0.187817 36.2896 0.00292969 37.0139 0.00292969C37.7411 0.00292969 38.3875 0.187817 38.9503 0.554565C39.5159 0.921313 39.9517 1.45174 40.2604 2.13977C40.5692 2.8278 40.7251 3.62191 40.7251 4.52211V4.93433H40.7279ZM38.907 4.51606C38.907 3.5522 38.7454 2.81871 38.4164 2.3186C38.0874 1.81849 37.6228 1.56691 37.0168 1.56691C36.4136 1.56691 35.949 1.81242 35.62 2.3095C35.2939 2.80355 35.1295 3.52795 35.1237 4.48574V4.93433C35.1237 5.87393 35.2853 6.60137 35.6143 7.11966C35.9433 7.63796 36.4108 7.89559 37.0254 7.89559C37.6286 7.89559 38.0903 7.64705 38.4135 7.14694C38.7367 6.64986 38.9012 5.92243 38.9041 4.96767V4.51606H38.907Z" fill="#39393A"/>
<path d="M58.1253 8.15964C57.8021 8.56882 57.3461 8.88404 56.7545 9.11137C56.163 9.33566 55.5108 9.4478 54.7922 9.4478C54.039 9.4478 53.3781 9.27504 52.8067 8.92648C52.2382 8.57791 51.7996 8.07477 51.4908 7.41402C51.182 6.75326 51.0233 5.97733 51.0146 5.08319V4.45881C51.0146 3.54043 51.1618 2.74631 51.4562 2.07344C51.7505 1.40359 52.1748 0.888323 52.7259 0.533699C53.28 0.179075 53.9264 0.000244141 54.6681 0.000244141C55.7012 0.000244141 56.5092 0.26091 57.0922 0.779208C57.6751 1.30054 58.0214 2.05525 58.1282 3.04941H56.3823C56.3015 2.52202 56.1254 2.14011 55.8513 1.89461C55.5771 1.6491 55.202 1.52786 54.7229 1.52786C54.1111 1.52786 53.6465 1.77034 53.3291 2.25529C53.0116 2.74025 52.85 3.45859 52.8443 4.41335V5.00136C52.8443 5.96521 53.0174 6.69264 53.3666 7.18669C53.7129 7.67771 54.2237 7.92625 54.8932 7.92625C55.5656 7.92625 56.0475 7.7747 56.3361 7.47161V5.8864H54.7027V4.49216H58.1311V8.15964H58.1253Z" fill="#39393A"/>
<path d="M75.9302 4.93457C75.9302 5.84083 75.7773 6.63192 75.4743 7.31389C75.1713 7.99586 74.7384 8.52022 74.1757 8.89303C73.61 9.26281 72.9636 9.45073 72.2335 9.45073C71.512 9.45073 70.8685 9.26584 70.3 8.90212C69.7344 8.53538 69.2957 8.01101 68.9841 7.33208C68.6753 6.65314 68.5166 5.87115 68.5137 4.9861V4.53146C68.5137 3.62519 68.6666 2.83108 68.9754 2.14001C69.2842 1.45198 69.7228 0.924589 70.2885 0.554809C70.8541 0.188061 71.4947 0.00317383 72.2248 0.00317383C72.9521 0.00317383 73.5956 0.188061 74.1612 0.554809C74.7268 0.921558 75.1655 1.45198 75.4743 2.14001C75.7802 2.82805 75.936 3.62216 75.936 4.52236V4.93457H75.9302ZM74.1122 4.5163C74.1122 3.55245 73.9477 2.81895 73.6216 2.31884C73.2955 1.81873 72.8251 1.56715 72.222 1.56715C71.6188 1.56715 71.1542 1.81267 70.8281 2.30975C70.502 2.8038 70.3346 3.5282 70.3289 4.48599V4.93457C70.3289 5.87417 70.4933 6.60161 70.8194 7.11991C71.1455 7.63821 71.6188 7.89584 72.2306 7.89584C72.8337 7.89584 73.2955 7.6473 73.6187 7.14719C73.9419 6.6501 74.1064 5.92267 74.1093 4.96791V4.5163H74.1122Z" fill="#39393A"/>
<path d="M89.1567 5.63365L88.2217 6.69449V9.32235H86.4268V0.129395H88.2217V4.29699L89.0125 3.15431L91.2317 0.129395H93.4393L90.3457 4.21515L93.5316 9.32235H91.3961L89.1567 5.63365Z" fill="#39393A"/>
<path d="M110 0.126564V6.18246C110 7.18875 109.703 7.98589 109.105 8.56784C108.508 9.15282 107.694 9.44683 106.661 9.44683C105.642 9.44683 104.834 9.16191 104.237 8.59512C103.637 8.0253 103.334 7.24634 103.322 6.25218V0.126564H105.12V6.19459C105.12 6.79472 105.256 7.23421 105.53 7.51003C105.804 7.78585 106.179 7.92224 106.664 7.92224C107.674 7.92224 108.185 7.36151 108.202 6.24308V0.123535H110V0.126564Z" fill="#39393A"/>
</svg>
