<svg width="49" height="48" viewBox="0 0 49 48" fill="none" xmlns="http://www.w3.org/2000/svg">
<ellipse cx="24.1049" cy="23.7005" rx="24.1049" ry="23.7005" fill="#39393A"/>
<path fill-rule="evenodd" clip-rule="evenodd" d="M24.077 14.1914C29.938 14.1914 34.6893 17.9322 34.6893 22.5466C34.6893 24.1585 34.1092 25.6634 33.105 26.9397C33.0553 27.0123 32.9903 27.0926 32.9085 27.1813L32.9023 27.1879C32.5592 27.5914 32.1729 27.9703 31.7482 28.32C28.8135 30.987 23.9831 34.1623 23.3455 33.6724C22.7913 33.2466 24.2584 31.1638 22.5658 30.8172C22.4477 30.8038 22.33 30.7895 22.2132 30.7733L22.211 30.7731C17.2399 30.0788 13.4648 26.6598 13.4648 22.5466C13.4647 17.9322 18.216 14.1914 24.077 14.1914Z" fill="white"/>
<path fill-rule="evenodd" clip-rule="evenodd" d="M17.9167 25.212H20.0571C20.3615 25.212 20.6105 24.967 20.6105 24.6677V24.6223C20.6105 24.323 20.3615 24.0781 20.0571 24.0781H18.5164V20.6316C18.5164 20.3322 18.2674 20.0874 17.9629 20.0874H17.9167C17.6123 20.0874 17.3633 20.3322 17.3633 20.6316V24.6676C17.3633 24.967 17.6123 25.212 17.9167 25.212ZM31.1793 22.6821V22.6367C31.1793 22.3373 30.9302 22.0925 30.6258 22.0925H29.0851V21.2309H30.6258C30.9302 21.2309 31.1793 20.986 31.1793 20.6867V20.6413C31.1793 20.3419 30.9302 20.0971 30.6258 20.0971H28.4854C28.181 20.0971 27.932 20.3419 27.932 20.6413V24.6773C27.932 24.9767 28.181 25.2216 28.4854 25.2216H30.6258C30.9302 25.2216 31.1793 24.9767 31.1793 24.6773V24.6319C31.1793 24.3326 30.9302 24.0878 30.6258 24.0878H29.0851V23.2261H30.6258C30.9302 23.2263 31.1793 22.9814 31.1793 22.6821ZM27.0632 25.0497L27.0633 25.0495C27.1658 24.948 27.2233 24.8108 27.2234 24.6678V20.6317C27.2234 20.3324 26.9744 20.0876 26.6698 20.0876H26.6237C26.3192 20.0876 26.0702 20.3324 26.0702 20.6317V23.0009L24.0697 20.3627C23.9742 20.1987 23.7942 20.0876 23.5892 20.0876H23.543C23.2385 20.0876 22.9894 20.3324 22.9894 20.6317V24.6678C22.9894 24.9671 23.2385 25.212 23.543 25.212H23.5892C23.8936 25.212 24.1426 24.9671 24.1426 24.6678V22.2542L26.1575 24.9601C26.1699 24.9791 26.1835 24.9973 26.1981 25.0146L26.1982 25.0148C26.2535 25.089 26.3293 25.1399 26.4136 25.171C26.4785 25.1973 26.5494 25.212 26.6236 25.212H26.6698C26.76 25.212 26.8488 25.1902 26.9284 25.1484C26.9837 25.1225 27.0303 25.0891 27.0632 25.0497ZM21.6107 25.212H21.6569C21.9613 25.212 22.2103 24.967 22.2103 24.6677V20.6317C22.2103 20.3323 21.9613 20.0875 21.6569 20.0875H21.6107C21.3063 20.0875 21.0572 20.3323 21.0572 20.6317V24.6677C21.0572 24.967 21.3063 25.212 21.6107 25.212Z" fill="#39393A"/>
</svg>
