<svg width="49" height="48" viewBox="0 0 49 48" fill="none" xmlns="http://www.w3.org/2000/svg">
<ellipse cx="24.1049" cy="23.7005" rx="24.1049" ry="23.7005" fill="#39393A"/>
<path d="M30.6948 23.536C30.5681 23.4846 30.4394 23.4352 30.309 23.3878C30.0819 19.8479 27.7957 17.8213 23.9568 17.8005C23.9394 17.8004 23.9221 17.8004 23.9048 17.8004C21.6086 17.8004 19.6989 18.6297 18.5236 20.1386L20.6348 21.3639C21.5129 20.2368 22.8909 19.9965 23.9058 19.9965C23.9175 19.9965 23.9293 19.9965 23.9409 19.9966C25.2049 20.0034 26.1587 20.3144 26.776 20.9207C27.2252 21.3622 27.5257 21.9722 27.6745 22.7421C26.5538 22.5809 25.3418 22.5314 24.0462 22.5942C20.3964 22.7721 18.05 24.5731 18.2076 27.0756C18.2875 28.345 19.035 29.437 20.3121 30.1504C21.392 30.7534 22.7827 31.0484 24.2281 30.9816C26.1369 30.8931 27.6344 30.2769 28.679 29.1502C29.4724 28.2947 29.9742 27.1859 30.1958 25.7888C31.1055 26.2533 31.7797 26.8645 32.152 27.5993C32.7851 28.8483 32.822 30.9008 30.8425 32.5742C29.1082 34.0401 27.0235 34.6743 23.8728 34.6938C20.3779 34.6719 17.7347 33.7237 16.0162 31.8753C14.407 30.1446 13.5753 27.6447 13.5443 24.445C13.5753 21.2453 14.407 18.7454 16.0162 17.0146C17.7347 15.1663 20.3778 14.2181 23.8728 14.1961C27.393 14.2182 30.0822 15.1711 31.8665 17.0283C32.7414 17.9391 33.4011 19.0844 33.8359 20.4199L36.31 19.8614C35.7829 18.2176 34.9535 16.8011 33.8249 15.6264C31.5374 13.2454 28.1919 12.0253 23.8814 12H23.8641C19.5624 12.0252 16.2543 13.2499 14.032 15.6401C12.0545 17.767 11.0344 20.7265 11.0001 24.4362L11 24.445L11.0001 24.4538C11.0344 28.1635 12.0545 31.123 14.032 33.25C16.2543 35.6401 19.5624 36.8649 23.8641 36.89H23.8814C27.7059 36.8676 30.4017 36.0204 32.6225 34.1432C35.5281 31.6872 35.4406 28.6088 34.483 26.7189C33.7959 25.3637 32.486 24.263 30.6948 23.536ZM24.0915 28.7887C22.4918 28.8649 20.8299 28.2574 20.748 26.9563C20.6873 25.9916 21.5595 24.9151 24.1896 24.7868C24.4908 24.7721 24.7864 24.7649 25.0768 24.7649C26.0321 24.7649 26.9258 24.8435 27.7384 24.9937C27.4353 28.196 25.6576 28.716 24.0915 28.7887Z" fill="white"/>
</svg>
