<svg width="49" height="48" viewBox="0 0 49 48" fill="none" xmlns="http://www.w3.org/2000/svg">
<ellipse cx="24.1049" cy="23.7005" rx="24.1049" ry="23.7005" fill="#39393A"/>
<path d="M34.3678 17.2707C33.6114 17.5915 32.7884 17.8224 31.9406 17.9123C32.8208 17.3982 33.4799 16.5859 33.7943 15.6279C32.9684 16.111 32.0636 16.4498 31.12 16.6291C30.7256 16.2146 30.2486 15.8844 29.7188 15.659C29.1889 15.4337 28.6175 15.318 28.0402 15.3193C25.7045 15.3193 23.826 17.1808 23.826 19.4652C23.826 19.786 23.8655 20.1068 23.9298 20.4154C20.4323 20.2356 17.3131 18.5928 15.2393 16.0775C14.8614 16.7121 14.6634 17.4346 14.6659 18.1699C14.6659 19.6086 15.4099 20.8772 16.5444 21.6233C15.8758 21.5974 15.2229 21.4167 14.6387 21.0959V21.1469C14.6387 23.1616 16.0871 24.8312 18.0175 25.2151C17.655 25.3077 17.2822 25.3551 16.9077 25.3561C16.6333 25.3561 16.3738 25.3294 16.1118 25.2929C16.6457 26.9357 18.2004 28.129 20.0517 28.1679C18.6033 29.2833 16.7891 29.9395 14.8191 29.9395C14.4657 29.9395 14.1394 29.9273 13.8008 29.8885C15.6694 31.0671 17.8865 31.7476 20.2742 31.7476C28.0254 31.7476 32.2668 25.4339 32.2668 19.9537C32.2668 19.7739 32.2668 19.594 32.2545 19.4142C33.0751 18.8236 33.7944 18.0921 34.3678 17.2707Z" fill="white"/>
</svg>
