<svg width="49" height="48" viewBox="0 0 49 48" fill="none" xmlns="http://www.w3.org/2000/svg">
<ellipse cx="24.1049" cy="23.7005" rx="24.1049" ry="23.7005" fill="#39393A"/>
<path d="M23.2923 34.3656C23.2898 34.3656 23.287 34.3656 23.2843 34.3656C22.3757 34.3595 14.3437 34.2877 12.068 33.6844C10.4777 33.2653 9.22224 32.0359 8.79358 30.4766C8.19814 28.2852 8.23604 24.0661 8.24018 23.7292C8.23627 23.3939 8.19791 19.1399 8.79174 16.9304C8.79243 16.9284 8.79289 16.9262 8.79358 16.9241C9.21742 15.3826 10.5011 14.1152 12.0641 13.695C12.068 13.6939 12.0722 13.693 12.0761 13.6918C14.326 13.1122 22.3739 13.0412 23.2843 13.0352H23.3006C24.2114 13.0412 32.2648 13.1131 34.5196 13.7173C36.1058 14.1353 37.3603 15.363 37.7901 16.9203C38.4079 19.1313 38.3507 23.3946 38.3444 23.7544C38.3488 24.1089 38.3849 28.2902 37.7929 30.4926C37.7924 30.4949 37.7917 30.4969 37.7913 30.4989C37.3624 32.0582 36.1072 33.2876 34.515 33.7071C34.5129 33.7078 34.5106 33.7082 34.5085 33.7089C32.2589 34.2884 24.2107 34.3593 23.3006 34.3656C23.2978 34.3656 23.2951 34.3656 23.2923 34.3656ZM11.0655 17.5218C10.5427 19.472 10.5921 23.6718 10.5925 23.7141V23.7445C10.5769 24.9093 10.6318 28.2823 11.0658 29.8799C11.2762 30.6449 11.8953 31.2509 12.6805 31.4578C14.3595 31.903 20.9014 32.0431 23.2923 32.0596C25.6895 32.0431 32.2409 31.9069 33.9076 31.4794C34.6902 31.2718 35.3073 30.6678 35.5191 29.9019C35.9535 28.2809 36.0079 24.9243 35.9921 23.767C35.9921 23.7549 35.9921 23.7427 35.9923 23.7306C36.0139 22.5519 35.9714 19.1394 35.5212 17.529C35.5207 17.5274 35.5202 17.5259 35.52 17.5243C35.3087 16.7559 34.6893 16.1499 33.9041 15.9429C32.2414 15.4973 25.689 15.3576 23.2923 15.3412C20.8968 15.3576 14.3517 15.4937 12.68 15.9206C11.9098 16.1301 11.2767 16.7577 11.0655 17.5218ZM36.6555 30.199H36.6562H36.6555ZM20.2942 28.3699V19.0306L28.5275 23.7004L20.2942 28.3699Z" fill="white"/>
</svg>
