<svg width="184" height="78" viewBox="0 0 184 78" fill="none" xmlns="http://www.w3.org/2000/svg">
<g clip-path="url(#clip0)">
<path d="M163.202 29.3642L167.174 25.3264L163.58 21.6736L159.239 26.0833C156.571 24.4558 153.46 23.5 150.125 23.5C140.317 23.5 132.333 31.6117 132.333 41.5833C132.333 51.555 140.317 59.6667 150.125 59.6667C159.933 59.6667 167.917 51.555 167.917 41.5833C167.915 37.0522 166.231 32.6887 163.202 29.3642ZM150.125 54.5C143.118 54.5 137.417 48.7056 137.417 41.5833C137.417 34.4611 143.118 28.6667 150.125 28.6667C157.132 28.6667 162.833 34.4611 162.833 41.5833C162.833 48.7056 157.132 54.5 150.125 54.5Z" fill="white"/>
<path d="M147.583 36.375C147.583 34.9713 148.721 33.8333 150.125 33.8333C151.529 33.8333 152.667 34.9713 152.667 36.375V41.625C152.667 43.0287 151.529 44.1667 150.125 44.1667C148.721 44.1667 147.583 43.0287 147.583 41.625V36.375ZM145.042 18.3333C145.042 16.9066 146.198 15.75 147.625 15.75H152.625C154.052 15.75 155.208 16.9066 155.208 18.3333C155.208 19.7601 154.052 20.9167 152.625 20.9167H147.625C146.198 20.9167 145.042 19.7601 145.042 18.3333ZM119.625 31.25C119.625 29.8233 120.782 28.6667 122.208 28.6667H127.208C128.635 28.6667 129.792 29.8233 129.792 31.25C129.792 32.6767 128.635 33.8333 127.208 33.8333H122.208C120.782 33.8333 119.625 32.6767 119.625 31.25ZM119.625 51.9167C119.625 50.4899 120.782 49.3333 122.208 49.3333H127.208C128.635 49.3333 129.792 50.4899 129.792 51.9167C129.792 53.3434 128.635 54.5 127.208 54.5H122.208C120.782 54.5 119.625 53.3434 119.625 51.9167ZM106.965 41.0623C107.212 39.8616 108.269 39 109.495 39H124.641C126.068 39 127.225 40.1566 127.225 41.5833C127.225 43.0101 126.068 44.1667 124.641 44.1667H109.495C107.859 44.1667 106.635 42.6649 106.965 41.0623Z" fill="white"/>
</g>
<circle cx="145" cy="39" r="34.5" stroke="white" stroke-width="9"/>
<path d="M108.679 39C108.679 71.0357 159.098 78 137.716 78C116.334 78 99 60.5391 99 39C99 17.4609 116.334 0 137.716 0C159.098 0 108.679 4.875 108.679 39Z" fill="white"/>
<rect x="95" width="54" height="6" rx="3" fill="white"/>
<rect x="77" y="72" width="72" height="6" rx="3" fill="white"/>
<rect x="20" y="59" width="98" height="6" rx="3" fill="white"/>
<rect y="34" width="101" height="6" rx="3" fill="white"/>
<rect x="23" y="22" width="84" height="6" rx="3" fill="white"/>
<rect x="78" y="9" width="37" height="6" rx="3" fill="white"/>
<rect x="76" y="47" width="30" height="6" rx="3" fill="white"/>
<rect x="74" y="65" width="47" height="7" rx="3.5" fill="#CB2323"/>
<rect x="57" y="40" width="47" height="7" rx="3.5" fill="#CB2323"/>
<rect x="60" y="28" width="47" height="6" rx="3" fill="#CB2323"/>
<rect x="60" y="15" width="50" height="7" rx="3.5" fill="#CB2323"/>
<rect x="61" y="53" width="47" height="6" rx="3" fill="#CB2323"/>
<rect x="28" width="65" height="6" rx="3" fill="white"/>
<rect x="58" y="47" width="16" height="6" rx="3" fill="white"/>
<rect x="39" y="47" width="16" height="6" rx="3" fill="white"/>
<defs>
<clipPath id="clip0">
<rect width="61" height="62" fill="white" transform="translate(112 8)"/>
</clipPath>
</defs>
</svg>
