<svg width="106" height="46" viewBox="0 0 106 46" fill="none" xmlns="http://www.w3.org/2000/svg">
<path d="M94.2175 17.4533L96.562 15.1152L94.441 13L91.879 15.5535C90.304 14.6111 88.468 14.0576 86.5 14.0576C80.7115 14.0576 76 18.7547 76 24.5288C76 30.3029 80.7115 35 86.5 35C92.2885 35 97 30.3029 97 24.5288C96.9988 21.905 96.0052 19.3783 94.2175 17.4533ZM86.5 32.0082C82.3645 32.0082 79 28.653 79 24.5288C79 20.4046 82.3645 17.0494 86.5 17.0494C90.6355 17.0494 94 20.4046 94 24.5288C94 28.653 90.6355 32.0082 86.5 32.0082Z" fill="#39393A"/>
<path d="M84.4764 21.2412C84.4764 20.4084 85.1515 19.7333 85.9843 19.7333C86.817 19.7333 87.4921 20.4084 87.4921 21.2412V24.3588C87.4921 25.1916 86.817 25.8667 85.9843 25.8667C85.1515 25.8667 84.4764 25.1916 84.4764 24.3588V21.2412ZM82.9686 10.5333C82.9686 9.6865 83.655 9 84.5019 9H87.4667C88.3135 9 89 9.6865 89 10.5333C89 11.3802 88.3135 12.0667 87.4667 12.0667H84.5019C83.655 12.0667 82.9686 11.3802 82.9686 10.5333ZM67.8899 18.2C67.8899 17.3532 68.5764 16.6667 69.4233 16.6667H72.388C73.2349 16.6667 73.9214 17.3532 73.9214 18.2C73.9214 19.0468 73.2349 19.7333 72.388 19.7333H69.4233C68.5764 19.7333 67.8899 19.0468 67.8899 18.2ZM67.8899 30.4667C67.8899 29.6198 68.5764 28.9333 69.4233 28.9333H72.388C73.2349 28.9333 73.9214 29.6198 73.9214 30.4667C73.9214 31.3135 73.2349 32 72.388 32H69.4233C68.5764 32 67.8899 31.3135 67.8899 30.4667ZM60.3792 24.0242C60.5259 23.3115 61.1534 22.8 61.8811 22.8H70.8651C71.7119 22.8 72.3984 23.4865 72.3984 24.3333C72.3984 25.1802 71.7119 25.8667 70.8651 25.8667H61.8811C60.91 25.8667 60.1834 24.9754 60.3792 24.0242Z" fill="#39393A"/>
<path d="M61.7194 23C61.7194 41.8929 91.5126 46 78.8777 46C66.2427 46 56 35.7025 56 23C56 10.2975 66.2427 0 78.8777 0C91.5126 0 61.7194 2.875 61.7194 23Z" fill="#39393A"/>
<rect x="54" width="31" height="4" rx="2" fill="#39393A"/>
<rect x="43" y="42" width="42" height="4" rx="2" fill="#39393A"/>
<rect x="10" y="35" width="57" height="3" rx="1.5" fill="#39393A"/>
<rect y="20" width="59" height="4" rx="2" fill="#39393A"/>
<rect x="12" y="13" width="49" height="4" rx="2" fill="#39393A"/>
<rect x="44" y="5" width="22" height="4" rx="2" fill="#39393A"/>
<rect x="43" y="28" width="17" height="3" rx="1.5" fill="#39393A"/>
<rect x="41" y="38" width="28" height="4" rx="2" fill="#DAD6D6"/>
<rect x="31" y="24" width="28" height="4" rx="2" fill="#DAD6D6"/>
<rect x="32" y="17" width="28" height="3" rx="1.5" fill="#DAD6D6"/>
<rect x="33" y="9" width="30" height="4" rx="2" fill="#DAD6D6"/>
<rect x="34" y="31" width="27" height="4" rx="2" fill="#DAD6D6"/>
<rect x="14" width="39" height="4" rx="2" fill="#39393A"/>
<rect x="32" y="28" width="9" height="3" rx="1.5" fill="#39393A"/>
<rect x="21" y="28" width="9" height="3" rx="1.5" fill="#39393A"/>
<circle cx="83" cy="23" r="20.5" stroke="#39393A" stroke-width="5"/>
</svg>
