<svg xmlns="http://www.w3.org/2000/svg" viewBox="0 0 60.6 52.79"><g id="レイヤー_2" data-name="レイヤー 2"><g id="レイヤー_3" data-name="レイヤー 3"><path d="M0,15V10.05q7-.69,9.76-2.28T13.89.21H19V51.39h-6.9V15Z"/><path d="M57.15,8.22q3.45,6.34,3.45,17.41Q60.6,36.1,57.48,43,53,52.79,42.69,52.79a14.8,14.8,0,0,1-13.78-8q-3.77-6.7-3.77-18a44.47,44.47,0,0,1,2.26-15Q31.63,0,42.73,0,52.71,0,57.15,8.22Zm-6.5,34.24q3-4.45,3-16.58,0-8.76-2.16-14.41T43.1,5.81q-5.72,0-8.36,5.37T32.1,27a38.91,38.91,0,0,0,1.69,12.63q2.6,7.29,8.84,7.29A9.23,9.23,0,0,0,50.65,42.46Z"/></g></g></svg>