<svg xmlns="http://www.w3.org/2000/svg" viewBox="0 0 35.53 51.57"><g id="レイヤー_2" data-name="レイヤー 2"><g id="レイヤー_3" data-name="レイヤー 3"><path d="M2.75,40q2.38-4.92,9.31-8.94l6.89-4a32.69,32.69,0,0,0,6.5-4.6,9.47,9.47,0,0,0,2.94-6.83A9.56,9.56,0,0,0,25.7,8.53a9.82,9.82,0,0,0-7.18-2.64q-6.64,0-9.19,5a18.16,18.16,0,0,0-1.51,7.49H1.26A23.09,23.09,0,0,1,3.73,7.46Q7.93,0,18.55,0q8.84,0,12.91,4.77A16,16,0,0,1,35.53,15.4,14.47,14.47,0,0,1,31.19,26q-2.52,2.55-9,6.17l-4.92,2.73a32,32,0,0,0-5.52,3.69,13.55,13.55,0,0,0-4.53,6.93H35.28v6.1H0A29.79,29.79,0,0,1,2.75,40Z"/></g></g></svg>