<svg xmlns="http://www.w3.org/2000/svg" viewBox="0 0 35.92 52.86"><g id="レイヤー_2" data-name="レイヤー 2"><g id="レイヤー_3" data-name="レイヤー 3"><path d="M4.11,47.86A18.59,18.59,0,0,1,0,35.67H6.75C7,39,7.66,41.42,8.61,42.92Q11.13,47,17.69,47a11.92,11.92,0,0,0,8.19-2.73,9,9,0,0,0,3.08-7q0-5.31-3.25-7.43t-9-2.12l-1.31,0-1.35,0V22c.67.07,1.23.12,1.69.14s.94,0,1.47,0a13.58,13.58,0,0,0,6-1.15c2.73-1.34,4.09-3.74,4.09-7.18A7,7,0,0,0,24.51,8a10.15,10.15,0,0,0-6.35-2.08q-6.46,0-8.94,4.3a14.94,14.94,0,0,0-1.54,6.75H1.29a19.39,19.39,0,0,1,2.3-9.76Q7.54,0,17.48,0q7.86,0,12.16,3.5T34,13.64a11.3,11.3,0,0,1-2.55,7.68,10.6,10.6,0,0,1-4.09,2.87,11.16,11.16,0,0,1,6.34,4.29,13,13,0,0,1,2.27,7.77,15.81,15.81,0,0,1-4.84,12q-4.84,4.64-13.75,4.63Q8.23,52.86,4.11,47.86Z"/></g></g></svg>