<svg xmlns="http://www.w3.org/2000/svg" viewBox="0 0 35.39 51.82"><g id="レイヤー_2" data-name="レイヤー 2"><g id="レイヤー_3" data-name="レイヤー 3"><path d="M6.71,37.43q.64,5.53,5.13,7.65a12.49,12.49,0,0,0,5.31,1.07q5.75,0,8.51-3.66a13.15,13.15,0,0,0,2.76-8.11c0-3.59-1.09-6.36-3.28-8.33a11.42,11.42,0,0,0-7.88-2.94,11.87,11.87,0,0,0-5.72,1.29A12.46,12.46,0,0,0,7.46,28l-5.59-.32L5.78,0h26.7V6.24H10.62L8.43,20.53a16.55,16.55,0,0,1,3.41-2.05,17.33,17.33,0,0,1,6.64-1.18,17,17,0,0,1,12,4.56,15.05,15.05,0,0,1,4.92,11.55,19.85,19.85,0,0,1-4.51,12.85q-4.5,5.57-14.37,5.56A18.35,18.35,0,0,1,5.4,48.29Q.57,44.75,0,37.43Z"/></g></g></svg>