<svg xmlns="http://www.w3.org/2000/svg" viewBox="0 0 35.24 52.94"><g id="レイヤー_2" data-name="レイヤー 2"><g id="レイヤー_3" data-name="レイヤー 3"><path d="M30.74,4.47a15.06,15.06,0,0,1,3.39,9.2H27.74A11.72,11.72,0,0,0,25.91,8.9q-2.32-3.23-7.07-3.23-5.41,0-8.61,5T6.67,25a14.17,14.17,0,0,1,5.6-4.88,16.27,16.27,0,0,1,6.89-1.43,16.75,16.75,0,0,1,11.27,4.12Q35.25,27,35.24,35.13a18.66,18.66,0,0,1-4.56,12.4q-4.55,5.41-13,5.41A16.65,16.65,0,0,1,5.24,47.46Q0,42,0,29A49.73,49.73,0,0,1,2.33,12.78Q6.82,0,18.73,0,27.36,0,30.74,4.47Zm-4.85,39.3a13.26,13.26,0,0,0,2.53-8.1,13.84,13.84,0,0,0-2.26-7.52q-2.25-3.57-8.22-3.57a10.68,10.68,0,0,0-7.3,2.77Q7.51,30.11,7.5,35.67a12.13,12.13,0,0,0,2.85,8.2,9.87,9.87,0,0,0,7.92,3.32C21.66,47.19,24.21,46.05,25.89,43.77Z"/></g></g></svg>