<svg xmlns="http://www.w3.org/2000/svg" viewBox="0 0 35.31 53.01"><g id="レイヤー_2" data-name="レイヤー 2"><g id="レイヤー_3" data-name="レイヤー 3"><path d="M4.63,21.46A10.16,10.16,0,0,1,1.79,14,13.42,13.42,0,0,1,6,4.13Q10.11,0,17.75,0q7.38,0,11.58,3.89A12.08,12.08,0,0,1,33.52,13a11.89,11.89,0,0,1-2.44,7.79,14.79,14.79,0,0,1-4.23,3.3,16.35,16.35,0,0,1,5,3.38,13,13,0,0,1,3.42,9.33,16,16,0,0,1-4.55,11.5Q26.2,53,17.87,53A19.85,19.85,0,0,1,5.19,48.93Q0,44.86,0,37.11a13.84,13.84,0,0,1,2.22-7.88,14,14,0,0,1,6.61-5.08A12.63,12.63,0,0,1,4.63,21.46ZM25.46,44.7c2-1.62,3-4,3-7.23s-1-5.85-3.05-7.57a11.64,11.64,0,0,0-7.82-2.59A10.85,10.85,0,0,0,10,30a9.33,9.33,0,0,0-2.92,7.3,10,10,0,0,0,2.67,7c1.79,1.95,4.54,2.92,8.28,2.92A11.37,11.37,0,0,0,25.46,44.7Zm-1.2-25.41a7.76,7.76,0,0,0,2.41-5.71,7.52,7.52,0,0,0-2.3-5.28c-1.53-1.61-3.85-2.41-7-2.41S12,6.69,10.65,8.3a8.38,8.38,0,0,0-2.07,5.64,6.75,6.75,0,0,0,2.68,5.69,10.2,10.2,0,0,0,6.34,2.05A9,9,0,0,0,24.26,19.29Z"/></g></g></svg>