<svg xmlns="http://www.w3.org/2000/svg" viewBox="0 0 34.74 52.86"><g id="レイヤー_2" data-name="レイヤー 2"><g id="レイヤー_3" data-name="レイヤー 3"><path d="M7.14,39q.29,5.35,4.13,7.39a9.1,9.1,0,0,0,4.45,1.08,10,10,0,0,0,7.89-3.86Q26.88,39.77,28.24,28a12,12,0,0,1-5.32,4.79,17,17,0,0,1-6.84,1.38q-7.42,0-11.76-4.62A16.76,16.76,0,0,1,0,17.6,19,19,0,0,1,4.27,5.31Q8.55,0,16.87,0,28.1,0,32.37,10.11A35.65,35.65,0,0,1,34.74,24a46,46,0,0,1-2.83,16.71Q27.2,52.86,16,52.86q-7.53,0-11.45-3.94A13.5,13.5,0,0,1,.61,39ZM24,25.93q3.16-2.52,3.17-8.83c0-3.77-.95-6.59-2.85-8.44A10,10,0,0,0,17,5.89,9.48,9.48,0,0,0,9.49,9.06a12.4,12.4,0,0,0-2.78,8.47,12.1,12.1,0,0,0,2.44,8c1.63,2,4.22,3,7.79,3A11,11,0,0,0,24,25.93Z"/></g></g></svg>