<svg width="37" height="37" viewBox="0 0 37 37" fill="none" xmlns="http://www.w3.org/2000/svg">
<circle cx="18.5903" cy="18.4155" r="18.2602" fill="#39393A"/>
<path d="M11.7 9.28589H25.2639C26.5566 9.28589 27.6057 10.2898 27.6057 11.7465V25.9985C27.6057 27.4552 26.5566 28.4591 25.2639 28.4591H11.7C10.4073 28.4591 9.35815 27.4552 9.35815 25.9985V11.7465C9.35815 10.2898 10.4073 9.28589 11.7 9.28589ZM22.641 11.4119C22.1914 11.4119 21.8167 11.8056 21.8167 12.278V14.3449C21.8167 14.8174 22.1914 15.2111 22.641 15.2111H24.7018C25.1515 15.2111 25.5261 14.8174 25.5261 14.3449V12.278C25.5261 11.8056 25.1515 11.4119 24.7018 11.4119H22.641ZM25.5449 17.3961H23.9337C24.0836 17.9079 24.1773 18.4788 24.1773 19.0497C24.1773 22.2386 21.6293 24.8174 18.5007 24.8174C15.372 24.8174 12.8241 22.2386 12.8241 19.0497C12.8241 18.4788 12.899 17.9276 13.0676 17.3961H11.4002V25.4867C11.4002 25.9001 11.7187 26.2544 12.1309 26.2544H24.833C25.2264 26.2544 25.5636 25.9197 25.5636 25.4867L25.5449 17.3961ZM18.5007 15.093C16.4773 15.093 14.8287 16.7662 14.8287 18.8331C14.8287 20.9001 16.4773 22.5733 18.5007 22.5733C20.524 22.5733 22.1726 20.9001 22.1726 18.8331C22.1726 16.7662 20.524 15.093 18.5007 15.093Z" fill="white"/>
</svg>
